<svg xmlns="http://www.w3.org/2000/svg" viewBox="0 0 20 20" data-pef="true" data-qa="clear"
    aria-hidden="true" class="" style="--s: 20px; opacity: 0.6;">
    <path fill="currentColor" fill-rule="evenodd"
        d="M5.306 8.3c.815-.397 1.723-.541 2.602-.267l4.229-6.671a.75.75 0 1 1 1.266.803L9.2 8.798q.098.099.18.207c.27.351.402.734.46 1.112.056.367.046.742.024 1.088-.01.16-.021.303-.032.444-.016.198-.031.39-.042.615-.032.705.007 1.432.333 2.217s.966 1.693 2.237 2.698a.75.75 0 0 1-.465 1.338H2.32a.75.75 0 0 1-.72-.544c-.785-2.747-.048-5.543 1.279-7.47.664-.965 1.503-1.752 2.427-2.203M18.5 10.75a.75.75 0 0 1-.75.75h-5a.75.75 0 0 1 0-1.5h5a.75.75 0 0 1 .75.75m-.75 3.75a.75.75 0 0 0 0-1.5h-5a.75.75 0 0 0 0 1.5zm0 3a.75.75 0 0 0 0-1.5h-3a.75.75 0 0 0 0 1.5zm-12.317-.483c-.222-.52-.366-1.338-.188-2.544a.5.5 0 1 0-.99-.146c-.163 1.114-.091 2.004.116 2.69H2.91c-.412-2.08.18-4.176 1.203-5.663q.318-.46.669-.82c.665.789 1.868 1.63 3.502 1.825-.025.782.037 1.698.451 2.697.267.643.67 1.297 1.259 1.961H8.173C7.709 16.45 7.3 15.497 7.3 14a.5.5 0 0 0-1 0c0 1.283.27 2.276.674 3.017zm.114-7.128c.51.605 1.47 1.294 2.802 1.47l.017-.248c.02-.322.021-.565-.01-.765a.9.9 0 0 0-.166-.427c-.085-.11-.236-.244-.53-.378-.493-.226-1.068-.2-1.696.107a4 4 0 0 0-.417.241"
        clip-rule="evenodd"></path>
</svg>