<svg xmlns="http://www.w3.org/2000/svg" viewBox="0 0 20 20" data-pef="true" data-qa="section" aria-hidden="true" class="" style="--s: 20px; opacity: 0.6;"><g fill="currentColor"><path d="M13.251 15.25a.75.75 0 0 1 0 1.5h-10a.75.75 0 0 1 0-1.5zm0-4a.75.75 0 0 1 0 1.5h-10a.75.75 0 0 1 0-1.5z"></path><path fill-rule="evenodd" d="M15.75 3.25c.966 0 1.75.784 1.75 1.75v2.049a1.75 1.75 0 0 1-1.75 1.75H4.25a1.75 1.75 0 0 1-1.75-1.75V5c0-.966.784-1.75 1.75-1.75zm-11.5 1.5A.25.25 0 0 0 4 5v2.049c0 .138.112.25.25.25h11.5a.25.25 0 0 0 .25-.25V5a.25.25 0 0 0-.25-.25z" clip-rule="evenodd"></path></g></svg>