<svg xmlns="http://www.w3.org/2000/svg" viewBox="0 0 20 20" data-pef="true" data-qa="menu_item_link_indicator" aria-hidden="true" class=""><path fill="currentColor" d="M8.25 4a.75.75 0 0 1 0 1.5h-2.5A2.25 2.25 0 0 0 3.5 7.75v6.5a2.25 2.25 0 0 0 2.25 2.25h6.5a2.25 2.25 0 0 0 2.25-2.25v-2.5a.75.75 0 0 1 1.5 0v2.5A3.75 3.75 0 0 1 12.25 18h-6.5A3.75 3.75 0 0 1 2 14.25v-6.5A3.75 3.75 0 0 1 5.75 4zm9-2a.75.75 0 0 1 .75.75v4.5a.75.75 0 0 1-1.5 0V4.56l-7.22 7.22a.75.75 0 1 1-1.06-1.06l7.22-7.22h-2.69a.75.75 0 0 1 0-1.5z"></path></svg>