<svg id="svg" version="1.1" width="400" height="400" viewBox="0 0 400 400" xmlns="http://www.w3.org/2000/svg" xmlns:xlink="http://www.w3.org/1999/xlink"><g id="svgg"><path id="path0" d="M134.000 1.000 C 134.000 1.924,133.858 2.000,132.133 2.000 C 129.423 2.000,130.198 2.355,133.165 2.472 C 134.769 2.536,135.763 2.759,135.887 3.084 C 135.995 3.365,136.245 3.496,136.442 3.374 C 136.639 3.252,136.820 3.388,136.845 3.676 C 137.061 6.174,137.039 6.800,136.737 6.800 C 136.546 6.800,135.277 7.329,133.919 7.977 C 132.560 8.624,131.336 9.084,131.200 9.000 C 131.063 8.916,130.332 9.376,129.576 10.022 C 128.294 11.118,125.271 11.688,123.400 11.188 C 123.180 11.129,122.505 10.997,121.900 10.895 C 120.840 10.716,120.273 9.161,121.100 8.699 C 121.265 8.607,121.181 8.584,120.913 8.648 C 120.645 8.712,120.319 8.593,120.189 8.383 C 119.946 7.988,120.213 7.921,122.100 7.903 C 122.903 7.895,123.200 7.691,123.200 7.146 C 123.200 6.736,123.009 6.400,122.776 6.400 C 122.543 6.400,122.445 6.550,122.559 6.733 C 122.672 6.917,122.511 7.067,122.200 7.067 C 121.889 7.067,121.740 6.897,121.868 6.690 C 122.006 6.467,121.715 6.433,121.150 6.607 C 119.882 6.997,119.934 6.911,119.701 8.980 C 119.488 10.874,119.168 11.075,116.700 10.868 C 116.315 10.836,116.000 10.998,116.000 11.228 C 116.000 11.459,115.865 11.564,115.700 11.462 C 115.535 11.360,115.345 12.109,115.278 13.127 C 115.132 15.348,115.314 15.142,113.385 15.265 C 112.513 15.320,111.575 15.585,111.300 15.854 C 110.625 16.514,110.652 17.742,111.336 17.480 C 111.631 17.367,112.126 17.445,112.436 17.654 C 112.912 17.974,112.906 18.023,112.400 17.969 C 111.120 17.833,110.800 18.035,110.800 18.980 C 110.800 19.519,111.115 20.144,111.500 20.368 C 111.915 20.610,111.991 20.781,111.686 20.788 C 111.288 20.797,111.273 20.989,111.622 21.641 C 111.869 22.103,111.983 22.823,111.874 23.240 C 111.764 23.658,111.814 24.085,111.983 24.189 C 114.369 25.664,112.432 32.198,109.526 32.476 C 107.641 32.655,106.815 32.240,106.754 31.080 C 106.711 30.268,106.692 30.262,106.512 31.000 C 106.405 31.440,106.038 32.115,105.697 32.500 C 104.925 33.370,105.314 33.429,106.171 32.571 C 106.743 32.000,106.805 32.100,106.854 33.671 C 106.994 38.195,106.690 44.221,106.310 44.456 C 106.019 44.635,106.020 45.083,106.314 45.924 C 106.883 47.556,106.749 53.028,106.143 52.914 C 105.892 52.867,105.593 53.182,105.480 53.614 C 105.338 54.160,105.477 54.402,105.937 54.406 C 106.462 54.411,106.487 54.484,106.057 54.756 C 105.679 54.996,105.649 55.183,105.957 55.374 C 106.201 55.524,106.400 55.855,106.400 56.109 C 106.400 56.367,106.090 56.260,105.700 55.868 C 105.256 55.421,105.000 54.549,105.000 53.482 C 105.000 51.877,104.941 51.794,103.700 51.675 C 102.985 51.606,102.400 51.711,102.400 51.908 C 102.400 52.547,102.915 52.803,103.397 52.403 C 103.718 52.136,103.867 52.189,103.867 52.571 C 103.867 52.896,103.561 53.070,103.133 52.987 C 102.246 52.816,102.180 53.319,103.000 54.000 C 103.447 54.371,103.600 54.378,103.600 54.025 C 103.600 53.765,103.772 53.659,103.983 53.789 C 104.193 53.919,104.275 54.261,104.165 54.548 C 104.054 54.835,104.497 55.594,105.149 56.235 C 105.801 56.876,106.412 57.940,106.507 58.600 L 106.680 59.800 106.740 58.564 C 106.844 56.424,109.804 56.017,112.086 57.831 L 113.132 58.661 112.533 60.831 C 111.706 63.824,112.148 64.860,114.523 65.495 C 115.994 65.888,116.505 66.278,117.224 67.557 C 117.958 68.864,118.526 69.284,120.555 70.021 C 123.842 71.215,127.151 74.230,128.131 76.925 C 128.276 77.324,128.576 77.539,128.797 77.402 C 129.019 77.265,129.200 77.343,129.200 77.576 C 129.200 77.809,129.837 78.000,130.616 78.000 C 134.110 78.000,136.026 79.969,136.149 83.686 C 136.181 84.660,185.219 84.585,186.692 83.609 C 188.073 82.694,188.075 82.665,188.218 67.600 C 188.292 59.790,188.538 51.600,188.766 49.400 C 188.993 47.200,189.190 45.130,189.202 44.800 C 189.221 44.325,189.341 44.353,189.781 44.933 C 190.307 45.628,190.344 45.617,190.490 44.733 C 190.631 43.878,190.695 43.917,191.263 45.200 L 191.882 46.600 191.737 44.400 C 191.633 42.813,191.697 42.423,191.968 43.000 C 192.175 43.440,192.356 45.495,192.372 47.567 C 192.415 53.325,192.760 51.718,193.221 43.616 C 193.664 35.823,193.652 35.699,192.530 36.351 C 192.129 36.585,192.025 36.781,192.300 36.788 C 192.575 36.795,192.800 37.138,192.800 37.551 C 192.800 40.274,188.875 39.254,188.756 36.500 C 188.725 35.785,188.671 35.065,188.635 34.900 C 188.235 33.064,187.935 32.565,187.194 32.510 C 183.943 32.265,182.578 30.201,182.317 25.134 C 182.233 23.515,182.010 21.940,181.821 21.633 C 181.588 21.256,181.624 21.168,181.934 21.359 C 182.229 21.542,182.307 21.423,182.154 21.023 C 182.023 20.683,181.791 20.482,181.639 20.576 C 180.870 21.051,180.299 19.891,180.148 17.549 C 180.057 16.147,179.907 14.787,179.814 14.526 C 179.721 14.265,179.860 13.964,180.122 13.857 C 180.463 13.719,180.449 13.654,180.076 13.632 C 179.358 13.588,179.899 12.800,180.647 12.800 C 180.999 12.800,181.129 12.991,180.962 13.262 C 180.784 13.550,180.852 13.615,181.145 13.434 C 181.402 13.275,181.495 12.954,181.351 12.720 C 181.200 12.477,181.325 12.375,181.644 12.481 C 181.950 12.583,182.208 12.922,182.218 13.233 C 182.228 13.545,182.475 13.748,182.767 13.684 C 183.106 13.609,183.210 13.798,183.054 14.204 C 182.919 14.555,182.951 14.754,183.125 14.647 C 183.298 14.539,183.647 14.784,183.901 15.190 C 184.268 15.778,184.240 15.976,183.764 16.158 C 183.105 16.411,183.666 18.000,184.414 18.000 C 184.927 18.000,184.913 15.317,184.399 14.999 C 184.178 14.863,184.103 14.328,184.233 13.810 C 184.507 12.717,183.222 11.172,182.100 11.246 C 181.433 11.291,181.433 11.302,182.100 11.476 C 182.485 11.576,182.800 11.836,182.800 12.053 C 182.800 12.270,183.008 12.319,183.262 12.162 C 183.548 11.985,183.615 12.052,183.438 12.338 C 183.281 12.592,183.343 12.800,183.576 12.800 C 183.809 12.800,184.000 13.094,184.000 13.454 C 184.000 13.931,183.775 13.822,183.171 13.054 C 182.715 12.474,182.158 12.000,181.933 12.000 C 181.323 12.000,179.200 10.406,179.200 9.949 C 179.200 9.731,179.380 9.664,179.600 9.800 C 179.820 9.936,180.000 9.756,180.000 9.400 C 180.000 9.044,179.809 8.871,179.575 9.016 C 179.341 9.160,178.801 8.963,178.375 8.577 C 177.711 7.976,177.600 7.964,177.600 8.495 C 177.600 8.836,177.868 9.217,178.197 9.343 C 178.545 9.477,178.758 9.995,178.709 10.586 C 178.610 11.789,178.640 11.776,177.949 10.923 C 177.483 10.349,177.484 10.297,177.952 10.579 C 178.336 10.810,178.442 10.742,178.302 10.356 C 178.191 10.050,177.853 9.860,177.550 9.933 C 177.248 10.007,177.133 9.933,177.297 9.770 C 177.645 9.422,176.890 8.400,176.284 8.400 C 176.055 8.400,175.985 8.518,176.130 8.663 C 176.275 8.808,176.212 9.144,175.992 9.410 C 175.711 9.748,175.803 10.061,176.295 10.447 C 176.950 10.961,176.957 10.943,176.400 10.200 C 175.844 9.458,175.851 9.440,176.500 9.949 C 177.312 10.586,177.426 11.272,176.700 11.153 C 176.425 11.108,175.693 11.281,175.074 11.536 C 172.478 12.606,169.600 11.614,169.600 9.649 C 169.600 8.168,166.880 7.272,165.472 8.289 C 163.464 9.740,161.000 7.930,161.000 5.004 C 161.000 3.005,161.388 2.592,163.385 2.465 C 165.319 2.341,165.820 2.000,164.067 2.000 C 162.982 2.000,162.800 1.856,162.800 1.000 L 162.800 0.000 148.400 0.000 L 134.000 0.000 134.000 1.000 M173.334 6.668 C 173.691 7.025,175.652 7.207,175.439 6.864 C 175.316 6.664,174.754 6.500,174.191 6.500 C 173.627 6.500,173.242 6.575,173.334 6.668 M176.400 7.200 C 176.933 7.545,176.933 7.589,176.400 7.600 C 175.880 7.611,175.878 7.661,176.381 7.980 C 177.080 8.422,177.600 8.164,177.600 7.376 C 177.600 7.044,177.220 6.803,176.700 6.806 C 175.972 6.811,175.915 6.886,176.400 7.200 M178.000 7.600 C 178.000 7.820,178.225 7.955,178.500 7.900 C 178.775 7.845,178.942 8.070,178.871 8.400 C 178.766 8.891,178.838 8.906,179.268 8.483 C 179.701 8.057,179.689 7.901,179.197 7.589 C 178.420 7.099,178.000 7.102,178.000 7.600 M183.439 18.294 C 182.912 18.821,183.247 19.600,184.000 19.600 C 184.440 19.600,184.800 19.349,184.800 19.043 C 184.800 18.439,183.828 17.905,183.439 18.294 M106.445 28.200 C 106.390 29.071,106.017 29.622,105.085 30.211 C 104.089 30.840,103.795 31.309,103.776 32.301 C 103.763 33.005,103.613 33.720,103.443 33.890 C 103.273 34.061,103.193 34.020,103.267 33.800 C 103.340 33.580,103.220 33.323,103.000 33.228 C 102.780 33.134,102.542 33.359,102.471 33.728 C 102.398 34.108,102.594 34.400,102.922 34.400 C 103.700 34.400,104.537 33.345,104.195 32.792 C 103.838 32.215,105.173 30.743,105.753 31.074 C 105.999 31.214,106.065 31.179,105.899 30.997 C 105.734 30.814,105.882 30.351,106.229 29.968 C 106.608 29.549,106.792 28.817,106.690 28.135 L 106.520 27.000 106.445 28.200 M189.400 28.800 C 189.264 29.020,189.354 29.200,189.600 29.200 C 189.846 29.200,189.937 29.378,189.803 29.595 C 189.658 29.830,189.837 29.884,190.245 29.727 C 190.691 29.556,190.836 29.618,190.659 29.904 C 190.509 30.147,190.573 30.460,190.800 30.600 C 191.027 30.740,191.092 31.051,190.945 31.289 C 190.781 31.555,190.863 31.608,191.158 31.426 C 191.526 31.198,191.529 30.997,191.170 30.564 C 190.591 29.866,191.240 29.815,191.979 30.500 C 192.410 30.900,192.461 30.900,192.235 30.500 C 192.080 30.225,192.143 30.000,192.376 30.000 C 192.609 30.000,192.800 30.270,192.800 30.600 C 192.800 30.930,192.637 31.200,192.437 31.200 C 192.238 31.200,192.169 31.560,192.284 32.000 C 192.399 32.440,192.634 32.800,192.805 32.800 C 193.193 32.800,193.074 29.966,192.658 29.294 C 192.194 28.543,191.482 28.705,191.749 29.500 C 191.902 29.957,191.761 29.887,191.343 29.300 C 190.667 28.350,189.814 28.131,189.400 28.800 M191.453 34.887 C 191.564 35.066,191.823 35.109,192.028 34.983 C 192.232 34.856,192.400 34.943,192.400 35.176 C 192.400 35.409,192.550 35.600,192.733 35.600 C 192.917 35.600,193.067 35.366,193.067 35.080 C 193.067 34.794,192.658 34.560,192.159 34.560 C 191.660 34.560,191.342 34.707,191.453 34.887 M102.400 35.800 C 102.400 36.350,102.574 36.800,102.787 36.800 C 103.001 36.800,103.060 36.500,102.919 36.134 C 102.767 35.738,102.826 35.569,103.065 35.717 C 103.286 35.853,103.467 35.703,103.467 35.382 C 103.467 35.062,103.227 34.800,102.933 34.800 C 102.631 34.800,102.400 35.233,102.400 35.800 M191.849 37.784 C 192.012 38.208,191.841 38.323,191.226 38.205 C 190.760 38.115,190.474 38.196,190.591 38.385 C 190.940 38.951,192.190 38.575,192.329 37.862 C 192.400 37.498,192.271 37.200,192.042 37.200 C 191.813 37.200,191.726 37.463,191.849 37.784 M102.400 42.800 C 102.400 45.440,102.563 47.600,102.761 47.600 C 102.960 47.600,103.089 45.789,103.047 43.575 C 103.004 41.273,103.110 39.860,103.294 40.275 C 103.530 40.806,103.562 40.733,103.414 40.000 C 103.302 39.450,103.208 38.775,103.205 38.500 C 103.202 38.225,103.020 38.000,102.800 38.000 C 102.556 38.000,102.400 39.867,102.400 42.800 M103.530 44.800 C 103.400 45.570,103.451 46.397,103.643 46.637 C 103.836 46.877,103.865 47.202,103.709 47.358 C 103.552 47.514,103.749 47.518,104.146 47.365 C 104.713 47.148,104.753 47.017,104.334 46.750 C 103.873 46.459,104.099 46.260,104.817 46.325 C 104.936 46.336,105.060 45.772,105.093 45.072 C 105.125 44.373,105.058 44.070,104.944 44.400 C 104.360 46.090,104.252 46.136,104.015 44.800 L 103.766 43.400 103.530 44.800 M102.400 49.800 C 102.400 50.989,102.536 51.198,103.300 51.188 C 104.104 51.177,104.125 51.132,103.500 50.768 C 103.115 50.544,102.800 50.167,102.800 49.931 C 102.800 49.671,103.076 49.719,103.500 50.051 C 104.141 50.554,104.151 50.538,103.626 49.870 C 103.127 49.235,103.127 49.091,103.626 48.776 C 104.069 48.495,103.995 48.411,103.300 48.406 C 102.537 48.401,102.400 48.613,102.400 49.800 M193.110 64.100 C 193.050 71.855,193.117 78.740,193.259 79.400 C 193.402 80.060,193.537 73.715,193.559 65.300 C 193.582 56.885,193.515 50.000,193.410 50.000 C 193.306 50.000,193.171 56.345,193.110 64.100 M106.989 66.018 C 106.852 66.239,106.979 66.370,107.270 66.310 C 107.562 66.249,107.755 66.425,107.700 66.700 C 107.590 67.251,108.237 67.388,108.551 66.880 C 108.659 66.704,108.408 66.348,107.993 66.088 C 107.500 65.780,107.151 65.756,106.989 66.018 M110.260 67.070 C 110.512 67.251,110.811 67.850,110.923 68.400 C 111.099 69.261,111.118 69.238,111.063 68.231 C 111.028 67.571,110.738 66.991,110.400 66.900 C 109.999 66.793,109.952 66.849,110.260 67.070 M193.000 82.238 C 193.000 82.767,193.135 83.200,193.300 83.200 C 193.465 83.200,193.600 82.851,193.600 82.424 C 193.600 81.997,193.465 81.564,193.300 81.462 C 193.135 81.360,193.000 81.709,193.000 82.238 M124.603 83.995 C 124.466 84.216,124.615 84.293,124.939 84.168 C 125.258 84.046,125.638 84.138,125.783 84.373 C 125.928 84.608,126.262 84.794,126.524 84.787 C 126.786 84.780,126.651 84.510,126.224 84.187 C 125.313 83.498,124.938 83.454,124.603 83.995 M133.480 85.923 C 134.213 87.838,134.888 88.340,137.099 88.613 C 137.925 88.715,139.079 88.907,139.664 89.039 C 140.250 89.171,141.060 89.070,141.464 88.815 C 142.096 88.415,142.040 88.383,141.066 88.591 C 140.246 88.765,140.014 88.700,140.228 88.354 C 140.424 88.037,140.353 87.982,140.017 88.189 C 139.722 88.372,139.365 88.272,139.161 87.951 C 138.871 87.493,138.811 87.499,138.806 87.989 C 138.802 88.382,138.593 88.283,138.177 87.689 C 137.835 87.200,137.308 86.800,137.006 86.800 C 136.705 86.800,136.074 86.312,135.605 85.715 C 134.907 84.828,134.686 84.737,134.392 85.213 C 134.089 85.704,133.935 85.670,133.426 84.998 C 132.923 84.337,132.933 84.495,133.480 85.923 M137.206 87.396 C 137.392 87.281,137.650 87.357,137.779 87.566 C 138.219 88.278,137.237 88.426,135.866 87.854 C 134.359 87.224,133.819 86.617,134.206 85.990 C 134.359 85.743,134.939 85.983,135.664 86.592 C 136.326 87.149,137.020 87.511,137.206 87.396 M143.000 88.800 L 142.200 89.144 143.000 89.166 C 143.440 89.178,144.070 89.013,144.400 88.800 C 145.195 88.286,144.196 88.286,143.000 88.800 M147.600 88.800 C 146.976 89.000,148.254 89.114,151.000 89.104 C 154.715 89.090,155.057 89.040,153.200 88.783 C 150.387 88.394,148.852 88.399,147.600 88.800 M163.282 88.696 C 164.758 88.773,167.278 88.773,168.882 88.697 C 170.487 88.621,169.280 88.558,166.200 88.558 C 163.120 88.557,161.807 88.619,163.282 88.696 M176.800 88.800 C 176.037 89.044,176.321 89.123,178.000 89.132 C 179.573 89.140,179.972 89.046,179.400 88.800 C 178.434 88.385,178.096 88.385,176.800 88.800 M187.434 88.923 C 187.822 89.140,188.409 89.140,188.895 88.923 C 189.566 88.624,189.452 88.560,188.247 88.560 C 187.162 88.560,186.953 88.654,187.434 88.923 M72.931 102.300 C 86.973 102.358,109.833 102.358,123.731 102.300 C 137.629 102.242,126.140 102.194,98.200 102.194 C 70.260 102.194,58.889 102.242,72.931 102.300 M32.306 102.667 C 32.627 102.796,32.347 103.189,31.544 103.735 C 29.810 104.917,29.273 105.834,29.933 106.489 C 30.351 106.904,30.408 106.887,30.235 106.400 C 29.813 105.210,33.002 102.645,33.644 103.658 C 33.833 103.956,33.991 104.011,33.994 103.780 C 34.003 103.150,33.123 102.396,32.420 102.432 C 31.998 102.453,31.962 102.528,32.306 102.667 M34.400 103.049 C 34.400 103.512,34.543 103.585,34.900 103.303 C 35.175 103.085,35.670 102.807,36.000 102.685 C 36.342 102.559,36.127 102.450,35.500 102.432 C 34.739 102.410,34.400 102.600,34.400 103.049 M41.800 102.800 C 42.901 103.273,43.292 103.273,43.000 102.800 C 42.864 102.580,42.358 102.413,41.876 102.428 C 41.031 102.455,41.029 102.469,41.800 102.800 M159.730 102.914 C 159.357 103.517,159.777 103.547,160.801 102.991 L 161.800 102.448 160.870 102.511 C 160.358 102.546,159.845 102.727,159.730 102.914 M29.372 103.787 C 29.016 104.330,28.818 105.005,28.931 105.287 C 29.065 105.620,29.148 105.565,29.168 105.129 C 29.186 104.760,29.674 104.085,30.254 103.629 C 31.008 103.036,31.124 102.800,30.663 102.800 C 30.309 102.800,29.727 103.244,29.372 103.787 M160.611 103.583 C 160.460 103.827,160.575 103.971,160.870 103.910 C 161.162 103.849,161.345 104.055,161.277 104.368 C 161.172 104.858,161.249 104.858,161.843 104.368 C 162.474 103.847,162.492 103.874,162.051 104.700 C 161.660 105.435,161.676 105.600,162.136 105.600 C 162.471 105.600,162.700 105.194,162.700 104.600 C 162.700 104.050,162.557 103.600,162.383 103.600 C 162.208 103.600,161.799 103.498,161.473 103.373 C 161.147 103.248,160.759 103.342,160.611 103.583 M161.995 106.565 C 161.772 106.788,160.827 107.002,159.895 107.040 C 158.963 107.078,157.000 107.375,155.534 107.700 C 153.386 108.175,150.823 108.243,142.334 108.052 C 136.540 107.921,114.610 107.854,93.600 107.904 C 69.188 107.961,54.462 107.847,52.800 107.587 C 47.648 106.780,32.601 106.866,31.759 107.707 C 31.604 107.862,31.438 108.636,31.390 109.427 C 31.225 112.146,28.801 114.109,25.882 113.887 C 23.865 113.733,23.470 113.812,23.317 114.397 C 23.122 115.143,20.245 116.947,19.100 117.042 C 18.715 117.074,18.073 117.123,17.674 117.150 C 17.266 117.178,16.656 117.813,16.281 118.600 C 15.871 119.459,15.325 120.000,14.868 120.000 C 14.009 120.000,12.685 121.322,12.546 122.319 C 12.061 125.795,11.854 126.439,10.898 127.462 C 9.938 128.488,9.844 128.856,9.946 131.200 C 10.141 135.659,9.512 136.398,5.390 136.562 C 2.858 136.663,2.499 136.231,2.265 132.800 C 2.182 131.590,2.134 132.085,2.157 133.901 L 2.200 137.202 1.100 137.201 L 0.000 137.200 0.000 147.800 L 0.000 158.400 1.000 158.400 C 1.980 158.400,2.001 158.466,2.072 161.700 C 2.121 163.947,2.193 164.377,2.296 163.047 C 2.614 158.961,5.373 158.565,9.445 162.022 L 10.690 163.079 9.943 165.039 C 9.159 167.099,9.212 168.000,10.118 168.000 C 10.893 168.000,12.260 169.567,12.973 171.274 C 13.343 172.160,14.257 173.184,15.292 173.873 C 16.231 174.498,17.328 175.679,17.729 176.498 C 18.281 177.622,18.833 178.097,19.989 178.444 C 21.493 178.895,23.600 180.494,23.600 181.185 C 23.600 181.687,25.812 182.322,28.511 182.594 C 31.897 182.937,34.800 184.091,34.800 185.096 C 34.800 186.398,36.076 186.979,39.162 187.080 C 40.833 187.135,43.280 187.405,44.600 187.680 C 46.020 187.976,49.451 188.152,53.000 188.110 C 82.744 187.756,134.787 187.512,142.000 187.692 C 151.790 187.936,155.404 187.369,156.764 185.376 C 158.851 182.319,161.674 181.282,165.287 182.244 C 168.361 183.063,170.827 182.789,170.532 181.661 C 170.218 180.461,171.359 179.888,173.490 180.177 C 174.541 180.320,175.715 180.467,176.100 180.504 C 176.958 180.587,177.011 181.033,176.200 181.345 C 175.870 181.471,175.603 181.806,175.606 182.087 C 175.611 182.488,175.686 182.483,175.951 182.066 C 176.137 181.772,176.449 181.558,176.645 181.589 C 176.840 181.621,177.098 181.233,177.217 180.728 C 177.365 180.103,177.532 179.966,177.739 180.301 C 178.054 180.811,176.642 182.503,175.577 182.893 C 175.089 183.072,175.102 183.211,175.659 183.797 C 177.126 185.338,180.465 182.944,179.133 181.306 C 178.675 180.742,178.693 180.685,179.263 180.898 C 179.734 181.075,179.994 180.877,180.160 180.218 C 180.297 179.669,180.798 179.187,181.382 179.040 C 182.046 178.873,182.297 178.596,182.143 178.196 C 181.875 177.497,182.620 177.386,183.038 178.062 C 183.207 178.334,183.149 178.416,182.897 178.260 C 182.659 178.113,182.509 178.258,182.557 178.587 C 182.698 179.547,183.050 179.663,183.643 178.945 C 184.076 178.421,184.088 178.232,183.700 178.102 C 183.425 178.009,183.200 177.749,183.200 177.524 C 183.200 177.299,183.470 177.218,183.800 177.345 C 184.165 177.485,184.400 177.345,184.400 176.987 C 184.400 176.664,184.265 176.445,184.100 176.500 C 183.935 176.555,183.755 176.420,183.700 176.200 C 183.645 175.980,183.825 175.800,184.100 175.800 C 184.387 175.800,184.639 175.204,184.692 174.400 C 184.773 173.161,184.739 173.106,184.395 173.926 C 184.182 174.435,183.838 174.747,183.631 174.619 C 183.424 174.491,182.972 174.790,182.627 175.282 C 181.872 176.360,181.816 176.940,182.500 176.594 C 182.775 176.455,182.651 176.624,182.224 176.970 C 180.973 177.984,180.112 177.793,181.038 176.707 C 181.536 176.123,181.575 175.987,181.151 176.313 C 180.591 176.745,180.461 176.635,180.197 175.506 C 179.319 171.747,179.522 170.000,180.836 170.000 C 182.758 170.000,183.221 168.327,182.220 165.000 C 181.400 162.275,182.585 160.643,185.675 160.242 C 187.467 160.009,188.397 159.607,188.415 159.057 C 188.435 158.458,188.750 155.857,189.076 153.600 C 189.219 152.610,189.301 151.591,189.258 151.335 C 189.211 151.053,189.503 150.954,189.999 151.084 C 190.642 151.252,190.719 151.416,190.359 151.849 C 190.015 152.264,190.019 152.400,190.375 152.400 C 190.635 152.400,190.761 152.540,190.655 152.711 C 190.549 152.882,190.824 153.467,191.266 154.011 C 191.708 154.555,191.953 154.775,191.811 154.500 C 191.669 154.225,191.743 154.000,191.976 154.000 C 192.209 154.000,192.386 153.685,192.368 153.300 C 192.350 152.882,192.256 152.801,192.135 153.100 C 192.024 153.375,191.738 153.600,191.500 153.600 C 191.262 153.600,191.185 153.482,191.330 153.337 C 191.475 153.192,191.406 152.848,191.177 152.572 C 190.933 152.279,190.913 151.978,191.127 151.845 C 191.708 151.486,192.928 153.090,192.642 153.836 C 192.501 154.202,192.591 154.749,192.842 155.051 C 193.124 155.390,193.143 155.600,192.892 155.600 C 192.668 155.600,192.378 155.879,192.247 156.221 C 192.111 156.577,192.178 156.737,192.405 156.597 C 192.934 156.270,192.910 156.930,192.373 157.467 C 192.071 157.769,192.118 157.960,192.535 158.120 C 193.006 158.301,193.165 157.811,193.329 155.673 C 193.623 151.851,193.456 141.419,193.100 141.300 C 192.142 140.981,191.267 141.300,191.074 142.040 C 190.953 142.502,190.674 142.769,190.455 142.634 C 190.235 142.498,189.964 142.534,189.853 142.713 C 189.742 142.893,190.078 143.040,190.600 143.040 C 191.122 143.040,191.459 142.896,191.351 142.720 C 191.242 142.544,191.343 142.400,191.576 142.400 C 191.809 142.400,192.003 142.625,192.006 142.900 C 192.010 143.233,192.142 143.200,192.400 142.800 C 192.694 142.344,192.789 142.329,192.794 142.737 C 192.797 143.033,192.442 143.369,192.004 143.483 C 191.567 143.597,191.308 143.850,191.428 144.045 C 191.695 144.477,191.108 144.515,190.572 144.100 C 190.358 143.935,190.494 144.093,190.875 144.450 C 191.255 144.808,191.454 145.213,191.316 145.350 C 191.179 145.488,191.277 145.600,191.533 145.600 C 191.832 145.600,192.000 146.390,192.000 147.800 C 192.000 149.871,191.246 151.038,191.160 149.100 C 191.121 148.224,191.113 148.226,190.849 149.170 C 190.700 149.704,190.353 150.186,190.079 150.240 C 189.805 150.295,189.765 150.249,189.990 150.137 C 190.502 149.883,190.532 148.800,190.027 148.800 C 189.332 148.800,189.087 147.029,189.023 141.520 C 188.987 138.498,188.839 135.906,188.693 135.759 C 188.310 135.377,190.312 133.899,190.803 134.202 C 191.028 134.341,191.108 134.626,190.979 134.834 C 190.850 135.043,190.532 135.086,190.272 134.930 C 189.999 134.766,190.030 134.930,190.345 135.319 C 190.938 136.049,191.780 135.842,191.348 135.072 C 191.154 134.727,191.223 134.730,191.604 135.083 C 192.033 135.480,192.025 135.694,191.563 136.283 C 191.050 136.937,191.062 136.951,191.700 136.451 C 192.305 135.977,192.400 135.990,192.400 136.551 C 192.400 136.908,192.586 137.200,192.814 137.200 C 193.100 137.200,193.100 136.960,192.814 136.426 C 192.292 135.450,192.287 135.083,192.800 135.400 C 193.020 135.536,193.200 135.478,193.200 135.270 C 193.200 135.063,192.827 134.796,192.370 134.676 C 191.914 134.557,191.439 134.073,191.316 133.600 C 191.132 132.898,190.900 132.790,190.046 133.012 C 189.471 133.161,188.780 133.319,188.512 133.363 C 188.243 133.407,187.898 133.569,187.745 133.722 C 186.394 135.073,184.445 133.848,183.413 131.000 C 183.014 129.900,182.556 128.820,182.395 128.600 C 182.234 128.380,182.154 127.882,182.217 127.494 C 182.284 127.078,181.791 126.376,181.016 125.785 C 179.869 124.910,179.667 124.476,179.429 122.373 C 179.192 120.277,179.023 119.913,178.135 119.575 C 177.371 119.285,177.219 119.059,177.534 118.680 C 177.825 118.329,177.826 117.992,177.539 117.587 C 177.191 117.094,177.158 117.105,177.335 117.661 C 177.477 118.109,177.336 118.290,176.894 118.226 C 176.536 118.173,176.175 117.876,176.091 117.565 C 175.972 117.123,176.032 117.131,176.363 117.600 C 176.636 117.985,176.790 118.026,176.794 117.714 C 176.799 117.301,175.196 116.132,174.900 116.332 C 173.694 117.148,169.200 115.736,169.200 114.542 C 169.200 114.342,167.985 113.664,166.500 113.036 C 163.173 111.629,162.504 110.932,162.654 109.028 C 162.717 108.227,162.626 107.661,162.451 107.769 C 162.276 107.876,162.133 107.705,162.133 107.387 C 162.133 107.021,162.440 106.862,162.967 106.952 C 163.425 107.032,164.160 106.966,164.600 106.806 C 165.235 106.575,165.091 106.478,163.900 106.338 C 163.075 106.240,162.217 106.343,161.995 106.565 M15.660 111.442 C 14.805 112.408,15.450 112.571,16.449 111.640 C 17.062 111.069,17.167 110.805,16.775 110.815 C 16.459 110.824,15.957 111.105,15.660 111.442 M176.400 111.600 C 176.730 111.813,176.843 111.991,176.651 111.994 C 176.459 111.997,176.524 112.268,176.796 112.596 C 177.068 112.923,177.451 113.092,177.646 112.972 C 177.842 112.851,178.181 113.224,178.401 113.802 C 178.912 115.146,178.903 115.311,178.338 114.962 C 178.052 114.785,177.985 114.852,178.162 115.138 C 178.736 116.067,179.301 115.603,179.060 114.400 C 178.917 113.686,178.987 113.200,179.234 113.200 C 179.461 113.200,179.558 113.344,179.450 113.519 C 179.342 113.695,179.418 114.100,179.620 114.419 C 179.914 114.884,179.989 114.837,179.994 114.189 C 180.001 113.203,178.935 111.598,178.277 111.606 C 177.957 111.610,177.978 111.725,178.343 111.956 C 178.641 112.145,178.723 112.401,178.524 112.524 C 177.980 112.860,177.057 112.155,177.372 111.645 C 177.544 111.367,177.300 111.202,176.724 111.206 C 175.981 111.211,175.917 111.288,176.400 111.600 M11.173 115.424 C 11.158 115.631,11.069 116.430,10.975 117.200 C 10.868 118.070,10.933 118.398,11.147 118.066 C 11.335 117.772,11.604 117.547,11.745 117.566 C 11.885 117.585,12.027 117.465,12.060 117.300 C 12.093 117.135,12.408 116.762,12.760 116.470 C 13.125 116.169,13.159 116.066,12.839 116.231 C 12.497 116.409,12.068 116.235,11.739 115.785 C 11.443 115.379,11.188 115.216,11.173 115.424 M12.900 115.476 C 13.285 115.576,13.600 115.809,13.600 115.992 C 13.600 116.175,13.958 116.231,14.396 116.117 C 15.585 115.806,14.939 115.193,13.476 115.246 C 12.774 115.272,12.515 115.375,12.900 115.476 M179.389 115.715 C 178.906 116.284,179.097 117.711,179.613 117.392 C 179.807 117.272,179.864 116.910,179.740 116.587 C 179.616 116.264,179.714 116.000,179.957 116.000 C 180.201 116.000,180.400 115.820,180.400 115.600 C 180.400 115.062,179.894 115.120,179.389 115.715 M187.660 124.380 C 187.748 124.644,187.951 124.846,188.110 124.830 C 188.588 124.781,188.496 124.232,187.980 124.060 C 187.716 123.972,187.572 124.116,187.660 124.380 M189.858 134.026 C 188.812 134.849,187.994 134.783,188.006 133.876 C 188.010 133.590,188.167 133.639,188.400 134.000 C 188.626 134.350,188.790 134.404,188.794 134.129 C 188.799 133.715,189.442 133.392,190.554 133.246 C 190.749 133.221,190.435 133.572,189.858 134.026 M191.675 133.625 C 191.771 133.914,192.086 134.229,192.375 134.325 C 192.675 134.425,192.825 134.275,192.725 133.975 C 192.629 133.686,192.314 133.371,192.025 133.275 C 191.725 133.175,191.575 133.325,191.675 133.625 M192.100 138.432 C 192.485 138.656,192.800 139.021,192.800 139.243 C 192.800 139.466,192.576 139.507,192.300 139.335 C 191.451 138.804,190.625 138.785,191.148 139.308 C 191.827 139.987,191.692 140.574,190.991 139.992 C 190.482 139.570,190.423 139.594,190.634 140.143 C 190.978 141.042,192.280 140.971,192.786 140.026 C 193.467 138.754,193.285 137.999,192.300 138.012 C 191.496 138.023,191.475 138.068,192.100 138.432 M192.266 159.109 C 192.758 159.422,191.844 161.109,191.298 160.895 C 191.151 160.838,191.007 161.243,190.977 161.795 C 190.948 162.348,191.076 162.800,191.262 162.800 C 191.448 162.800,191.600 162.513,191.600 162.163 C 191.600 161.812,191.960 161.431,192.400 161.316 C 192.840 161.201,193.200 160.937,193.200 160.730 C 193.200 160.522,193.020 160.464,192.800 160.600 C 192.580 160.736,192.400 160.667,192.400 160.447 C 192.400 160.227,192.583 159.934,192.807 159.796 C 193.303 159.489,192.933 158.798,192.276 158.806 C 191.917 158.811,191.915 158.885,192.266 159.109 M2.652 170.316 C 2.362 170.786,3.502 171.831,3.886 171.447 C 4.032 171.301,3.869 170.898,3.524 170.552 C 3.149 170.178,2.796 170.082,2.652 170.316 M172.176 184.267 C 171.555 184.721,171.543 184.800,172.090 184.800 C 172.444 184.800,172.824 184.575,172.935 184.300 C 173.096 183.900,173.143 183.900,173.168 184.300 C 173.208 184.919,175.600 184.975,175.600 184.357 C 175.600 184.080,175.212 184.011,174.566 184.173 C 173.998 184.315,173.630 184.275,173.749 184.083 C 174.083 183.543,172.992 183.670,172.176 184.267 M22.000 188.782 C 22.330 189.005,22.945 189.191,23.367 189.194 C 24.390 189.202,24.071 188.973,22.600 188.644 C 21.724 188.448,21.562 188.485,22.000 188.782 M29.600 189.902 C 29.600 190.099,30.090 190.697,30.688 191.230 C 31.486 191.942,31.619 191.987,31.188 191.402 C 30.250 190.128,29.600 189.514,29.600 189.902 M28.800 190.682 C 28.800 191.290,30.032 192.800,30.523 192.794 C 30.849 192.790,30.831 192.681,30.466 192.449 C 30.172 192.263,29.953 191.989,29.980 191.841 C 30.007 191.693,29.752 191.295,29.414 190.957 C 29.076 190.619,28.800 190.496,28.800 190.682 M37.600 193.269 C 37.600 193.451,38.140 193.600,38.800 193.600 C 39.460 193.600,40.000 193.530,40.000 193.445 C 40.000 193.360,39.460 193.212,38.800 193.115 C 38.140 193.018,37.600 193.087,37.600 193.269 M58.730 193.500 C 68.482 193.560,84.322 193.560,93.930 193.500 C 103.539 193.440,95.560 193.391,76.200 193.391 C 56.840 193.391,48.979 193.440,58.730 193.500 M152.900 193.487 C 153.505 193.578,154.495 193.578,155.100 193.487 C 155.705 193.395,155.210 193.320,154.000 193.320 C 152.790 193.320,152.295 193.395,152.900 193.487 " stroke="none" fill="#36c3ee" fill-rule="evenodd"></path><path id="path1" d="M241.400 206.683 C 238.248 206.835,237.200 207.574,237.200 209.644 C 237.200 210.793,237.184 210.800,234.700 210.823 C 228.833 210.877,228.400 211.056,228.400 213.424 L 228.400 215.200 226.363 215.200 C 224.706 215.200,224.288 215.340,224.129 215.951 C 224.021 216.364,223.495 216.902,222.960 217.145 C 222.426 217.389,221.789 218.026,221.545 218.560 C 221.302 219.095,220.764 219.621,220.351 219.729 C 219.938 219.837,219.599 220.167,219.597 220.463 C 219.596 220.758,219.056 221.307,218.397 221.681 C 217.680 222.090,217.200 222.691,217.200 223.181 C 217.200 223.718,216.939 224.000,216.443 224.000 C 215.529 224.000,215.200 224.749,215.200 226.833 C 215.200 228.340,215.149 228.400,213.876 228.400 C 211.335 228.400,210.878 229.513,210.819 235.857 C 210.802 237.708,210.700 237.938,209.803 238.163 C 207.174 238.823,206.250 244.954,206.754 258.400 C 206.921 262.854,208.068 265.801,209.803 266.237 C 210.746 266.473,210.801 266.641,210.823 269.343 C 210.852 272.962,211.309 275.430,211.925 275.300 C 212.186 275.245,212.400 275.380,212.400 275.600 C 212.400 275.820,213.030 276.000,213.800 276.000 C 215.162 276.000,215.200 276.043,215.200 277.567 C 215.200 279.651,215.529 280.400,216.443 280.400 C 216.939 280.400,217.200 280.682,217.200 281.219 C 217.200 281.705,217.678 282.312,218.378 282.713 C 219.026 283.085,219.639 283.707,219.741 284.095 C 219.886 284.652,220.353 284.800,221.963 284.800 L 224.000 284.800 224.000 286.586 C 224.000 288.634,224.644 289.200,226.974 289.200 C 228.343 289.200,228.400 289.258,228.400 290.629 C 228.400 292.788,229.009 293.123,233.511 293.433 C 237.506 293.708,237.523 293.713,237.747 294.836 C 238.301 297.603,233.047 297.400,303.982 297.400 C 374.020 297.400,369.960 297.545,370.798 295.005 L 371.231 293.693 375.441 293.407 C 380.013 293.095,380.400 292.843,380.400 290.174 C 380.400 289.324,380.582 289.200,381.826 289.200 C 384.156 289.200,384.800 288.634,384.800 286.586 L 384.800 284.800 386.539 284.800 C 387.603 284.800,388.609 284.528,389.131 284.100 C 389.601 283.715,390.438 283.077,390.992 282.681 C 391.547 282.286,392.000 281.611,392.000 281.181 C 392.000 280.752,392.248 280.400,392.550 280.400 C 393.098 280.400,393.600 278.752,393.600 276.950 C 393.600 276.113,393.785 276.000,395.151 276.000 C 397.304 276.000,397.553 275.507,397.685 270.978 L 397.800 267.000 398.900 266.873 L 400.000 266.747 400.000 252.373 L 400.000 238.000 399.052 238.000 C 397.932 238.000,397.611 236.711,397.604 232.180 C 397.599 228.926,397.253 228.400,395.120 228.400 C 393.673 228.400,393.600 228.338,393.595 227.100 C 393.586 225.050,393.175 224.000,392.380 224.000 C 391.981 224.000,391.541 223.645,391.403 223.210 C 391.265 222.776,390.758 222.094,390.276 221.696 C 389.162 220.773,388.400 219.437,388.400 218.405 C 388.400 217.201,386.901 215.887,385.773 216.103 C 385.251 216.203,384.908 216.149,385.010 215.984 C 385.295 215.523,384.122 215.200,382.167 215.200 L 380.400 215.200 380.394 213.700 C 380.384 211.217,380.100 211.048,375.633 210.869 L 371.619 210.708 371.366 209.357 C 371.226 208.615,370.954 208.105,370.761 208.224 C 370.567 208.344,370.510 208.179,370.633 207.859 C 370.844 207.309,370.381 207.117,368.000 206.771 C 366.989 206.625,244.390 206.539,241.400 206.683 M219.525 282.208 C 219.226 282.507,218.000 281.281,218.000 280.683 C 218.000 280.429,218.395 280.617,218.878 281.100 C 219.361 281.583,219.652 282.081,219.525 282.208 M209.525 311.192 C 208.934 311.371,208.358 311.424,208.244 311.311 C 206.540 309.607,205.537 361.657,207.152 367.952 C 207.646 369.874,207.870 370.174,209.248 370.752 C 210.607 371.323,210.796 371.567,210.829 372.800 C 210.850 373.570,210.932 374.650,211.012 375.200 C 211.091 375.750,211.191 376.830,211.234 377.600 C 211.336 379.448,211.737 379.885,213.623 380.204 C 215.167 380.465,215.200 380.505,215.200 382.155 C 215.200 384.281,215.726 384.800,217.880 384.800 L 219.600 384.800 219.600 386.520 C 219.600 388.677,220.119 389.200,222.258 389.200 L 223.956 389.200 224.078 391.100 L 224.200 393.000 226.200 393.375 C 228.304 393.770,228.861 394.176,228.519 395.067 C 228.046 396.300,229.445 397.465,231.466 397.522 C 239.517 397.746,241.600 398.059,241.600 399.048 L 241.600 400.000 252.200 400.000 L 262.800 400.000 262.800 399.039 C 262.800 398.095,262.879 398.074,267.500 397.811 C 275.853 397.336,275.389 397.478,275.740 395.283 C 275.979 393.792,276.045 393.738,278.093 393.374 L 280.200 393.000 280.322 391.100 L 280.444 389.200 282.142 389.200 C 284.281 389.200,284.800 388.677,284.800 386.520 L 284.800 384.800 286.586 384.800 C 288.634 384.800,289.200 384.156,289.200 381.826 C 289.200 380.582,289.324 380.400,290.174 380.400 C 292.840 380.400,293.095 380.010,293.405 375.468 L 293.690 371.286 295.183 370.699 C 296.468 370.195,296.741 369.857,297.138 368.279 C 297.719 365.972,297.786 343.600,297.213 343.600 C 296.999 343.600,296.923 343.344,297.044 343.031 C 297.303 342.355,296.059 341.600,294.687 341.600 C 293.746 341.600,293.714 341.496,293.476 337.588 C 293.182 332.760,293.203 332.800,290.976 332.800 L 289.200 332.800 289.200 331.220 C 289.200 327.054,287.590 323.858,285.832 324.532 C 285.098 324.814,284.566 324.142,284.211 322.486 C 283.821 320.660,282.549 319.980,279.026 319.713 L 276.000 319.485 276.000 317.756 C 276.000 315.493,275.406 315.200,270.826 315.200 L 267.200 315.200 267.200 313.649 C 267.200 310.851,268.870 311.007,238.239 310.933 C 223.037 310.896,210.116 311.013,209.525 311.192 " stroke="none" fill="#eab22f" fill-rule="evenodd"></path><path id="path2" d="M132.800 1.000 C 132.800 1.622,133.027 2.000,133.400 2.000 C 133.773 2.000,134.000 1.622,134.000 1.000 C 134.000 0.378,133.773 0.000,133.400 0.000 C 133.027 0.000,132.800 0.378,132.800 1.000 M237.200 0.966 C 237.200 1.988,237.117 2.006,230.000 2.502 C 228.630 2.598,228.597 2.640,228.478 4.500 L 228.356 6.400 226.811 6.400 C 224.661 6.400,224.000 6.735,224.000 7.825 C 224.000 9.050,222.316 10.711,220.909 10.873 C 220.074 10.969,219.766 11.247,219.662 12.000 C 219.586 12.550,219.181 13.322,218.762 13.716 C 218.343 14.109,218.000 14.593,218.000 14.790 C 218.000 14.988,217.415 15.206,216.700 15.275 C 215.432 15.397,215.397 15.452,215.279 17.500 L 215.158 19.600 213.679 19.606 C 211.195 19.616,211.039 19.891,210.866 24.557 L 210.711 28.756 209.542 29.013 C 206.307 29.723,206.339 28.982,206.480 99.400 C 206.613 166.506,206.409 161.853,209.252 162.558 L 210.697 162.916 210.892 166.649 C 211.117 170.948,211.478 171.600,213.628 171.600 L 215.158 171.600 215.279 173.700 L 215.400 175.800 217.480 175.920 L 219.560 176.040 219.680 178.120 L 219.800 180.200 221.880 180.320 L 223.960 180.440 224.080 182.520 L 224.200 184.600 226.300 184.721 L 228.400 184.842 228.406 186.321 C 228.416 188.694,228.677 188.847,233.145 189.093 L 237.200 189.316 237.200 190.458 C 237.200 193.291,241.767 193.969,257.504 193.469 C 266.140 193.195,266.618 193.063,266.991 190.851 L 267.255 189.291 271.251 189.130 C 275.692 188.952,275.984 188.779,275.994 186.321 L 276.000 184.842 278.100 184.721 L 280.200 184.600 280.320 182.520 L 280.440 180.440 282.520 180.320 L 284.600 180.200 284.721 178.100 L 284.842 176.000 286.778 176.000 C 288.949 176.000,289.200 175.707,289.200 173.167 L 289.200 171.600 290.976 171.600 C 293.200 171.600,293.183 171.633,293.472 166.877 L 293.713 162.930 295.344 162.565 C 297.661 162.046,297.517 166.404,297.554 95.600 C 297.591 24.872,297.750 29.302,295.152 28.688 L 293.713 28.347 293.491 24.319 C 293.246 19.873,293.094 19.616,290.700 19.606 C 289.223 19.600,289.200 19.576,289.200 18.033 C 289.200 15.949,288.871 15.200,287.957 15.200 C 287.541 15.200,287.200 15.012,287.200 14.782 C 287.200 14.552,286.707 13.877,286.103 13.282 C 285.500 12.687,284.528 11.302,283.942 10.205 C 282.839 8.137,282.603 7.919,280.600 7.122 C 279.152 6.545,278.956 6.505,277.300 6.446 C 276.031 6.401,276.000 6.356,276.000 4.587 C 276.000 2.453,276.164 2.534,271.100 2.190 C 267.320 1.934,267.200 1.896,267.200 0.963 L 267.200 0.000 252.200 0.000 L 237.200 0.000 237.200 0.966 M124.272 2.957 C 123.954 3.786,125.065 4.078,125.788 3.354 C 126.560 2.583,126.557 2.400,125.776 2.400 C 125.384 2.400,125.264 2.585,125.453 2.900 C 125.685 3.287,125.611 3.284,125.123 2.890 C 124.607 2.472,124.453 2.484,124.272 2.957 M168.940 2.994 C 168.383 3.401,168.490 3.448,169.602 3.285 C 170.707 3.123,170.886 3.199,170.676 3.745 C 170.538 4.105,170.619 4.400,170.855 4.400 C 171.092 4.400,171.184 4.664,171.060 4.987 C 170.936 5.310,170.979 5.663,171.154 5.772 C 171.330 5.880,171.452 5.211,171.425 4.285 C 171.373 2.459,170.379 1.942,168.940 2.994 M124.000 4.976 C 124.000 6.202,124.228 6.301,124.516 5.200 C 124.631 4.761,124.562 4.300,124.362 4.177 C 124.163 4.054,124.000 4.413,124.000 4.976 M177.338 7.803 C 177.083 8.351,177.038 8.800,177.238 8.800 C 177.437 8.800,177.600 8.592,177.600 8.338 C 177.600 8.071,177.927 8.172,178.375 8.577 C 178.801 8.963,179.364 9.146,179.626 8.984 C 179.971 8.771,179.920 8.587,179.443 8.320 C 179.075 8.114,178.909 7.740,179.068 7.475 C 179.225 7.214,179.015 7.270,178.602 7.600 C 177.920 8.144,177.875 8.135,178.113 7.500 C 178.517 6.421,177.859 6.678,177.338 7.803 M182.576 11.638 C 182.123 12.372,183.490 13.470,184.097 12.859 C 184.502 12.451,184.444 12.411,183.800 12.651 C 183.061 12.927,183.046 12.891,183.600 12.175 C 184.167 11.442,184.158 11.433,183.425 12.000 C 182.721 12.545,182.674 12.536,182.913 11.900 C 183.204 11.121,182.996 10.959,182.576 11.638 M107.446 20.455 C 106.747 21.453,106.558 22.996,107.183 22.611 C 107.393 22.481,107.473 22.133,107.360 21.839 C 107.146 21.283,108.229 20.647,108.794 20.996 C 108.971 21.106,109.227 20.908,109.361 20.556 C 109.520 20.143,109.854 20.011,110.303 20.182 C 110.849 20.390,110.895 20.342,110.517 19.961 C 110.155 19.596,109.897 19.588,109.487 19.927 C 109.102 20.247,108.816 20.256,108.517 19.957 C 108.218 19.658,107.902 19.805,107.446 20.455 M190.082 29.027 C 189.240 29.617,189.205 30.691,190.045 30.172 C 190.260 30.040,190.661 30.082,190.936 30.266 C 191.212 30.450,191.113 30.300,190.717 29.934 C 190.209 29.465,190.142 29.219,190.490 29.103 C 190.762 29.013,191.290 29.312,191.664 29.769 C 192.224 30.455,192.436 30.508,192.872 30.076 C 193.308 29.644,193.267 29.603,192.634 29.844 C 192.059 30.064,191.950 30.004,192.196 29.606 C 192.414 29.254,192.369 29.172,192.062 29.362 C 191.788 29.531,191.600 29.393,191.600 29.024 C 191.600 28.235,191.212 28.236,190.082 29.027 M104.923 29.678 C 104.441 29.911,103.938 30.384,103.806 30.728 C 103.588 31.296,103.634 31.296,104.283 30.734 C 104.677 30.392,105.360 29.912,105.800 29.668 C 106.816 29.105,106.093 29.113,104.923 29.678 M105.071 31.126 C 103.939 32.307,103.742 32.800,104.400 32.800 C 104.620 32.800,104.800 32.530,104.800 32.200 C 104.800 31.870,104.974 31.600,105.187 31.600 C 105.401 31.600,105.457 31.915,105.313 32.300 C 105.083 32.913,105.134 32.932,105.725 32.451 C 106.443 31.867,106.674 30.983,106.000 31.400 C 105.780 31.536,105.600 31.472,105.600 31.257 C 105.600 31.042,105.825 30.786,106.100 30.688 C 106.375 30.590,106.497 30.397,106.371 30.259 C 106.245 30.121,105.660 30.511,105.071 31.126 M191.967 30.867 C 191.741 31.769,191.814 32.715,192.095 32.541 C 192.293 32.419,192.358 32.067,192.240 31.760 C 191.995 31.121,192.627 30.985,192.937 31.610 C 193.049 31.836,193.097 31.802,193.045 31.535 C 192.960 31.101,192.049 30.536,191.967 30.867 M193.355 45.000 C 193.356 47.860,193.420 48.978,193.497 47.483 C 193.574 45.989,193.574 43.649,193.496 42.283 C 193.418 40.918,193.355 42.140,193.355 45.000 M103.600 54.548 C 103.600 55.610,104.323 56.527,105.731 57.253 C 106.338 57.565,106.202 57.303,105.282 56.385 C 104.557 55.662,104.054 54.835,104.165 54.548 C 104.275 54.261,104.193 53.919,103.983 53.789 C 103.772 53.659,103.600 54.001,103.600 54.548 M104.800 54.575 C 104.800 54.851,105.160 55.402,105.600 55.800 C 106.040 56.198,106.400 56.327,106.400 56.086 C 106.400 55.844,106.201 55.524,105.957 55.374 C 105.640 55.177,105.649 55.017,105.991 54.805 C 106.310 54.608,106.192 54.439,105.634 54.293 C 105.117 54.158,104.800 54.265,104.800 54.575 M106.953 65.584 C 107.077 67.211,107.558 67.591,107.513 66.027 C 107.494 65.336,107.339 64.686,107.170 64.581 C 107.000 64.477,106.903 64.928,106.953 65.584 M133.390 85.630 C 133.139 86.423,133.359 86.984,133.933 87.014 C 134.080 87.022,134.609 87.255,135.108 87.533 C 135.608 87.810,136.223 87.909,136.476 87.753 C 136.779 87.566,136.851 87.690,136.688 88.114 C 136.514 88.570,136.613 88.693,137.027 88.534 C 137.456 88.370,137.108 87.839,135.729 86.555 C 133.528 84.505,133.723 84.582,133.390 85.630 M192.200 85.200 C 192.064 85.420,192.179 85.600,192.456 85.600 C 192.848 85.600,192.853 85.707,192.480 86.080 C 191.866 86.694,191.859 87.314,192.469 87.110 C 193.044 86.919,193.382 84.800,192.837 84.800 C 192.623 84.800,192.336 84.980,192.200 85.200 M189.661 88.528 L 188.600 89.257 190.000 88.968 C 190.770 88.809,191.588 88.676,191.818 88.673 C 192.047 88.670,192.453 88.434,192.718 88.149 C 193.482 87.332,190.945 87.646,189.661 88.528 M144.705 89.083 C 145.202 89.179,145.922 89.175,146.305 89.075 C 146.687 88.975,146.280 88.896,145.400 88.901 C 144.520 88.905,144.207 88.987,144.705 89.083 M181.091 89.089 C 181.801 89.177,183.061 89.179,183.891 89.092 C 184.721 89.005,184.140 88.933,182.600 88.931 C 181.060 88.929,180.381 89.000,181.091 89.089 M44.905 102.287 C 45.514 102.379,46.414 102.377,46.905 102.282 C 47.397 102.187,46.900 102.111,45.800 102.114 C 44.700 102.117,44.297 102.195,44.905 102.287 M149.300 102.276 C 149.685 102.376,150.315 102.376,150.700 102.276 C 151.085 102.175,150.770 102.093,150.000 102.093 C 149.230 102.093,148.915 102.175,149.300 102.276 M31.200 103.024 C 31.200 103.367,31.040 103.549,30.845 103.428 C 30.650 103.307,30.270 103.475,30.000 103.800 C 29.730 104.125,29.352 104.294,29.159 104.175 C 28.967 104.056,28.916 104.238,29.047 104.579 C 29.363 105.401,29.597 105.354,30.900 104.207 C 32.013 103.227,32.333 102.400,31.600 102.400 C 31.380 102.400,31.200 102.681,31.200 103.024 M342.907 102.810 C 342.268 103.067,341.941 103.628,341.756 104.784 L 341.498 106.400 338.449 106.447 C 333.359 106.526,333.021 106.675,332.878 108.902 L 332.756 110.800 330.741 110.800 C 329.048 110.800,328.691 110.931,328.512 111.616 C 328.394 112.065,327.794 112.693,327.178 113.012 C 326.561 113.330,325.945 113.944,325.808 114.374 C 325.626 114.949,325.059 115.225,323.680 115.412 C 319.982 115.914,320.117 115.735,319.741 120.633 L 319.482 124.000 317.821 124.000 C 315.414 124.000,315.200 124.398,315.200 128.880 L 315.200 132.800 313.649 132.800 C 310.844 132.800,311.000 131.055,311.000 162.361 C 311.000 191.084,311.058 192.462,312.297 193.040 C 313.304 193.511,360.544 193.723,365.765 193.280 C 370.505 192.878,371.200 192.506,371.200 190.377 L 371.200 189.307 375.220 189.113 C 379.725 188.896,379.973 188.766,380.284 186.448 C 380.503 184.816,380.522 184.800,382.173 184.800 C 384.281 184.800,384.800 184.270,384.800 182.120 L 384.800 180.400 386.757 180.400 C 388.951 180.400,389.200 180.112,389.200 177.567 L 389.200 176.000 391.153 176.000 C 393.292 176.000,393.583 175.633,393.595 172.923 C 393.600 171.713,393.687 171.640,395.259 171.523 C 397.459 171.360,397.524 171.175,397.825 164.300 C 398.083 158.413,398.085 158.400,399.042 158.400 L 400.000 158.400 400.000 145.800 L 400.000 133.200 399.052 133.200 C 397.930 133.200,397.611 131.911,397.604 127.343 C 397.600 124.197,397.444 124.000,394.967 124.000 C 393.692 124.000,393.600 123.912,393.595 122.700 C 393.583 119.966,393.295 119.600,391.153 119.600 L 389.200 119.600 389.200 118.033 C 389.200 115.488,388.951 115.200,386.757 115.200 L 384.800 115.200 384.800 113.480 C 384.800 111.319,384.281 110.800,382.120 110.800 C 380.400 110.800,380.400 110.800,380.394 109.300 C 380.384 106.942,380.140 106.799,375.661 106.527 C 371.680 106.284,371.579 106.254,371.359 105.239 C 370.955 103.381,370.834 103.193,369.784 102.794 C 368.482 102.299,344.142 102.313,342.907 102.810 M19.828 107.472 C 19.722 107.748,19.788 108.069,19.976 108.185 C 20.163 108.301,20.418 108.129,20.543 107.804 C 20.683 107.439,21.029 107.313,21.450 107.475 C 21.893 107.645,22.036 107.581,21.858 107.293 C 21.496 106.708,20.073 106.833,19.828 107.472 M177.372 111.645 C 177.221 111.889,177.316 112.224,177.583 112.389 C 177.850 112.554,178.098 112.849,178.134 113.045 C 178.170 113.240,178.332 113.356,178.493 113.302 C 178.654 113.249,178.899 113.654,179.036 114.202 C 179.174 114.751,179.454 115.200,179.657 115.200 C 179.876 115.200,179.866 114.897,179.633 114.461 C 179.370 113.969,179.374 113.586,179.647 113.313 C 179.926 113.034,179.718 112.941,178.993 113.021 C 178.408 113.085,178.050 113.016,178.198 112.869 C 178.346 112.721,178.632 112.600,178.833 112.600 C 179.035 112.600,179.188 112.420,179.174 112.200 C 179.159 111.980,178.871 111.857,178.534 111.927 C 178.181 112.000,178.032 111.872,178.183 111.627 C 178.329 111.392,178.267 111.200,178.047 111.200 C 177.827 111.200,177.524 111.400,177.372 111.645 M180.400 115.951 C 180.400 116.198,180.537 116.400,180.705 116.400 C 180.873 116.400,181.188 116.805,181.405 117.300 C 181.622 117.795,182.205 118.378,182.700 118.595 C 183.195 118.812,183.600 119.217,183.600 119.495 C 183.600 120.713,184.203 119.856,184.230 118.600 C 184.259 117.264,184.228 117.232,183.518 117.875 C 182.782 118.540,180.988 117.679,181.676 116.990 C 181.802 116.865,182.188 117.045,182.533 117.390 C 183.105 117.962,183.199 117.950,183.567 117.262 C 184.047 116.365,183.766 115.961,182.895 116.296 C 182.482 116.454,182.367 116.377,182.558 116.068 C 182.717 115.811,182.667 115.600,182.447 115.600 C 182.227 115.600,181.931 115.789,181.788 116.019 C 181.611 116.306,181.350 116.291,180.964 115.970 C 180.559 115.634,180.400 115.628,180.400 115.951 M6.142 123.779 C 5.890 124.052,5.140 124.244,4.476 124.205 C 3.589 124.152,3.165 124.359,2.880 124.985 C 2.563 125.681,2.626 125.847,3.227 125.892 C 3.636 125.923,4.072 125.604,4.208 125.174 C 4.343 124.748,4.632 124.400,4.851 124.400 C 5.069 124.400,5.146 124.563,5.023 124.763 C 4.900 124.962,5.147 125.034,5.572 124.923 C 5.997 124.812,6.451 124.443,6.582 124.103 C 6.893 123.293,6.712 123.159,6.142 123.779 M189.543 133.156 C 189.927 133.400,189.954 133.581,189.636 133.778 C 189.389 133.930,189.291 134.223,189.417 134.428 C 189.739 134.948,190.800 134.894,190.800 134.357 C 190.800 134.109,190.492 134.022,190.100 134.158 C 189.447 134.386,189.448 134.365,190.112 133.848 C 190.751 133.351,190.758 133.270,190.179 133.047 C 189.257 132.693,188.907 132.753,189.543 133.156 M191.246 133.220 C 191.221 133.561,191.416 134.056,191.680 134.320 C 192.256 134.896,193.200 134.954,193.200 134.413 C 193.200 134.199,192.900 134.140,192.534 134.281 C 192.051 134.466,191.958 134.391,192.196 134.006 C 192.406 133.667,192.368 133.572,192.092 133.743 C 191.855 133.890,191.578 133.693,191.477 133.305 C 191.337 132.769,191.282 132.749,191.246 133.220 M191.333 135.347 C 191.333 135.706,191.494 136.000,191.690 136.000 C 191.887 136.000,191.931 136.188,191.789 136.418 C 191.512 136.866,192.271 138.000,192.849 138.000 C 193.042 138.000,193.200 137.820,193.200 137.600 C 193.200 137.380,192.936 137.200,192.613 137.200 C 192.289 137.200,192.113 136.970,192.221 136.689 C 192.329 136.407,192.174 135.843,191.875 135.436 C 191.410 134.799,191.333 134.787,191.333 135.347 M193.324 147.800 C 193.326 149.120,193.401 149.612,193.490 148.893 C 193.579 148.174,193.577 147.094,193.486 146.493 C 193.395 145.892,193.322 146.480,193.324 147.800 M192.343 158.756 C 192.703 158.985,192.743 159.188,192.460 159.363 C 192.226 159.507,192.136 159.889,192.259 160.211 C 192.587 161.065,193.100 160.575,193.100 159.407 C 193.100 158.742,192.880 158.402,192.450 158.406 C 191.933 158.411,191.911 158.482,192.343 158.756 M191.738 161.817 C 191.608 162.157,191.613 162.547,191.751 162.684 C 191.888 162.821,192.000 162.713,192.000 162.443 C 192.000 162.173,192.208 162.081,192.462 162.238 C 192.735 162.407,192.816 162.349,192.659 162.096 C 192.514 161.861,192.621 161.577,192.898 161.466 C 193.196 161.345,193.111 161.250,192.687 161.232 C 192.296 161.214,191.868 161.478,191.738 161.817 M190.182 161.970 C 190.305 162.169,190.179 162.423,189.902 162.534 C 189.590 162.660,189.656 162.749,190.076 162.768 C 190.987 162.811,191.350 162.143,190.577 161.846 C 190.237 161.716,190.059 161.772,190.182 161.970 M183.200 177.554 C 183.200 177.786,182.899 177.859,182.531 177.718 C 182.025 177.524,181.923 177.624,182.116 178.126 C 182.300 178.605,182.103 178.859,181.415 179.032 C 180.889 179.164,180.352 179.549,180.222 179.887 C 180.012 180.434,180.090 180.433,180.939 179.877 C 181.650 179.411,182.008 179.368,182.346 179.706 C 182.685 180.045,182.800 180.038,182.800 179.680 C 182.800 179.416,182.935 179.221,183.100 179.247 C 183.903 179.374,184.049 179.139,183.549 178.525 C 183.066 177.931,183.088 177.883,183.733 178.125 C 184.214 178.306,184.412 178.237,184.308 177.925 C 184.103 177.308,183.200 177.006,183.200 177.554 M20.455 188.133 C 20.127 188.529,20.140 188.672,20.506 188.686 C 20.778 188.696,21.360 188.829,21.800 188.980 C 22.428 189.196,22.404 189.137,21.687 188.707 C 21.186 188.405,20.901 188.033,21.054 187.879 C 21.208 187.726,21.235 187.600,21.116 187.600 C 20.996 187.600,20.699 187.840,20.455 188.133 M28.400 189.576 C 28.400 189.783,28.592 190.072,28.827 190.217 C 29.062 190.362,29.149 190.756,29.020 191.091 C 28.640 192.082,29.538 192.861,30.480 192.357 C 31.270 191.934,31.270 191.926,30.438 191.040 C 29.494 190.035,29.382 189.600,30.067 189.600 C 30.323 189.600,30.421 189.712,30.284 189.850 C 30.146 189.987,30.426 190.416,30.904 190.804 C 31.654 191.411,31.699 191.599,31.230 192.164 C 30.643 192.871,30.876 193.448,31.573 193.016 C 32.289 192.574,32.052 191.297,31.054 190.221 C 30.139 189.233,28.400 188.811,28.400 189.576 M162.104 189.982 C 162.187 190.302,161.808 190.947,161.263 191.416 C 160.664 191.932,160.391 192.463,160.574 192.758 C 160.799 193.121,161.030 193.061,161.468 192.524 C 161.793 192.126,161.928 192.053,161.768 192.362 C 161.571 192.740,161.633 192.827,161.958 192.626 C 162.329 192.397,162.320 192.182,161.919 191.688 C 161.587 191.277,161.570 191.148,161.872 191.330 C 162.563 191.744,162.916 190.921,162.398 190.103 C 162.128 189.675,162.012 189.628,162.104 189.982 M30.030 191.710 C 29.981 192.188,29.432 192.096,29.260 191.580 C 29.172 191.316,29.316 191.172,29.580 191.260 C 29.844 191.348,30.047 191.551,30.030 191.710 M118.146 216.868 C 117.015 217.415,115.939 219.600,116.800 219.600 C 117.020 219.600,117.200 219.237,117.200 218.794 C 117.200 218.314,117.726 217.668,118.500 217.196 C 119.857 216.368,119.624 216.152,118.146 216.868 M221.600 217.200 C 221.160 217.640,220.812 218.225,220.827 218.500 C 220.842 218.775,221.041 218.614,221.269 218.142 C 221.498 217.671,222.071 217.098,222.542 216.869 C 223.014 216.641,223.175 216.442,222.900 216.427 C 222.625 216.412,222.040 216.760,221.600 217.200 M113.454 221.629 C 112.327 222.516,112.026 224.000,112.973 224.000 C 113.288 224.000,113.655 223.657,113.788 223.237 C 113.921 222.817,114.294 222.373,114.615 222.250 C 115.238 222.011,115.437 220.800,114.854 220.800 C 114.664 220.800,114.034 221.173,113.454 221.629 M218.146 221.268 C 217.015 221.815,215.939 224.000,216.800 224.000 C 217.020 224.000,217.200 223.637,217.200 223.194 C 217.200 222.714,217.726 222.068,218.500 221.596 C 219.857 220.768,219.624 220.552,218.146 221.268 M389.727 221.247 C 390.127 221.480,390.802 222.239,391.226 222.935 C 391.898 224.037,391.997 224.088,391.999 223.329 C 392.000 222.464,390.301 220.789,389.446 220.812 C 389.201 220.819,389.327 221.015,389.727 221.247 M208.489 238.223 C 208.000 238.565,207.600 239.050,207.600 239.299 C 207.600 239.549,207.825 239.455,208.100 239.092 C 208.375 238.728,209.050 238.255,209.600 238.041 C 210.150 237.826,210.325 237.639,209.989 237.625 C 209.653 237.611,208.978 237.880,208.489 238.223 M105.095 238.277 C 104.348 238.471,102.981 240.714,103.371 241.104 C 103.497 241.230,103.645 241.256,103.700 241.162 C 103.755 241.068,104.420 240.318,105.178 239.496 C 106.530 238.030,106.521 237.905,105.095 238.277 M2.093 267.200 C 2.093 267.970,2.175 268.285,2.276 267.900 C 2.376 267.515,2.376 266.885,2.276 266.500 C 2.175 266.115,2.093 266.430,2.093 267.200 M216.400 280.581 C 216.400 281.325,217.460 282.790,218.263 283.156 C 219.800 283.856,219.924 283.672,218.500 282.804 C 217.726 282.332,217.200 281.686,217.200 281.206 C 217.200 280.763,217.020 280.400,216.800 280.400 C 216.580 280.400,216.400 280.482,216.400 280.581 M218.000 280.683 C 218.000 281.281,219.226 282.507,219.525 282.208 C 219.652 282.081,219.361 281.583,218.878 281.100 C 218.395 280.617,218.000 280.429,218.000 280.683 M79.646 281.871 C 79.621 282.351,79.317 283.026,78.971 283.371 C 78.626 283.717,78.529 284.000,78.757 284.000 C 79.352 284.000,80.082 282.479,79.872 281.679 C 79.739 281.177,79.681 281.227,79.646 281.871 M392.032 281.569 C 392.014 281.881,391.692 282.511,391.315 282.969 C 390.669 283.753,390.683 283.751,391.562 282.942 C 392.075 282.470,392.397 281.840,392.279 281.542 C 392.104 281.103,392.057 281.108,392.032 281.569 M74.507 285.724 C 74.237 286.317,73.428 287.161,72.708 287.599 C 71.852 288.121,71.640 288.398,72.094 288.399 C 73.160 288.401,75.314 286.287,75.144 285.405 C 75.020 284.759,74.925 284.807,74.507 285.724 M30.000 293.964 C 30.000 294.638,32.557 296.530,32.737 295.990 C 32.828 295.715,32.619 295.331,32.271 295.136 C 31.924 294.941,31.373 294.516,31.048 294.191 C 30.374 293.516,30.000 293.436,30.000 293.964 M56.914 296.242 C 56.427 296.769,56.189 297.200,56.386 297.200 C 56.856 297.200,58.000 296.045,58.000 295.571 C 58.000 295.088,57.958 295.113,56.914 296.242 M104.800 367.704 C 104.800 367.981,105.160 368.432,105.600 368.707 C 106.320 369.157,106.400 369.107,106.400 368.203 C 106.400 367.467,106.187 367.200,105.600 367.200 C 105.160 367.200,104.800 367.427,104.800 367.704 " stroke="none" fill="#2eb37b" fill-rule="evenodd"></path><path id="path3" d="M33.418 206.807 C 29.959 207.143,28.800 207.906,28.800 209.844 C 28.800 210.747,28.661 210.802,26.300 210.830 C 20.917 210.893,20.248 211.149,19.833 213.300 L 19.466 215.200 17.813 215.200 C 15.720 215.200,15.200 215.733,15.200 217.880 L 15.200 219.600 13.480 219.600 C 11.323 219.600,10.800 220.119,10.800 222.258 L 10.800 223.956 8.900 224.078 L 7.000 224.200 6.634 226.259 C 6.280 228.249,6.216 228.327,4.746 228.562 C 2.907 228.856,2.400 229.666,2.400 232.312 C 2.400 238.554,1.921 241.600,0.940 241.600 L 0.000 241.600 0.000 252.200 L 0.000 262.800 0.943 262.800 C 2.006 262.800,2.395 264.859,2.405 270.559 C 2.413 274.692,2.605 275.139,4.580 275.637 C 6.212 276.048,6.275 276.124,6.632 278.130 L 7.000 280.200 8.900 280.322 L 10.800 280.444 10.800 282.142 C 10.800 284.281,11.323 284.800,13.480 284.800 L 15.200 284.800 15.200 286.586 C 15.200 288.633,15.844 289.200,18.169 289.200 C 19.520 289.200,19.603 289.280,19.849 290.815 C 20.187 292.930,20.653 293.128,26.042 293.456 C 29.626 293.673,30.739 293.884,31.362 294.465 C 31.796 294.869,32.297 295.200,32.475 295.200 C 32.654 295.200,32.800 295.647,32.800 296.192 C 32.800 297.611,33.307 297.666,45.046 297.525 C 56.514 297.387,57.379 297.206,57.852 294.838 L 58.077 293.713 62.326 293.438 C 66.966 293.138,67.184 293.015,67.194 290.700 L 67.200 289.200 68.971 289.200 C 69.946 289.200,70.981 288.973,71.271 288.695 C 71.562 288.417,72.303 287.867,72.918 287.474 C 73.533 287.080,74.224 286.345,74.454 285.841 C 74.736 285.221,75.568 284.704,77.011 284.249 C 79.377 283.503,80.400 281.507,80.400 277.638 L 80.400 276.000 82.186 276.000 C 84.510 276.000,84.800 275.431,84.800 270.879 L 84.800 267.305 86.433 267.086 C 89.218 266.713,89.134 267.704,89.126 235.400 C 89.120 207.935,89.086 207.209,87.791 206.861 C 86.514 206.517,36.905 206.468,33.418 206.807 M137.747 206.774 C 134.302 207.039,133.204 207.563,133.194 208.949 C 133.183 210.471,132.682 210.686,128.657 210.891 C 124.290 211.115,124.016 211.280,124.006 213.700 C 124.000 215.177,123.976 215.200,122.433 215.200 C 120.562 215.200,119.601 215.520,119.597 216.143 C 119.596 216.394,119.056 216.907,118.397 217.281 C 117.701 217.678,117.200 218.294,117.200 218.754 C 117.200 219.269,116.887 219.589,116.300 219.672 C 115.689 219.759,115.356 220.121,115.262 220.800 C 115.186 221.350,114.781 222.122,114.362 222.516 C 113.943 222.909,113.600 223.404,113.600 223.616 C 113.600 223.827,113.079 224.000,112.443 224.000 C 111.122 224.000,110.800 224.556,110.800 226.833 C 110.800 228.340,110.749 228.400,109.476 228.400 C 107.142 228.400,106.867 228.917,106.564 233.869 L 106.290 238.339 104.354 240.269 L 102.417 242.200 102.409 304.220 C 102.402 351.934,102.511 366.351,102.880 366.720 C 103.144 366.984,104.016 367.200,104.818 367.200 L 106.275 367.200 106.528 373.047 C 106.806 379.482,106.957 379.888,109.205 380.247 C 110.642 380.477,110.714 380.564,110.909 382.293 C 111.143 384.367,111.610 384.785,113.700 384.794 L 115.200 384.800 115.200 386.586 C 115.200 388.629,115.845 389.200,118.152 389.200 C 119.543 389.200,119.557 389.217,119.678 391.100 L 119.800 393.000 121.904 393.357 C 123.959 393.706,124.015 393.751,124.258 395.272 C 124.573 397.244,125.256 397.600,128.724 397.600 C 132.884 397.600,134.000 397.907,134.000 399.050 L 134.000 400.000 148.200 400.000 L 162.400 400.000 162.400 399.050 C 162.400 397.917,163.508 397.603,167.550 397.594 C 170.805 397.586,171.202 397.350,171.483 395.258 C 171.684 393.761,171.814 393.600,172.827 393.600 C 175.248 393.600,176.000 392.986,176.000 391.010 L 176.000 389.200 177.720 389.200 C 179.881 389.200,180.400 388.681,180.400 386.520 L 180.400 384.800 182.120 384.800 C 184.270 384.800,184.800 384.281,184.800 382.173 C 184.800 380.522,184.816 380.503,186.448 380.284 C 188.711 379.981,188.778 379.858,189.064 375.500 L 189.317 371.652 190.759 371.311 C 193.587 370.644,193.386 375.118,193.530 309.600 C 193.694 235.031,193.781 237.200,190.625 237.200 L 189.307 237.200 189.112 233.160 C 188.897 228.684,188.739 228.416,186.300 228.406 L 184.800 228.400 184.800 226.424 C 184.800 225.337,184.620 224.336,184.400 224.200 C 184.180 224.064,184.000 223.451,184.000 222.838 C 184.000 221.734,182.953 220.400,182.087 220.400 C 180.963 220.400,179.600 219.421,179.600 218.612 C 179.600 216.747,176.782 215.218,173.322 215.206 L 171.644 215.200 171.522 213.316 C 171.376 211.056,171.034 210.899,166.100 210.840 L 162.800 210.800 162.794 209.500 C 162.784 207.334,162.351 207.041,158.719 206.739 C 154.716 206.407,142.258 206.427,137.747 206.774 M222.546 216.868 C 221.718 217.269,220.587 219.120,220.949 219.482 C 221.047 219.580,221.249 219.274,221.399 218.803 C 221.549 218.331,222.240 217.598,222.936 217.174 C 224.264 216.364,224.006 216.161,222.546 216.868 M206.501 248.600 C 206.505 249.480,206.587 249.793,206.683 249.295 C 206.779 248.798,206.775 248.078,206.675 247.695 C 206.575 247.313,206.496 247.720,206.501 248.600 M206.501 255.800 C 206.505 256.680,206.587 256.993,206.683 256.495 C 206.779 255.998,206.775 255.278,206.675 254.895 C 206.575 254.513,206.496 254.920,206.501 255.800 " stroke="none" fill="#dc1c59" fill-rule="evenodd"></path><path id="path4" d="M127.200 2.874 C 127.200 3.079,127.011 3.130,126.779 2.987 C 126.077 2.553,124.400 4.722,124.400 6.063 C 124.400 6.985,124.253 7.229,123.800 7.055 C 123.451 6.922,123.200 7.049,123.200 7.359 C 123.200 7.671,122.745 7.897,122.100 7.903 C 120.213 7.921,119.946 7.988,120.189 8.383 C 120.319 8.593,120.645 8.712,120.913 8.648 C 121.181 8.584,121.265 8.607,121.100 8.699 C 120.273 9.161,120.840 10.716,121.900 10.895 C 122.505 10.997,123.180 11.129,123.400 11.188 C 125.271 11.688,128.294 11.118,129.576 10.022 C 130.332 9.376,131.063 8.916,131.200 9.000 C 131.336 9.084,132.560 8.624,133.919 7.977 C 135.277 7.329,136.546 6.800,136.737 6.800 C 137.039 6.800,137.061 6.174,136.845 3.676 C 136.820 3.388,136.639 3.252,136.442 3.374 C 136.245 3.496,135.988 3.345,135.870 3.039 C 135.621 2.389,127.200 2.229,127.200 2.874 M161.400 2.935 C 159.286 5.392,162.901 10.146,165.472 8.289 C 166.880 7.272,169.600 8.168,169.600 9.649 C 169.600 11.614,172.478 12.606,175.074 11.536 C 175.693 11.281,176.425 11.108,176.700 11.153 C 177.426 11.272,177.312 10.586,176.500 9.949 C 175.851 9.440,175.844 9.458,176.400 10.200 C 176.960 10.946,176.952 10.962,176.283 10.437 C 175.862 10.106,175.714 9.726,175.924 9.516 C 176.398 9.042,176.030 7.208,175.453 7.169 C 175.204 7.153,174.730 7.083,174.400 7.015 C 174.070 6.948,173.350 6.826,172.800 6.746 C 171.290 6.525,170.672 5.786,171.190 4.818 C 171.542 4.161,171.509 4.060,171.005 4.254 C 170.548 4.429,170.460 4.310,170.659 3.790 C 170.886 3.198,170.739 3.118,169.705 3.270 C 168.892 3.389,168.542 3.296,168.659 2.991 C 168.905 2.350,161.949 2.297,161.400 2.935 M180.984 12.539 C 181.560 12.960,181.607 13.149,181.199 13.401 C 180.854 13.614,180.773 13.567,180.962 13.262 C 181.129 12.991,180.999 12.800,180.647 12.800 C 179.855 12.800,179.458 13.476,180.098 13.734 C 180.476 13.887,180.480 13.945,180.113 13.968 C 179.844 13.986,179.706 14.225,179.804 14.500 C 179.903 14.775,180.057 16.147,180.148 17.549 C 180.299 19.891,180.870 21.051,181.639 20.576 C 181.791 20.482,182.023 20.683,182.154 21.023 C 182.307 21.423,182.229 21.542,181.934 21.359 C 181.624 21.168,181.588 21.256,181.821 21.633 C 182.010 21.940,182.233 23.515,182.317 25.134 C 182.578 30.201,183.943 32.265,187.194 32.510 C 187.935 32.565,188.235 33.064,188.635 34.900 C 188.671 35.065,188.725 35.785,188.756 36.500 C 188.847 38.599,190.850 39.841,192.300 38.697 C 192.936 38.195,192.953 36.800,192.324 36.800 C 192.061 36.800,192.196 36.536,192.624 36.213 C 193.108 35.846,193.202 35.621,192.873 35.613 C 192.530 35.604,192.435 35.321,192.600 34.800 C 192.766 34.277,192.671 33.998,192.327 33.994 C 191.909 33.989,191.914 33.916,192.351 33.639 C 192.654 33.447,192.777 33.086,192.624 32.838 C 192.470 32.590,192.201 32.476,192.026 32.584 C 191.851 32.692,191.769 32.253,191.844 31.608 C 191.919 30.963,191.807 30.328,191.595 30.197 C 191.383 30.066,191.309 30.220,191.432 30.539 C 191.554 30.858,191.434 31.255,191.165 31.421 C 190.872 31.603,190.779 31.557,190.934 31.307 C 191.197 30.881,190.499 30.086,189.825 30.045 C 189.318 30.014,189.180 29.193,189.005 25.185 C 188.817 20.873,188.769 20.675,187.800 20.247 C 187.015 19.900,186.533 19.822,184.271 19.674 C 183.426 19.619,183.178 19.423,183.285 18.900 C 183.370 18.486,183.719 18.250,184.137 18.323 C 184.740 18.427,184.714 18.314,183.962 17.562 C 183.145 16.745,183.130 16.641,183.754 16.184 C 184.367 15.736,184.309 15.570,183.115 14.366 C 182.392 13.638,182.070 13.182,182.400 13.352 C 182.730 13.522,182.575 13.287,182.056 12.830 C 181.536 12.374,180.917 12.000,180.679 12.000 C 180.442 12.000,180.579 12.243,180.984 12.539 M109.677 20.323 C 109.277 20.723,108.763 20.988,108.535 20.912 C 108.307 20.836,107.868 21.084,107.560 21.463 C 107.074 22.063,107.079 22.107,107.600 21.800 C 108.080 21.517,108.110 21.562,107.752 22.023 C 107.120 22.838,106.812 24.875,106.740 28.733 C 106.694 31.146,106.506 32.237,106.056 32.686 C 105.126 33.617,104.945 32.548,105.859 31.520 C 106.592 30.696,106.590 30.693,105.700 31.240 C 105.205 31.544,104.800 32.027,104.800 32.314 C 104.800 32.601,104.358 33.278,103.818 33.818 C 103.278 34.358,102.978 34.800,103.152 34.800 C 103.325 34.800,103.467 35.062,103.467 35.382 C 103.467 35.703,103.286 35.853,103.065 35.717 C 102.826 35.569,102.767 35.738,102.919 36.134 C 103.060 36.500,103.001 36.800,102.787 36.800 C 102.304 36.800,102.273 37.885,102.751 38.067 C 102.945 38.140,103.214 38.830,103.350 39.600 C 103.492 40.398,103.463 40.688,103.285 40.275 C 103.113 39.876,103.006 41.359,103.047 43.575 C 103.089 45.789,102.960 47.600,102.761 47.600 C 102.563 47.600,102.400 47.780,102.400 48.000 C 102.400 48.220,102.773 48.400,103.229 48.400 C 103.982 48.400,104.000 48.457,103.429 49.029 C 102.618 49.840,102.635 50.264,103.500 50.768 C 104.145 51.144,104.138 51.180,103.400 51.235 C 102.884 51.274,103.024 51.385,103.797 51.551 C 104.714 51.747,105.053 52.086,105.249 53.003 C 105.390 53.662,105.527 53.885,105.553 53.500 C 105.579 53.115,105.825 52.845,106.100 52.900 C 106.748 53.030,106.913 47.644,106.314 45.924 C 106.004 45.036,106.016 44.637,106.358 44.426 C 106.677 44.229,106.840 42.216,106.873 38.083 C 106.913 33.179,107.023 32.085,107.453 32.326 C 110.288 33.912,113.826 29.865,112.802 26.208 C 112.521 25.202,112.152 24.294,111.983 24.189 C 111.814 24.085,111.764 23.658,111.874 23.240 C 111.983 22.823,111.877 22.118,111.639 21.673 C 111.357 21.145,111.345 20.818,111.607 20.731 C 111.828 20.657,111.647 20.372,111.206 20.097 C 110.533 19.676,110.287 19.713,109.677 20.323 M192.329 37.862 C 192.190 38.575,190.940 38.951,190.591 38.385 C 190.474 38.196,190.760 38.115,191.226 38.205 C 191.841 38.323,192.012 38.208,191.849 37.784 C 191.726 37.463,191.813 37.200,192.042 37.200 C 192.271 37.200,192.400 37.498,192.329 37.862 M191.737 44.400 L 191.882 46.600 191.263 45.200 C 190.695 43.917,190.631 43.878,190.490 44.733 C 190.344 45.617,190.307 45.628,189.781 44.933 C 189.341 44.353,189.221 44.325,189.202 44.800 C 189.190 45.130,188.993 47.200,188.766 49.400 C 188.538 51.600,188.292 59.790,188.218 67.600 C 188.075 82.665,188.073 82.694,186.692 83.609 C 185.219 84.585,136.181 84.660,136.149 83.686 C 136.026 79.969,134.110 78.000,130.616 78.000 C 129.837 78.000,129.200 77.809,129.200 77.576 C 129.200 77.343,129.019 77.265,128.797 77.402 C 128.576 77.539,128.276 77.324,128.131 76.925 C 127.151 74.230,123.842 71.215,120.555 70.021 C 118.526 69.284,117.958 68.864,117.224 67.557 C 116.505 66.278,115.994 65.888,114.523 65.495 C 112.148 64.860,111.706 63.824,112.533 60.831 L 113.132 58.661 112.086 57.831 C 107.996 54.582,105.010 59.219,107.443 65.040 C 107.732 65.732,107.846 66.421,107.696 66.570 C 107.547 66.720,107.734 66.724,108.112 66.578 C 108.490 66.433,108.800 66.489,108.800 66.702 C 108.800 66.915,109.229 67.007,109.753 66.907 C 110.923 66.683,111.132 66.994,111.259 69.154 C 111.373 71.076,111.518 71.225,113.542 71.491 C 115.346 71.729,115.280 71.660,115.444 73.485 C 115.603 75.257,116.440 76.000,118.276 76.000 C 119.004 76.000,119.615 76.135,119.633 76.300 C 119.747 77.338,120.049 79.070,120.184 79.459 C 120.271 79.711,121.272 80.045,122.407 80.201 C 124.172 80.444,124.442 80.595,124.273 81.243 C 124.160 81.675,124.242 81.898,124.464 81.760 C 124.678 81.628,124.820 81.763,124.779 82.060 C 124.651 82.998,124.791 83.743,125.048 83.486 C 125.184 83.350,125.558 83.501,125.880 83.823 C 126.201 84.144,126.630 84.305,126.832 84.180 C 127.035 84.055,127.421 84.089,127.690 84.256 C 127.960 84.423,129.674 84.607,131.499 84.667 C 134.373 84.760,134.936 84.899,135.708 85.707 C 136.199 86.220,136.330 86.290,136.000 85.863 C 135.434 85.131,135.448 85.116,136.233 85.598 C 136.692 85.879,137.407 86.615,137.823 87.234 C 138.343 88.007,138.674 88.209,138.883 87.879 C 139.109 87.525,139.189 87.541,139.194 87.943 C 139.198 88.268,139.449 88.390,139.821 88.247 C 140.162 88.116,140.357 88.146,140.254 88.313 C 139.637 89.312,188.428 89.099,190.247 88.095 C 190.713 87.838,191.203 87.737,191.336 87.870 C 191.469 88.002,191.762 87.625,191.988 87.031 C 192.240 86.368,192.591 86.050,192.899 86.206 C 193.175 86.345,193.121 86.221,192.780 85.930 C 192.272 85.496,192.246 85.229,192.636 84.461 C 192.984 83.776,193.111 78.701,193.105 65.661 C 193.101 55.838,192.968 48.610,192.809 49.600 C 192.570 51.092,192.505 50.750,192.432 47.600 C 192.383 45.510,192.175 43.440,191.968 43.000 C 191.697 42.423,191.633 42.813,191.737 44.400 M104.500 45.600 C 104.630 45.270,104.830 44.730,104.944 44.400 C 105.058 44.070,105.125 44.373,105.093 45.072 C 105.060 45.772,104.936 46.336,104.817 46.325 C 104.099 46.260,103.873 46.459,104.334 46.750 C 104.753 47.017,104.713 47.148,104.146 47.365 C 103.749 47.518,103.552 47.514,103.709 47.358 C 103.865 47.202,103.836 46.877,103.643 46.637 C 103.451 46.397,103.400 45.570,103.530 44.800 L 103.766 43.400 104.015 44.800 C 104.169 45.668,104.353 45.972,104.500 45.600 M168.882 88.697 C 167.278 88.773,164.758 88.773,163.282 88.696 C 161.807 88.619,163.120 88.557,166.200 88.558 C 169.280 88.558,170.487 88.621,168.882 88.697 M33.832 103.181 C 34.090 104.106,34.066 104.123,33.424 103.481 C 33.049 103.107,32.531 102.803,32.271 102.806 C 31.933 102.811,31.926 102.895,32.245 103.106 C 32.516 103.285,32.567 103.713,32.374 104.200 C 32.165 104.726,32.045 104.795,32.022 104.400 C 31.992 103.867,31.945 103.867,31.600 104.400 C 31.387 104.730,31.209 104.831,31.206 104.624 C 31.203 104.416,30.950 104.589,30.644 105.007 C 30.339 105.425,30.161 105.954,30.249 106.183 C 30.350 106.447,29.192 106.639,27.104 106.707 C 21.485 106.888,19.478 107.890,19.937 110.289 C 20.041 110.835,18.265 111.411,17.650 111.031 C 17.433 110.897,17.135 110.982,16.987 111.221 C 16.840 111.459,16.512 111.575,16.260 111.478 C 15.832 111.314,15.642 111.993,15.468 114.300 C 15.431 114.795,15.254 115.200,15.076 115.200 C 14.898 115.200,14.851 115.360,14.972 115.555 C 15.092 115.750,14.833 116.003,14.396 116.117 C 13.958 116.231,13.600 116.162,13.600 115.963 C 13.600 115.485,11.713 115.493,11.417 115.972 C 11.291 116.177,11.398 116.475,11.655 116.634 C 11.913 116.793,12.019 116.754,11.891 116.548 C 11.763 116.341,12.018 116.171,12.456 116.171 C 13.173 116.171,13.187 116.220,12.600 116.649 C 12.241 116.912,11.974 117.249,12.007 117.397 C 12.040 117.545,11.933 117.787,11.769 117.933 C 11.606 118.080,11.618 117.947,11.798 117.638 C 12.026 117.244,11.974 117.169,11.624 117.385 C 11.349 117.555,11.207 118.123,11.307 118.647 C 11.436 119.322,11.301 119.613,10.845 119.643 C 9.574 119.728,7.396 119.915,7.178 119.957 C 7.056 119.981,6.915 120.765,6.864 121.700 C 6.735 124.081,6.493 124.682,5.564 124.925 C 4.873 125.106,4.823 125.039,5.227 124.469 C 5.487 124.101,5.236 124.295,4.669 124.900 C 4.102 125.505,3.315 126.003,2.919 126.006 C 2.498 126.010,2.374 126.134,2.619 126.306 C 3.149 126.678,3.278 128.400,2.775 128.400 C 2.210 128.400,2.334 135.286,2.913 136.007 C 3.246 136.423,4.040 136.597,5.426 136.558 C 9.461 136.445,10.140 135.640,9.946 131.200 C 9.844 128.856,9.938 128.488,10.898 127.462 C 11.854 126.439,12.061 125.795,12.546 122.319 C 12.685 121.322,14.009 120.000,14.868 120.000 C 15.325 120.000,15.871 119.459,16.281 118.600 C 16.656 117.813,17.266 117.178,17.674 117.150 C 18.073 117.123,18.715 117.074,19.100 117.042 C 20.245 116.947,23.122 115.143,23.317 114.397 C 23.470 113.812,23.865 113.733,25.882 113.887 C 28.801 114.109,31.225 112.146,31.390 109.427 C 31.438 108.636,31.604 107.862,31.759 107.707 C 32.601 106.866,47.648 106.780,52.800 107.587 C 54.462 107.847,69.188 107.961,93.600 107.904 C 114.610 107.854,136.540 107.921,142.334 108.052 C 150.823 108.243,153.386 108.175,155.534 107.700 C 157.000 107.375,158.963 107.078,159.895 107.040 C 161.630 106.969,163.102 106.084,162.098 105.716 C 161.821 105.615,161.702 105.359,161.832 105.148 C 162.158 104.620,161.206 103.549,160.693 103.866 C 160.432 104.027,160.399 103.926,160.604 103.594 C 160.846 103.202,160.746 103.135,160.221 103.337 C 159.690 103.540,159.570 103.454,159.746 102.995 C 159.932 102.511,159.832 102.462,159.269 102.763 C 158.839 102.993,158.328 103.001,157.978 102.781 C 157.049 102.198,42.680 102.282,43.040 102.865 C 43.240 103.188,43.110 103.251,42.628 103.066 C 40.974 102.431,39.940 102.343,38.807 102.738 C 38.076 102.993,37.600 103.009,37.600 102.779 C 37.600 102.255,36.789 102.315,35.600 102.926 C 34.755 103.361,34.519 103.344,34.079 102.820 C 33.632 102.288,33.597 102.339,33.832 103.181 M164.970 106.803 C 164.293 106.950,163.378 107.015,162.936 106.948 C 162.451 106.874,162.133 107.051,162.133 107.395 C 162.133 107.708,162.276 107.876,162.451 107.769 C 162.626 107.661,162.717 108.227,162.654 109.028 C 162.504 110.932,163.173 111.629,166.500 113.036 C 167.985 113.664,169.200 114.342,169.200 114.542 C 169.200 115.736,173.694 117.148,174.900 116.332 C 175.196 116.132,176.799 117.301,176.794 117.714 C 176.790 118.026,176.636 117.985,176.363 117.600 C 176.032 117.131,175.972 117.123,176.091 117.565 C 176.175 117.876,176.536 118.173,176.894 118.226 C 177.336 118.290,177.477 118.109,177.335 117.661 C 177.158 117.105,177.191 117.094,177.539 117.587 C 177.826 117.992,177.825 118.329,177.534 118.680 C 177.219 119.059,177.371 119.285,178.135 119.575 C 179.023 119.913,179.192 120.277,179.429 122.373 C 179.667 124.476,179.869 124.910,181.016 125.785 C 181.791 126.376,182.284 127.078,182.217 127.494 C 182.154 127.882,182.234 128.380,182.395 128.600 C 182.556 128.820,183.014 129.900,183.413 131.000 C 184.452 133.867,186.395 135.072,187.767 133.700 C 187.932 133.535,188.277 133.400,188.533 133.400 C 188.795 133.400,188.981 132.872,188.957 132.200 C 188.768 126.974,188.594 124.880,188.362 125.024 C 188.213 125.116,187.870 124.925,187.600 124.600 C 187.330 124.275,186.958 124.102,186.773 124.217 C 185.891 124.762,184.456 123.911,184.486 122.862 C 184.530 121.295,184.027 120.000,183.373 120.000 C 183.058 120.000,182.800 119.730,182.800 119.400 C 182.800 118.400,182.749 118.220,182.313 117.695 C 181.994 117.311,181.761 117.301,181.337 117.652 C 181.031 117.906,180.665 117.998,180.524 117.857 C 180.382 117.716,180.477 117.600,180.733 117.600 C 180.990 117.600,181.200 117.409,181.200 117.176 C 181.200 116.943,181.020 116.864,180.800 117.000 C 180.580 117.136,180.400 117.044,180.400 116.795 C 180.400 116.167,179.520 115.400,178.800 115.400 C 178.446 115.400,178.200 115.034,178.200 114.508 C 178.200 113.519,176.431 111.952,176.360 112.877 C 176.338 113.165,176.199 112.967,176.051 112.437 C 175.790 111.505,175.536 111.384,173.045 111.001 C 171.592 110.778,171.631 110.827,171.505 109.080 C 171.364 107.117,168.350 106.066,164.970 106.803 M179.740 116.587 C 179.864 116.910,179.813 117.268,179.628 117.383 C 179.443 117.497,179.197 117.233,179.083 116.796 C 178.844 115.881,179.401 115.704,179.740 116.587 M188.095 133.975 C 188.317 134.798,189.060 134.942,189.338 134.217 C 189.468 133.878,189.401 133.600,189.187 133.600 C 188.974 133.600,188.797 133.825,188.794 134.100 C 188.790 134.439,188.651 134.407,188.363 134.000 C 188.018 133.512,187.968 133.507,188.095 133.975 M188.898 135.066 C 188.621 135.177,188.522 135.474,188.678 135.726 C 188.833 135.977,188.989 138.620,189.024 141.599 C 189.087 147.034,189.333 148.800,190.027 148.800 C 190.532 148.800,190.502 149.883,189.990 150.137 C 189.764 150.249,189.805 150.295,190.079 150.240 C 190.353 150.186,190.700 149.704,190.849 149.170 C 191.113 148.226,191.121 148.224,191.160 149.100 C 191.246 151.038,192.000 149.871,192.000 147.800 C 192.000 146.390,191.832 145.600,191.533 145.600 C 191.277 145.600,191.179 145.488,191.316 145.350 C 191.454 145.213,191.255 144.808,190.875 144.450 C 190.494 144.093,190.358 143.935,190.572 144.100 C 191.108 144.515,191.695 144.477,191.428 144.045 C 191.308 143.850,191.567 143.597,192.004 143.483 C 192.442 143.369,192.797 143.033,192.794 142.737 C 192.789 142.329,192.694 142.344,192.400 142.800 C 192.142 143.200,192.010 143.233,192.006 142.900 C 192.003 142.625,191.809 142.400,191.576 142.400 C 191.343 142.400,191.242 142.544,191.351 142.720 C 191.459 142.896,191.122 143.040,190.600 143.040 C 190.078 143.040,189.742 142.893,189.853 142.713 C 189.964 142.534,190.235 142.498,190.455 142.634 C 190.674 142.769,190.953 142.502,191.074 142.040 C 191.194 141.578,191.613 141.200,192.004 141.200 C 192.395 141.200,192.822 140.921,192.953 140.579 C 193.102 140.190,193.027 140.060,192.753 140.229 C 192.460 140.410,192.404 140.217,192.585 139.648 C 192.775 139.050,192.658 138.720,192.194 138.542 C 191.666 138.340,191.640 138.221,192.066 137.950 C 192.481 137.688,192.452 137.611,191.935 137.606 C 191.535 137.602,191.311 137.325,191.372 136.908 C 191.456 136.340,190.023 134.719,189.537 134.832 C 189.462 134.849,189.174 134.954,188.898 135.066 M192.202 139.934 C 192.279 140.976,191.018 141.145,190.634 140.143 C 190.423 139.594,190.482 139.570,190.991 139.992 C 191.692 140.574,191.827 139.987,191.148 139.308 C 190.811 138.971,190.880 138.883,191.417 138.961 C 191.832 139.022,192.166 139.435,192.202 139.934 M189.258 151.335 C 189.301 151.591,189.219 152.610,189.076 153.600 C 188.750 155.857,188.435 158.458,188.415 159.057 C 188.397 159.607,187.467 160.009,185.675 160.242 C 182.585 160.643,181.400 162.275,182.220 165.000 C 183.221 168.327,182.758 170.000,180.836 170.000 C 179.470 170.000,179.263 172.414,180.333 175.870 C 180.550 176.568,180.623 177.243,180.497 177.370 C 180.370 177.496,180.365 177.600,180.484 177.600 C 180.604 177.600,180.949 177.295,181.251 176.923 C 181.724 176.340,181.717 176.293,181.200 176.587 C 180.842 176.791,180.735 176.781,180.933 176.564 C 181.117 176.364,181.411 176.200,181.588 176.200 C 181.765 176.200,182.245 175.832,182.655 175.381 C 183.065 174.931,183.231 174.841,183.023 175.181 C 182.816 175.522,183.069 175.407,183.585 174.927 C 184.200 174.355,184.511 173.632,184.488 172.828 C 184.453 171.575,185.755 170.754,186.777 171.386 C 187.010 171.530,187.200 171.437,187.200 171.181 C 187.200 170.924,187.478 170.821,187.821 170.953 C 188.177 171.089,188.337 171.022,188.197 170.795 C 188.063 170.578,188.103 170.400,188.286 170.400 C 188.589 170.400,188.964 166.604,188.929 163.900 C 188.921 163.295,189.088 162.800,189.300 162.800 C 189.512 162.800,189.587 162.542,189.466 162.227 C 189.312 161.827,189.480 161.700,190.023 161.804 C 190.450 161.887,190.800 161.734,190.800 161.466 C 190.800 161.197,191.156 160.673,191.592 160.300 C 192.041 159.915,192.282 159.358,192.149 159.011 C 192.010 158.649,192.136 158.398,192.457 158.394 C 192.914 158.389,192.914 158.333,192.457 158.044 C 192.079 157.804,192.049 157.617,192.357 157.426 C 192.601 157.276,192.800 156.973,192.800 156.753 C 192.800 156.533,192.622 156.463,192.405 156.597 C 192.178 156.737,192.111 156.577,192.247 156.221 C 192.378 155.879,192.668 155.600,192.892 155.600 C 193.143 155.600,193.124 155.390,192.842 155.051 C 192.591 154.749,192.501 154.202,192.642 153.836 C 192.928 153.090,191.708 151.486,191.127 151.845 C 190.913 151.978,190.933 152.279,191.177 152.572 C 191.406 152.848,191.475 153.192,191.330 153.337 C 191.185 153.482,191.262 153.600,191.500 153.600 C 191.738 153.600,192.024 153.375,192.135 153.100 C 192.256 152.801,192.350 152.882,192.368 153.300 C 192.386 153.685,192.209 154.000,191.976 154.000 C 191.743 154.000,191.669 154.225,191.811 154.500 C 191.953 154.775,191.708 154.555,191.266 154.011 C 190.824 153.467,190.549 152.882,190.655 152.711 C 190.761 152.540,190.635 152.400,190.375 152.400 C 190.019 152.400,190.015 152.264,190.359 151.849 C 190.719 151.416,190.642 151.252,189.999 151.084 C 189.503 150.954,189.211 151.053,189.258 151.335 M4.228 159.890 C 2.677 160.285,2.400 161.014,2.406 164.671 C 2.409 166.612,2.580 168.465,2.785 168.789 C 3.031 169.178,2.995 169.483,2.679 169.683 C 2.361 169.886,2.449 169.990,2.943 169.994 C 3.435 169.998,3.609 170.201,3.457 170.595 C 3.332 170.923,3.357 171.171,3.514 171.148 C 3.671 171.124,3.980 171.144,4.200 171.192 C 4.420 171.240,5.050 171.306,5.600 171.339 C 6.408 171.388,6.617 171.630,6.691 172.600 C 6.741 173.260,6.862 174.160,6.960 174.600 C 7.058 175.040,7.153 175.494,7.169 175.609 C 7.186 175.724,7.938 175.848,8.841 175.883 C 10.780 175.960,10.862 176.021,10.982 177.478 C 11.151 179.541,11.560 180.269,12.506 180.197 C 14.582 180.038,15.378 180.567,15.414 182.130 C 15.457 183.987,15.997 184.531,17.896 184.631 C 20.022 184.744,20.073 184.758,19.817 185.172 C 19.691 185.377,19.754 185.648,19.958 185.774 C 20.162 185.900,20.282 186.437,20.223 186.967 C 20.150 187.638,20.282 187.867,20.659 187.722 C 20.956 187.608,21.200 187.694,21.200 187.914 C 21.200 188.489,22.750 188.798,26.718 189.014 C 30.082 189.198,31.592 189.842,30.981 190.831 C 30.874 191.004,30.998 191.275,31.255 191.434 C 31.548 191.615,31.616 191.550,31.438 191.262 C 31.270 190.990,31.404 190.800,31.764 190.800 C 32.175 190.800,32.293 191.029,32.124 191.500 C 31.986 191.885,32.018 192.068,32.196 191.907 C 32.373 191.746,32.852 191.999,33.259 192.468 C 33.667 192.938,34.000 193.125,34.000 192.884 C 34.000 192.630,34.378 192.540,34.900 192.669 C 36.629 193.099,40.170 193.140,93.400 193.344 C 140.457 193.524,151.805 193.410,159.466 192.682 C 160.118 192.620,160.228 192.474,159.909 192.091 C 159.592 191.708,159.640 191.640,160.103 191.818 C 160.442 191.948,160.840 191.859,160.987 191.621 C 161.135 191.382,161.441 191.302,161.668 191.442 C 161.894 191.582,161.852 191.270,161.574 190.748 C 161.122 189.900,161.136 189.855,161.703 190.323 C 162.251 190.775,162.308 190.735,162.122 190.023 C 161.984 189.495,162.102 189.190,162.453 189.173 C 170.101 188.801,171.550 188.305,171.268 186.153 C 171.197 185.613,171.479 184.953,171.956 184.545 C 172.877 183.756,174.145 183.442,173.736 184.103 C 173.564 184.382,173.717 184.441,174.167 184.268 C 174.551 184.121,175.025 184.000,175.220 184.000 C 175.415 184.000,175.471 183.730,175.345 183.400 C 175.218 183.070,175.322 182.800,175.575 182.800 C 176.365 182.800,178.068 180.833,177.739 180.301 C 177.532 179.966,177.365 180.103,177.217 180.728 C 177.098 181.233,176.840 181.621,176.645 181.589 C 176.449 181.558,176.137 181.772,175.951 182.066 C 175.686 182.483,175.611 182.488,175.606 182.087 C 175.603 181.806,175.870 181.471,176.200 181.345 C 177.011 181.033,176.958 180.587,176.100 180.504 C 175.715 180.467,174.541 180.320,173.490 180.177 C 171.359 179.888,170.218 180.461,170.532 181.661 C 170.827 182.789,168.361 183.063,165.287 182.244 C 161.674 181.282,158.851 182.319,156.764 185.376 C 155.404 187.369,151.790 187.936,142.000 187.692 C 134.787 187.512,82.744 187.756,53.000 188.110 C 49.451 188.152,46.020 187.976,44.600 187.680 C 43.280 187.405,40.833 187.135,39.162 187.080 C 36.076 186.979,34.800 186.398,34.800 185.096 C 34.800 184.091,31.897 182.937,28.511 182.594 C 25.812 182.322,23.600 181.687,23.600 181.185 C 23.600 180.494,21.493 178.895,19.989 178.444 C 18.833 178.097,18.281 177.622,17.729 176.498 C 17.328 175.679,16.231 174.498,15.292 173.873 C 14.257 173.184,13.343 172.160,12.973 171.274 C 12.260 169.567,10.893 168.000,10.118 168.000 C 9.212 168.000,9.159 167.099,9.943 165.039 L 10.690 163.079 9.445 162.022 C 6.804 159.780,5.980 159.443,4.228 159.890 " stroke="none" fill="#65c8e2" fill-rule="evenodd"></path></g></svg>