<svg xmlns="http://www.w3.org/2000/svg" xmlns:xlink="http://www.w3.org/1999/xlink" viewBox="0 0 750 950" width="750" height="950" class="p-lottie__svg animation__S7J3x" preserveAspectRatio="xMidYMid meet" style="width: 100%; height: 100%; transform: translate3d(0px, 0px, 0px); content-visibility: visible;"><defs><clipPath id="__lottie_element_1524"><rect width="750" height="950" x="0" y="0"></rect></clipPath><clipPath id="__lottie_element_1603"><path d="M0,0 L21,0 L21,21 L0,21z"></path></clipPath></defs><g clip-path="url(#__lottie_element_1524)"><g transform="matrix(1.0299999713897705,0,0,1.0299999713897705,424,961.635986328125)" opacity="1" style="display: block;"><g opacity="1" transform="matrix(1,0,0,1,0,-1)"><path fill="rgb(255,255,255)" fill-opacity="1" d=" M354.3710021972656,-627.6799926757812 C354.3710021972656,-627.6799926757812 353.864013671875,386.21600341796875 353.864013671875,386.21600341796875 C353.864013671875,397.8139953613281 344.4620056152344,407.2170104980469 332.864013671875,407.2170104980469 C332.864013671875,407.2170104980469 -333.87799072265625,407.2170104980469 -333.87799072265625,407.2170104980469 C-345.47601318359375,407.2170104980469 -354.87799072265625,397.8139953613281 -354.87799072265625,386.21600341796875 C-354.87799072265625,386.21600341796875 -354.3710021972656,-627.6799926757812 -354.3710021972656,-627.6799926757812 C-354.3710021972656,-639.2780151367188 -344.968994140625,-648.6799926757812 -333.3710021972656,-648.6799926757812 C-333.3710021972656,-648.6799926757812 333.3710021972656,-648.6799926757812 333.3710021972656,-648.6799926757812 C344.968994140625,-648.6799926757812 354.3710021972656,-639.2780151367188 354.3710021972656,-627.6799926757812z"></path><path stroke-linecap="butt" stroke-linejoin="miter" fill-opacity="0" stroke-miterlimit="4" stroke="rgb(196,196,196)" stroke-opacity="1" stroke-width="2" d=" M354.3710021972656,-627.6799926757812 C354.3710021972656,-627.6799926757812 353.864013671875,386.21600341796875 353.864013671875,386.21600341796875 C353.864013671875,397.8139953613281 344.4620056152344,407.2170104980469 332.864013671875,407.2170104980469 C332.864013671875,407.2170104980469 -333.87799072265625,407.2170104980469 -333.87799072265625,407.2170104980469 C-345.47601318359375,407.2170104980469 -354.87799072265625,397.8139953613281 -354.87799072265625,386.21600341796875 C-354.87799072265625,386.21600341796875 -354.3710021972656,-627.6799926757812 -354.3710021972656,-627.6799926757812 C-354.3710021972656,-639.2780151367188 -344.968994140625,-648.6799926757812 -333.3710021972656,-648.6799926757812 C-333.3710021972656,-648.6799926757812 333.3710021972656,-648.6799926757812 333.3710021972656,-648.6799926757812 C344.968994140625,-648.6799926757812 354.3710021972656,-639.2780151367188 354.3710021972656,-627.6799926757812z"></path></g></g><g transform="matrix(1.1830273866653442,0,0,1.1830273866653442,400.1670837402344,560.144775390625)" opacity="1" style="display: block;"><g opacity="1" transform="matrix(1,0,0,1,-107.54299926757812,117.45700073242188)"><path stroke-linecap="butt" stroke-linejoin="miter" fill-opacity="0" stroke-miterlimit="4" stroke-dasharray=" 8" stroke-dashoffset="-1" stroke="rgb(42,99,159)" stroke-opacity="1" stroke-width="2" d=" M372.4620056152344,-55.00299835205078 C372.4620056152344,-55.00299835205078 372.4620056152344,54.9109992980957 372.4620056152344,54.9109992980957 C372.4620056152344,68.16600036621094 361.7170104980469,78.91100311279297 348.4620056152344,78.91100311279297 C348.4620056152344,78.91100311279297 -91,78.95700073242188 -91,78.95700073242188 C-104.25499725341797,78.95700073242188 -115,68.21199798583984 -115,54.957000732421875 C-115,54.957000732421875 -115,-54.957000732421875 -115,-54.957000732421875 C-115,-68.21199798583984 -104.25499725341797,-78.95700073242188 -91,-78.95700073242188 C-91,-78.95700073242188 348.4620056152344,-79.00299835205078 348.4620056152344,-79.00299835205078 C361.7170104980469,-79.00299835205078 372.4620056152344,-68.25800323486328 372.4620056152344,-55.00299835205078z"></path></g></g><g style="display: none;" transform="matrix(1.1830273866653442,0,0,1.1830273866653442,400.1670837402344,632.2447509765625)" opacity="0.15"><g opacity="1" transform="matrix(1,0,0,1,-107.54299926757812,117.45700073242188)"><path fill="rgb(2,99,201)" fill-opacity="1" d=" M372.4620056152344,-55.00299835205078 C372.4620056152344,-55.00299835205078 372.4620056152344,54.9109992980957 372.4620056152344,54.9109992980957 C372.4620056152344,68.16600036621094 361.7170104980469,78.91100311279297 348.4620056152344,78.91100311279297 C348.4620056152344,78.91100311279297 -91,78.95700073242188 -91,78.95700073242188 C-104.25499725341797,78.95700073242188 -115,68.21199798583984 -115,54.957000732421875 C-115,54.957000732421875 -115,-54.957000732421875 -115,-54.957000732421875 C-115,-68.21199798583984 -104.25499725341797,-78.95700073242188 -91,-78.95700073242188 C-91,-78.95700073242188 348.4620056152344,-79.00299835205078 348.4620056152344,-79.00299835205078 C361.7170104980469,-79.00299835205078 372.4620056152344,-68.25800323486328 372.4620056152344,-55.00299835205078z"></path><path stroke-linecap="butt" stroke-linejoin="miter" fill-opacity="0" stroke-miterlimit="4" stroke-dasharray=" 8" stroke-dashoffset="-1" stroke="rgb(42,99,159)" stroke-opacity="1" stroke-width="2" d=" M372.4620056152344,-55.00299835205078 C372.4620056152344,-55.00299835205078 372.4620056152344,54.9109992980957 372.4620056152344,54.9109992980957 C372.4620056152344,68.16600036621094 361.7170104980469,78.91100311279297 348.4620056152344,78.91100311279297 C348.4620056152344,78.91100311279297 -91,78.95700073242188 -91,78.95700073242188 C-104.25499725341797,78.95700073242188 -115,68.21199798583984 -115,54.957000732421875 C-115,54.957000732421875 -115,-54.957000732421875 -115,-54.957000732421875 C-115,-68.21199798583984 -104.25499725341797,-78.95700073242188 -91,-78.95700073242188 C-91,-78.95700073242188 348.4620056152344,-79.00299835205078 348.4620056152344,-79.00299835205078 C361.7170104980469,-79.00299835205078 372.4620056152344,-68.25800323486328 372.4620056152344,-55.00299835205078z"></path></g></g><g transform="matrix(0.6506503224372864,0,0,0.6506503224372864,493.55206298828125,622.700439453125)" opacity="1" style="display: block;"><g opacity="1" transform="matrix(1,0,0,1,-107.54299926757812,117.45700073242188)"><path fill="rgb(234,245,250)" fill-opacity="1" d=" M53.457000732421875,-29.457000732421875 C53.457000732421875,-29.457000732421875 53.457000732421875,29.457000732421875 53.457000732421875,29.457000732421875 C53.457000732421875,42.70260238647461 42.70260238647461,53.457000732421875 29.457000732421875,53.457000732421875 C29.457000732421875,53.457000732421875 -29.457000732421875,53.457000732421875 -29.457000732421875,53.457000732421875 C-42.70260238647461,53.457000732421875 -53.457000732421875,42.70260238647461 -53.457000732421875,29.457000732421875 C-53.457000732421875,29.457000732421875 -53.457000732421875,-29.457000732421875 -53.457000732421875,-29.457000732421875 C-53.457000732421875,-42.70260238647461 -42.70260238647461,-53.457000732421875 -29.457000732421875,-53.457000732421875 C-29.457000732421875,-53.457000732421875 29.457000732421875,-53.457000732421875 29.457000732421875,-53.457000732421875 C42.70260238647461,-53.457000732421875 53.457000732421875,-42.70260238647461 53.457000732421875,-29.457000732421875z"></path></g></g><g transform="matrix(0.06327136605978012,0,0,0.06327136605978012,423.46588134765625,698.5824584960938)" opacity="1" style="display: block;"><g opacity="1" transform="matrix(41.73912811279297,0,0,41.73912811279297,0,0)"><path fill="rgb(18,100,163)" fill-opacity="1" d=" M-5.25,7.75 C-5.25,7.75 -5.25,4.560999870300293 -5.25,4.560999870300293 C-5.25,4.560999870300293 -6.46999979019165,5.78000020980835 -6.46999979019165,5.78000020980835 C-6.763000011444092,6.072999954223633 -7.236999988555908,6.072999954223633 -7.53000020980835,5.78000020980835 C-7.822999954223633,5.486999988555908 -7.822999954223633,5.013000011444092 -7.53000020980835,4.71999979019165 C-7.53000020980835,4.71999979019165 -5.03000020980835,2.2200000286102295 -5.03000020980835,2.2200000286102295 C-4.736999988555908,1.9270000457763672 -4.263000011444092,1.9270000457763672 -3.9700000286102295,2.2200000286102295 C-3.9700000286102295,2.2200000286102295 -1.4700000286102295,4.71999979019165 -1.4700000286102295,4.71999979019165 C-1.1770000457763672,5.013000011444092 -1.1770000457763672,5.486999988555908 -1.4700000286102295,5.78000020980835 C-1.7630000114440918,6.072999954223633 -2.236999988555908,6.072999954223633 -2.5299999713897705,5.78000020980835 C-2.5299999713897705,5.78000020980835 -3.75,4.560999870300293 -3.75,4.560999870300293 C-3.75,4.560999870300293 -3.75,7.75 -3.75,7.75 C-3.75,8.163999557495117 -4.085999965667725,8.5 -4.5,8.5 C-4.914000034332275,8.5 -5.25,8.163999557495117 -5.25,7.75z M2,-6 C2.4140000343322754,-6 2.75,-5.664000034332275 2.75,-5.25 C2.75,-5.25 2.75,-3.5 2.75,-3.5 C2.75,-3.5 4.5,-3.5 4.5,-3.5 C4.914000034332275,-3.5 5.25,-3.1640000343322754 5.25,-2.75 C5.25,-2.3359999656677246 4.914000034332275,-2 4.5,-2 C4.5,-2 2,-2 2,-2 C1.5859999656677246,-2 1.25,-2.3359999656677246 1.25,-2.75 C1.25,-2.75 1.25,-5.25 1.25,-5.25 C1.25,-5.664000034332275 1.5859999656677246,-6 2,-6z M-7.25,-4.75 C-7.25,-6.821000099182129 -5.571000099182129,-8.5 -3.5,-8.5 C-3.5,-8.5 3,-8.5 3,-8.5 C3.865999937057495,-8.5 4.681000232696533,-8.092000007629395 5.199999809265137,-7.400000095367432 C5.199999809265137,-7.400000095367432 7.199999809265137,-4.732999801635742 7.199999809265137,-4.732999801635742 C7.557000160217285,-4.256999969482422 7.75,-3.677999973297119 7.75,-3.0829999446868896 C7.75,-3.0829999446868896 7.75,4.75 7.75,4.75 C7.75,6.821000099182129 6.071000099182129,8.5 4,8.5 C4,8.5 0,8.5 0,8.5 C-0.414000004529953,8.5 -0.75,8.163999557495117 -0.75,7.75 C-0.75,7.335999965667725 -0.414000004529953,7 0,7 C0,7 4,7 4,7 C5.243000030517578,7 6.25,5.993000030517578 6.25,4.75 C6.25,4.75 6.25,-3.0829999446868896 6.25,-3.0829999446868896 C6.25,-3.3529999256134033 6.1620001792907715,-3.617000102996826 6,-3.8329999446868896 C6,-3.8329999446868896 4,-6.5 4,-6.5 C3.7639999389648438,-6.815000057220459 3.3929998874664307,-7 3,-7 C3,-7 -3.5,-7 -3.5,-7 C-4.743000030517578,-7 -5.75,-5.993000030517578 -5.75,-4.75 C-5.75,-4.75 -5.75,0.25 -5.75,0.25 C-5.75,0.6639999747276306 -6.085999965667725,1 -6.5,1 C-6.914000034332275,1 -7.25,0.6639999747276306 -7.25,0.25 C-7.25,0.25 -7.25,-4.75 -7.25,-4.75z"></path></g></g><g style="display: none;" transform="matrix(1.1830273866653442,0,0,1.1830273866653442,400.0439453125,632.7906494140625)" opacity="1"><g opacity="1" transform="matrix(1,0,0,1,-107.54299926757812,117.45700073242188)"><path fill="rgb(255,255,255)" fill-opacity="1" d=" M115.53399658203125,-55.47600173950195 C115.53399658203125,-55.47600173950195 115.53399658203125,55.08100128173828 115.53399658203125,55.08100128173828 C115.53399658203125,68.33599853515625 104.78900146484375,79.08100128173828 91.53399658203125,79.08100128173828 C91.53399658203125,79.08100128173828 -91.39900207519531,78.65699768066406 -91.39900207519531,78.65699768066406 C-104.65399932861328,78.65699768066406 -115.39900207519531,67.91200256347656 -115.39900207519531,54.65700149536133 C-115.39900207519531,54.65700149536133 -115.39900207519531,-55.900001525878906 -115.39900207519531,-55.900001525878906 C-115.39900207519531,-69.15499877929688 -104.65399932861328,-79.9000015258789 -91.39900207519531,-79.9000015258789 C-91.39900207519531,-79.9000015258789 91.53399658203125,-79.47599792480469 91.53399658203125,-79.47599792480469 C104.78900146484375,-79.47599792480469 115.53399658203125,-68.73100280761719 115.53399658203125,-55.47600173950195z"></path><path stroke-linecap="butt" stroke-linejoin="miter" fill-opacity="0" stroke-miterlimit="4" stroke="rgb(226,225,226)" stroke-opacity="1" stroke-width="2" d=" M115.53399658203125,-55.47600173950195 C115.53399658203125,-55.47600173950195 115.53399658203125,55.08100128173828 115.53399658203125,55.08100128173828 C115.53399658203125,68.33599853515625 104.78900146484375,79.08100128173828 91.53399658203125,79.08100128173828 C91.53399658203125,79.08100128173828 -91.39900207519531,78.65699768066406 -91.39900207519531,78.65699768066406 C-104.65399932861328,78.65699768066406 -115.39900207519531,67.91200256347656 -115.39900207519531,54.65700149536133 C-115.39900207519531,54.65700149536133 -115.39900207519531,-55.900001525878906 -115.39900207519531,-55.900001525878906 C-115.39900207519531,-69.15499877929688 -104.65399932861328,-79.9000015258789 -91.39900207519531,-79.9000015258789 C-91.39900207519531,-79.9000015258789 91.53399658203125,-79.47599792480469 91.53399658203125,-79.47599792480469 C104.78900146484375,-79.47599792480469 115.53399658203125,-68.73100280761719 115.53399658203125,-55.47600173950195z"></path></g></g><g style="display: none;" transform="matrix(1.0299988985061646,0,0,1.0299988985061646,429.14984130859375,716.5799560546875)" opacity="1"><g opacity="1" transform="matrix(1,0,0,1,0,0)"><path fill="rgb(255,255,255)" fill-opacity="1" d=" M-164.14300537109375,22.715999603271484 C-164.14300537109375,22.715999603271484 -91.85700225830078,22.381999969482422 -91.85700225830078,22.381999969482422"></path><path stroke-linecap="round" stroke-linejoin="miter" fill-opacity="0" stroke-miterlimit="4" stroke="rgb(189,189,189)" stroke-opacity="1" stroke-width="22" d=" M-164.14300537109375,22.715999603271484 C-164.14300537109375,22.715999603271484 -91.85700225830078,22.381999969482422 -91.85700225830078,22.381999969482422"></path></g></g><g style="display: none;" transform="matrix(1.0299988985061646,0,0,1.0299988985061646,429.14984130859375,748.9513549804688)" opacity="1"><g opacity="1" transform="matrix(1,0,0,1,0,0)"><path fill="rgb(255,255,255)" fill-opacity="1" d=" M-164.14300537109375,22.715999603271484 C-164.14300537109375,22.715999603271484 -53.854000091552734,22.6200008392334 -53.854000091552734,22.6200008392334"></path><path stroke-linecap="round" stroke-linejoin="miter" fill-opacity="0" stroke-miterlimit="4" stroke="rgb(189,189,189)" stroke-opacity="1" stroke-width="22" d=" M-164.14300537109375,22.715999603271484 C-164.14300537109375,22.715999603271484 -53.854000091552734,22.6200008392334 -53.854000091552734,22.6200008392334"></path></g></g><g style="display: none;" transform="matrix(1.0299988985061646,0,0,1.0299988985061646,429.14984130859375,747.4799194335938)" opacity="1"><g opacity="1" transform="matrix(1,0,0,1,0,0)"><path fill="rgb(255,255,255)" fill-opacity="1" d=" M-163.85699462890625,56.28799819946289 C-163.85699462890625,56.28799819946289 -78,56.84299850463867 -78,56.84299850463867"></path><path stroke-linecap="round" stroke-linejoin="miter" fill-opacity="0" stroke-miterlimit="4" stroke="rgb(226,225,226)" stroke-opacity="1" stroke-width="22" d=" M-163.85699462890625,56.28799819946289 C-163.85699462890625,56.28799819946289 -78,56.84299850463867 -78,56.84299850463867"></path></g></g><g style="display: none;" transform="matrix(2.8104257583618164,0,0,2.8104257583618164,148.8872833251953,723.9807739257812)" opacity="1"><g opacity="1" transform="matrix(1,0,0,1,17,17)"><path fill="rgb(247,191,8)" fill-opacity="1" d=" M-12,-8 C-12,-10.208999633789062 -10.208999633789062,-12 -8,-12 C-8,-12 8,-12 8,-12 C10.208999633789062,-12 12,-10.208999633789062 12,-8 C12,-8 12,8 12,8 C12,10.208999633789062 10.208999633789062,12 8,12 C8,12 -8,12 -8,12 C-10.208999633789062,12 -12,10.208999633789062 -12,8 C-12,8 -12,-8 -12,-8z"></path></g><g opacity="1" transform="matrix(1,0,0,1,17,17)"><path fill="rgb(255,255,255)" fill-opacity="1" d=" M3.7330000400543213,-2.6670000553131104 C3.880000114440918,-2.6670000553131104 4,-2.546999931335449 4,-2.4000000953674316 C4,-2.4000000953674316 4,2.4000000953674316 4,2.4000000953674316 C4,2.546999931335449 3.880000114440918,2.6670000553131104 3.7330000400543213,2.6670000553131104 C3.7330000400543213,2.6670000553131104 -3.7330000400543213,2.6670000553131104 -3.7330000400543213,2.6670000553131104 C-3.880000114440918,2.6670000553131104 -4,2.546999931335449 -4,2.4000000953674316 C-4,2.4000000953674316 -4,-2.4000000953674316 -4,-2.4000000953674316 C-4,-2.546999931335449 -3.880000114440918,-2.6670000553131104 -3.7330000400543213,-2.6670000553131104 C-3.7330000400543213,-2.6670000553131104 3.7330000400543213,-2.6670000553131104 3.7330000400543213,-2.6670000553131104z M3.9730000495910645,-5.333000183105469 C3.9730000495910645,-5.333000183105469 -3.9730000495910645,-5.333000183105469 -3.9730000495910645,-5.333000183105469 C-4.760000228881836,-5.333000183105469 -5.333000183105469,-4.760000228881836 -5.333000183105469,-3.9730000495910645 C-5.333000183105469,-3.9730000495910645 -5.333000183105469,3.9730000495910645 -5.333000183105469,3.9730000495910645 C-5.333000183105469,4.760000228881836 -4.760000228881836,5.333000183105469 -3.9730000495910645,5.333000183105469 C-3.9730000495910645,5.333000183105469 3.9730000495910645,5.333000183105469 3.9730000495910645,5.333000183105469 C4.760000228881836,5.333000183105469 5.333000183105469,4.760000228881836 5.333000183105469,3.9730000495910645 C5.333000183105469,3.9730000495910645 5.333000183105469,-3.9730000495910645 5.333000183105469,-3.9730000495910645 C5.333000183105469,-4.760000228881836 4.760000228881836,-5.333000183105469 3.9730000495910645,-5.333000183105469z"></path></g></g><g style="display: none;" transform="matrix(1.471427083015442,0,0,1.471427083015442,424,551.0440063476562)" opacity="1"><g opacity="1" transform="matrix(1,0,0,1,0,0)"><path fill="rgb(2,99,201)" fill-opacity="1" d=" M205,87.5 C205,87.5 205,214 205,214"></path><path stroke-linecap="round" stroke-linejoin="miter" fill-opacity="0" stroke-miterlimit="4" stroke="rgb(63,115,170)" stroke-opacity="1" stroke-width="5" d=" M205,87.5 C205,87.5 205,214 205,214"></path></g></g><g style="display: none;" transform="matrix(1.1830271482467651,0,0,1.1830271482467651,705.0492553710938,632.80322265625)" opacity="1"><g opacity="1" transform="matrix(1,0,0,1,-107.54299926757812,117.45700073242188)"><path fill="rgb(255,255,255)" fill-opacity="1" d=" M115,-55.5 C115,-55.5 115,55.5 115,55.5 C115,68.74559783935547 104.24559783935547,79.5 91,79.5 C91,79.5 -91,79.5 -91,79.5 C-104.24559783935547,79.5 -115,68.74559783935547 -115,55.5 C-115,55.5 -115,-55.5 -115,-55.5 C-115,-68.74559783935547 -104.24559783935547,-79.5 -91,-79.5 C-91,-79.5 91,-79.5 91,-79.5 C104.24559783935547,-79.5 115,-68.74559783935547 115,-55.5z"></path><path stroke-linecap="butt" stroke-linejoin="miter" fill-opacity="0" stroke-miterlimit="4" stroke="rgb(226,225,226)" stroke-opacity="1" stroke-width="2" d=" M115,-55.5 C115,-55.5 115,55.5 115,55.5 C115,68.74559783935547 104.24559783935547,79.5 91,79.5 C91,79.5 -91,79.5 -91,79.5 C-104.24559783935547,79.5 -115,68.74559783935547 -115,55.5 C-115,55.5 -115,-55.5 -115,-55.5 C-115,-68.74559783935547 -104.24559783935547,-79.5 -91,-79.5 C-91,-79.5 91,-79.5 91,-79.5 C104.24559783935547,-79.5 115,-68.74559783935547 115,-55.5z"></path></g></g><g style="display: none;" transform="matrix(1.0299988985061646,0,0,1.0299988985061646,734.1546020507812,715.8560180664062)" opacity="1"><g opacity="1" transform="matrix(1,0,0,1,0,0)"><path fill="rgb(255,255,255)" fill-opacity="1" d=" M-164.14300537109375,22.715999603271484 C-164.14300537109375,22.715999603271484 -98.77200317382812,22.784000396728516 -98.77200317382812,22.784000396728516"></path><path stroke-linecap="round" stroke-linejoin="miter" fill-opacity="0" stroke-miterlimit="4" stroke="rgb(189,189,189)" stroke-opacity="1" stroke-width="22" d=" M-164.14300537109375,22.715999603271484 C-164.14300537109375,22.715999603271484 -98.77200317382812,22.784000396728516 -98.77200317382812,22.784000396728516"></path></g></g><g style="display: none;" transform="matrix(1.0299988985061646,0,0,1.0299988985061646,734.1546020507812,714.3845825195312)" opacity="1"><g opacity="1" transform="matrix(1,0,0,1,0,0)"><path fill="rgb(255,255,255)" fill-opacity="1" d=" M-163.85699462890625,56.28799819946289 C-163.85699462890625,56.28799819946289 -78.79000091552734,56.29399871826172 -78.79000091552734,56.29399871826172"></path><path stroke-linecap="round" stroke-linejoin="miter" fill-opacity="0" stroke-miterlimit="4" stroke="rgb(226,225,226)" stroke-opacity="1" stroke-width="22" d=" M-163.85699462890625,56.28799819946289 C-163.85699462890625,56.28799819946289 -78.79000091552734,56.29399871826172 -78.79000091552734,56.29399871826172"></path></g></g><g style="display: none;" transform="matrix(1.0299988985061646,0,0,1.0299988985061646,734.1546020507812,715.8560180664062)" opacity="1"><g opacity="1" transform="matrix(1,0,0,1,0,0)"><path fill="rgb(255,255,255)" fill-opacity="1" d=" M-163.99899291992188,87.71600341796875 C-163.99899291992188,87.71600341796875 -47.10900115966797,87.72200012207031 -47.10900115966797,87.72200012207031"></path><path stroke-linecap="round" stroke-linejoin="miter" fill-opacity="0" stroke-miterlimit="4" stroke="rgb(226,225,226)" stroke-opacity="1" stroke-width="22" d=" M-163.99899291992188,87.71600341796875 C-163.99899291992188,87.71600341796875 -47.10900115966797,87.72200012207031 -47.10900115966797,87.72200012207031"></path></g></g><g style="display: none;" transform="matrix(0.08031049370765686,0,0,0.08031049370765686,500.6098327636719,771.758056640625)" opacity="1"><g opacity="1" transform="matrix(34.28572082519531,0,0,34.28572082519531,0,0)"><path fill="rgb(224,30,90)" fill-opacity="1" d=" M12,-8 C12,-8 12,8 12,8 C12,10.207599639892578 10.207599639892578,12 8,12 C8,12 -8,12 -8,12 C-10.207599639892578,12 -12,10.207599639892578 -12,8 C-12,8 -12,-8 -12,-8 C-12,-10.207599639892578 -10.207599639892578,-12 -8,-12 C-8,-12 8,-12 8,-12 C10.207599639892578,-12 12,-10.207599639892578 12,-8z"></path></g></g><g style="display: none;" transform="matrix(0.08031049370765686,0,0,0.08031049370765686,500.58221435546875,771.758056640625)" opacity="1"><g opacity="1" transform="matrix(34.28572082519531,0,0,34.28572082519531,0,0)"><path fill="rgb(255,255,255)" fill-opacity="1" d=" M0.3059999942779541,-3.7920000553131104 C0.3070000112056732,-3.7980000972747803 0.3070000112056732,-3.8010001182556152 0.3070000112056732,-3.8010001182556152 M3.3489999771118164,0.7409999966621399 C3.3489999771118164,0.7409999966621399 3.3510000705718994,0.7409999966621399 3.3510000705718994,0.7409999966621399 M3.318000078201294,2.052000045776367 C3.319999933242798,2.052999973297119 3.322000026702881,2.052999973297119 3.322000026702881,2.052999973297119 M3.3489999771118164,0.7409999966621399 C3.3499999046325684,0.7409999966621399 3.3510000705718994,0.7409999966621399 3.3510000705718994,0.7409999966621399 M-0.19699999690055847,-0.6740000247955322 C-0.02500000037252903,-0.4269999861717224 0.14300000667572021,-0.18700000643730164 0.3140000104904175,0.04500000178813934 C0.34299999475479126,0.08399999886751175 0.3709999918937683,0.12300000339746475 0.4000000059604645,0.16099999845027924 C0.5519999861717224,0.3630000054836273 0.7080000042915344,0.5580000281333923 0.8709999918937683,0.7450000047683716 C0.640999972820282,0.800000011920929 0.41200000047683716,0.8650000095367432 0.18299999833106995,0.9359999895095825 C0.10300000011920929,0.9610000252723694 0.023000000044703484,0.9860000014305115 -0.0560000017285347,1.0119999647140503 C-0.26600000262260437,1.0809999704360962 -0.47600001096725464,1.152999997138977 -0.6840000152587891,1.2239999771118164 C-0.7509999871253967,1.246999979019165 -0.8180000185966492,1.2699999809265137 -0.8849999904632568,1.2929999828338623 C-0.8339999914169312,1.1549999713897705 -0.781000018119812,1.0169999599456787 -0.7289999723434448,0.878000020980835 C-0.675000011920929,0.734000027179718 -0.6200000047683716,0.5889999866485596 -0.5669999718666077,0.4440000057220459 C-0.5239999890327454,0.3269999921321869 -0.48100000619888306,0.20900000631809235 -0.4399999976158142,0.09200000017881393 C-0.3499999940395355,-0.16300000250339508 -0.2680000066757202,-0.4180000126361847 -0.19699999690055847,-0.6740000247955322z M-1.024999976158142,-1.9110000133514404 C-1.0870000123977661,-1.690000057220459 -1.156000018119812,-1.4620000123977661 -1.2300000190734863,-1.2319999933242798 C-1.2569999694824219,-1.1490000486373901 -1.284999966621399,-1.065999984741211 -1.312999963760376,-0.9829999804496765 C-1.36899995803833,-0.8169999718666077 -1.4279999732971191,-0.6499999761581421 -1.4889999628067017,-0.4830000102519989 C-1.4889999628067017,-0.4819999933242798 -1.4900000095367432,-0.47999998927116394 -1.4900000095367432,-0.4790000021457672 C-1.656999945640564,-0.020999999716877937 -1.840999960899353,0.4359999895095825 -2.0320000648498535,0.8690000176429749 C-2.049999952316284,0.9110000133514404 -2.069000005722046,0.9520000219345093 -2.0869998931884766,0.9929999709129333 C-2.180999994277954,1.2029999494552612 -2.2769999504089355,1.406999945640564 -2.372999906539917,1.6019999980926514 C-2.4860000610351562,1.6549999713897705 -2.5959999561309814,1.7070000171661377 -2.7009999752044678,1.7589999437332153 C-2.7869999408721924,1.8020000457763672 -2.86899995803833,1.843999981880188 -2.9489998817443848,1.8869999647140503 C-2.9709999561309814,1.8990000486373901 -2.993000030517578,1.909999966621399 -3.0139999389648438,1.9220000505447388 C-4.184000015258789,2.553999900817871 -4.760000228881836,3.177000045776367 -4.760000228881836,3.8499999046325684 C-4.760000228881836,4.453999996185303 -4.211999893188477,5.099999904632568 -3.509999990463257,5.099999904632568 C-2.73799991607666,5.099999904632568 -2.11299991607666,4.2179999351501465 -1.6269999742507935,3.322999954223633 C-1.6169999837875366,3.305000066757202 -1.6080000400543213,3.2860000133514404 -1.5980000495910645,3.2679998874664307 C-1.562000036239624,3.2009999752044678 -1.5269999504089355,3.134000062942505 -1.4919999837875366,3.066999912261963 C-1.4270000457763672,2.941999912261963 -1.3650000095367432,2.818000078201294 -1.305999994277954,2.697999954223633 C-1.1130000352859497,2.624000072479248 -0.9160000085830688,2.549999952316284 -0.7149999737739563,2.4769999980926514 C-0.6460000276565552,2.4519999027252197 -0.574999988079071,2.427000045776367 -0.5049999952316284,2.4019999504089355 C0.03799999877810478,2.2109999656677246 0.5989999771118164,2.0369999408721924 1.1469999551773071,1.906999945640564 C1.1490000486373901,1.906000018119812 1.152999997138977,1.906000018119812 1.1549999713897705,1.9049999713897705 C1.2999999523162842,1.871000051498413 1.444000005722046,1.8389999866485596 1.5870000123977661,1.812000036239624 C1.7410000562667847,1.9420000314712524 1.8910000324249268,2.056999921798706 2.0369999408721924,2.1549999713897705 C2.049999952316284,2.1640000343322754 2.062999963760376,2.1730000972747803 2.0759999752044678,2.180999994277954 C2.515000104904175,2.4690001010894775 2.921999931335449,2.61299991607666 3.313999891281128,2.61299991607666 C4.198999881744385,2.61299991607666 4.760000228881836,1.9390000104904175 4.760000228881836,1.3489999771118164 C4.760000228881836,0.7450000047683716 4.26800012588501,0.16899999976158142 3.2009999752044678,0.16899999976158142 C3.0239999294281006,0.16899999976158142 2.8510000705718994,0.18700000643730164 2.6679999828338623,0.20999999344348907 C2.6389999389648438,0.21400000154972076 2.6089999675750732,0.21699999272823334 2.5789999961853027,0.22100000083446503 C2.556999921798706,0.2240000069141388 2.5339999198913574,0.22699999809265137 2.510999917984009,0.23000000417232513 C2.378999948501587,0.24799999594688416 2.240999937057495,0.26600000262260437 2.0920000076293945,0.2809999883174896 C1.9950000047683716,0.1770000010728836 1.8969999551773071,0.06499999761581421 1.7990000247955322,-0.050999999046325684 C1.7970000505447388,-0.05299999937415123 1.7949999570846558,-0.0560000017285347 1.7929999828338623,-0.057999998331069946 C1.4609999656677246,-0.453000009059906 1.128999948501587,-0.9100000262260437 0.8330000042915344,-1.3890000581741333 C0.8199999928474426,-1.4110000133514404 0.8069999814033508,-1.4320000410079956 0.7940000295639038,-1.4539999961853027 C0.6769999861717224,-1.6460000276565552 0.5659999847412109,-1.840999960899353 0.46299999952316284,-2.0369999408721924 C0.4909999966621399,-2.1649999618530273 0.515999972820282,-2.2860000133514404 0.5370000004768372,-2.4000000953674316 C0.5600000023841858,-2.5250000953674316 0.5789999961853027,-2.6419999599456787 0.5950000286102295,-2.753000020980835 C0.5989999771118164,-2.7820000648498535 0.6029999852180481,-2.809999942779541 0.6069999933242798,-2.8380000591278076 C0.6470000147819519,-3.1429998874664307 0.6600000262260437,-3.4000000953674316 0.6600000262260437,-3.6389999389648438 C0.6600000262260437,-4.749000072479248 0.22499999403953552,-5.099999904632568 -0.3930000066757202,-5.099999904632568 C-1.1790000200271606,-5.099999904632568 -1.5729999542236328,-4.579999923706055 -1.5729999542236328,-3.7230000495910645 C-1.5729999542236328,-3.390000104904175 -1.4930000305175781,-3.0139999389648438 -1.3350000381469727,-2.5950000286102295 C-1.312999963760376,-2.5360000133514404 -1.2890000343322754,-2.4769999980926514 -1.2640000581741333,-2.4170000553131104 C-1.2419999837875366,-2.365999937057495 -1.2200000286102295,-2.313999891281128 -1.1959999799728394,-2.260999917984009 C-1.1440000534057617,-2.1470000743865967 -1.0870000123977661,-2.0309998989105225 -1.024999976158142,-1.9110000133514404z"></path></g></g><g transform="matrix(1.0299988985061646,0,0,1.0299988985061646,423.9998474121094,347.67547607421875)" opacity="1" style="display: block;"><g opacity="1" transform="matrix(1,0,0,1,0,0)"><path fill="rgb(255,255,255)" fill-opacity="1" d=" M-219.4290008544922,213 C-219.4290008544922,213 -61.42900085449219,213.02200317382812 -61.42900085449219,213.02200317382812"></path><path stroke-linecap="round" stroke-linejoin="miter" fill-opacity="0" stroke-miterlimit="4" stroke="rgb(226,225,226)" stroke-opacity="1" stroke-width="22" d=" M-219.4290008544922,213 C-219.4290008544922,213 -61.42900085449219,213.02200317382812 -61.42900085449219,213.02200317382812"></path></g></g><g clip-path="url(#__lottie_element_1603)" transform="matrix(1.83928382396698,0,0,1.83928382396698,133.9052276611328,547.291748046875)" opacity="1" style="display: block;"><g transform="matrix(1,0,0,1,10.654999732971191,8)" opacity="1" style="display: block;"><g opacity="1" transform="matrix(0.16649000346660614,0,0,0.16649000346660614,0,0)"><path fill="rgb(243,171,71)" fill-opacity="1" d=" M24.2450008392334,-40.70000076293945 C24.2450008392334,-40.70000076293945 24.2450008392334,-38.400001525878906 24.2450008392334,-38.400001525878906 C24.2450008392334,-35.11000061035156 21.575000762939453,-32.439998626708984 18.274999618530273,-32.439998626708984 C18.274999618530273,-32.439998626708984 -52.53499984741211,-32.439998626708984 -52.53499984741211,-32.439998626708984 C-54.30500030517578,-32.439998626708984 -55.73500061035156,-31.010000228881836 -55.73500061035156,-29.239999771118164 C-55.73500061035156,-29.239999771118164 -55.73500061035156,44.04999923706055 -55.73500061035156,44.04999923706055 C-55.73500061035156,44.04999923706055 55.73500061035156,44.04999923706055 55.73500061035156,44.04999923706055 C55.73500061035156,44.04999923706055 55.73500061035156,-30.270000457763672 55.73500061035156,-30.270000457763672 C55.73500061035156,-31.469999313354492 54.76499938964844,-32.439998626708984 53.564998626708984,-32.439998626708984 C53.564998626708984,-32.439998626708984 53.564998626708984,-40.70000076293945 53.564998626708984,-40.70000076293945 C53.564998626708984,-42.54999923706055 52.064998626708984,-44.04999923706055 50.21500015258789,-44.04999923706055 C50.21500015258789,-44.04999923706055 27.594999313354492,-44.04999923706055 27.594999313354492,-44.04999923706055 C25.7450008392334,-44.04999923706055 24.2450008392334,-42.54999923706055 24.2450008392334,-40.70000076293945z"></path></g></g><g transform="matrix(1,0,0,1,10.656000137329102,5.117000102996826)" opacity="1" style="display: block;"><g opacity="1" transform="matrix(0.16649000346660614,0,0,0.16649000346660614,0,0)"><path fill="rgb(222,115,64)" fill-opacity="1" d=" M-55.7400016784668,-0.7450000047683716 C-55.7400016784668,-0.7450000047683716 -55.7400016784668,3.684999942779541 -55.7400016784668,3.684999942779541 C-55.7400016784668,3.684999942779541 55.7400016784668,3.684999942779541 55.7400016784668,3.684999942779541 C55.7400016784668,3.684999942779541 55.7400016784668,-0.7450000047683716 55.7400016784668,-0.7450000047683716 C55.7400016784668,-2.375 54.41999816894531,-3.684999942779541 52.79999923706055,-3.684999942779541 C52.79999923706055,-3.684999942779541 -52.79999923706055,-3.684999942779541 -52.79999923706055,-3.684999942779541 C-54.43000030517578,-3.684999942779541 -55.7400016784668,-2.365000009536743 -55.7400016784668,-0.7450000047683716z"></path></g></g><g transform="matrix(1,0,0,1,10.654999732971191,10.739999771118164)" opacity="1" style="display: block;"><g opacity="1" transform="matrix(0.16649000346660614,0,0,0.16649000346660614,0,0)"><path fill="rgb(255,202,40)" fill-opacity="1" d=" M14.664999961853027,-42.025001525878906 C14.664999961853027,-42.025001525878906 14.664999961853027,-39.724998474121094 14.664999961853027,-39.724998474121094 C14.664999961853027,-36.435001373291016 17.334999084472656,-33.76499938964844 20.625,-33.76499938964844 C20.625,-33.76499938964844 52.53499984741211,-33.76499938964844 52.53499984741211,-33.76499938964844 C54.30500030517578,-33.76499938964844 55.73500061035156,-32.334999084472656 55.73500061035156,-30.565000534057617 C55.73500061035156,-30.565000534057617 55.73500061035156,45.375 55.73500061035156,45.375 C55.73500061035156,45.375 -55.73500061035156,45.375 -55.73500061035156,45.375 C-55.73500061035156,45.375 -55.73500061035156,-30.565000534057617 -55.73500061035156,-30.565000534057617 C-55.73500061035156,-32.334999084472656 -54.30500030517578,-33.76499938964844 -52.53499984741211,-33.76499938964844 C-52.53499984741211,-33.76499938964844 -20.614999771118164,-33.76499938964844 -20.614999771118164,-33.76499938964844 C-17.325000762939453,-33.76499938964844 -14.654999732971191,-36.435001373291016 -14.654999732971191,-39.724998474121094 C-14.654999732971191,-39.724998474121094 -14.654999732971191,-42.025001525878906 -14.654999732971191,-42.025001525878906 C-14.654999732971191,-43.875 -13.154999732971191,-45.375 -11.305000305175781,-45.375 C-11.305000305175781,-45.375 11.3149995803833,-45.375 11.3149995803833,-45.375 C13.164999961853027,-45.375 14.664999961853027,-43.875 14.664999961853027,-42.025001525878906z"></path></g></g><g transform="matrix(1,0,0,1,10.656000137329102,7.644999980926514)" opacity="1" style="display: block;"><g opacity="1" transform="matrix(0.16649000346660614,0,0,0.16649000346660614,0,0)"><path fill="rgb(243,171,71)" fill-opacity="1" d=" M-55.7400016784668,-0.800000011920929 C-55.7400016784668,-0.800000011920929 -55.7400016784668,3.740000009536743 -55.7400016784668,3.740000009536743 C-55.7400016784668,3.740000009536743 55.7400016784668,3.630000114440918 55.7400016784668,3.630000114440918 C55.7400016784668,3.630000114440918 55.7400016784668,-0.800000011920929 55.7400016784668,-0.800000011920929 C55.7400016784668,-2.430000066757202 54.41999816894531,-3.740000009536743 52.79999923706055,-3.740000009536743 C52.79999923706055,-3.740000009536743 -52.79999923706055,-3.740000009536743 -52.79999923706055,-3.740000009536743 C-54.43000030517578,-3.740000009536743 -55.7400016784668,-2.4200000762939453 -55.7400016784668,-0.800000011920929z"></path></g></g><g transform="matrix(1,0,0,1,10.656000137329102,13.17300033569336)" opacity="1" style="display: block;"><g opacity="1" transform="matrix(0.16649000346660614,0,0,0.16649000346660614,0,0)"><path fill="rgb(255,227,108)" fill-opacity="1" d=" M-24.2450008392334,-41.52000045776367 C-24.2450008392334,-41.52000045776367 -24.2450008392334,-39.220001220703125 -24.2450008392334,-39.220001220703125 C-24.2450008392334,-35.93000030517578 -21.575000762939453,-33.2599983215332 -18.28499984741211,-33.2599983215332 C-18.28499984741211,-33.2599983215332 52.53499984741211,-33.2599983215332 52.53499984741211,-33.2599983215332 C54.30500030517578,-33.2599983215332 55.73500061035156,-31.829999923706055 55.73500061035156,-30.059999465942383 C55.73500061035156,-30.059999465942383 55.73500061035156,42.040000915527344 55.73500061035156,42.040000915527344 C55.73500061035156,43.599998474121094 54.46500015258789,44.869998931884766 52.904998779296875,44.869998931884766 C52.904998779296875,44.869998931884766 -52.904998779296875,44.869998931884766 -52.904998779296875,44.869998931884766 C-54.46500015258789,44.869998931884766 -55.73500061035156,43.599998474121094 -55.73500061035156,42.040000915527344 C-55.73500061035156,42.040000915527344 -55.73500061035156,-31.09000015258789 -55.73500061035156,-31.09000015258789 C-55.73500061035156,-32.290000915527344 -54.76499938964844,-33.2599983215332 -53.564998626708984,-33.2599983215332 C-53.564998626708984,-33.2599983215332 -53.564998626708984,-41.52000045776367 -53.564998626708984,-41.52000045776367 C-53.564998626708984,-43.369998931884766 -52.064998626708984,-44.869998931884766 -50.21500015258789,-44.869998931884766 C-50.21500015258789,-44.869998931884766 -27.594999313354492,-44.869998931884766 -27.594999313354492,-44.869998931884766 C-25.7450008392334,-44.869998931884766 -24.2450008392334,-43.369998931884766 -24.2450008392334,-41.52000045776367z"></path></g></g><g transform="matrix(1,0,0,1,4.676000118255615,6.669000148773193)" opacity="1" style="display: block;"><g opacity="1" transform="matrix(0.16649000346660614,0,0,0.16649000346660614,0,0)"><path fill="rgb(244,67,54)" fill-opacity="1" d=" M11.675000190734863,-2.4549999237060547 C11.675000190734863,-2.4549999237060547 11.675000190734863,-0.1550000011920929 11.675000190734863,-0.1550000011920929 C11.675000190734863,3.134999990463257 14.345000267028809,5.804999828338623 17.645000457763672,5.804999828338623 C17.645000457763672,5.804999828338623 -17.645000457763672,5.804999828338623 -17.645000457763672,5.804999828338623 C-17.645000457763672,5.804999828338623 -17.645000457763672,-2.4549999237060547 -17.645000457763672,-2.4549999237060547 C-17.645000457763672,-4.304999828338623 -16.145000457763672,-5.804999828338623 -14.295000076293945,-5.804999828338623 C-14.295000076293945,-5.804999828338623 8.324999809265137,-5.804999828338623 8.324999809265137,-5.804999828338623 C10.175000190734863,-5.804999828338623 11.675000190734863,-4.304999828338623 11.675000190734863,-2.4549999237060547z"></path></g></g><g transform="matrix(1,0,0,1,10.656000137329102,4.1519999504089355)" opacity="1" style="display: block;"><g opacity="1" transform="matrix(0.16649000346660614,0,0,0.16649000346660614,0,0)"><path fill="rgb(2,136,209)" fill-opacity="1" d=" M14.654999732971191,-2.4549999237060547 C14.654999732971191,-2.4549999237060547 14.654999732971191,-0.1550000011920929 14.654999732971191,-0.1550000011920929 C14.654999732971191,3.134999990463257 17.325000762939453,5.804999828338623 20.625,5.804999828338623 C20.625,5.804999828338623 -20.625,5.804999828338623 -20.625,5.804999828338623 C-17.334999084472656,5.804999828338623 -14.664999961853027,3.134999990463257 -14.664999961853027,-0.1550000011920929 C-14.664999961853027,-0.1550000011920929 -14.664999961853027,-2.4549999237060547 -14.664999961853027,-2.4549999237060547 C-14.664999961853027,-4.304999828338623 -13.164999961853027,-5.804999828338623 -11.3149995803833,-5.804999828338623 C-11.3149995803833,-5.804999828338623 11.305000305175781,-5.804999828338623 11.305000305175781,-5.804999828338623 C13.154999732971191,-5.804999828338623 14.654999732971191,-4.304999828338623 14.654999732971191,-2.4549999237060547z"></path></g></g><g transform="matrix(1,0,0,1,16.840999603271484,1.5880000591278076)" opacity="1" style="display: block;"><g opacity="1" transform="matrix(0.16649000346660614,0,0,0.16649000346660614,0,0)"><path fill="rgb(124,179,66)" fill-opacity="1" d=" M16.40999984741211,-2.184999942779541 C16.40999984741211,-2.184999942779541 16.40999984741211,5.534999847412109 16.40999984741211,5.534999847412109 C16.40999984741211,5.534999847412109 -16.40999984741211,5.534999847412109 -16.40999984741211,5.534999847412109 C-14.350000381469727,4.605000019073486 -12.90999984741211,2.5250000953674316 -12.90999984741211,0.11500000208616257 C-12.90999984741211,0.11500000208616257 -12.90999984741211,-2.184999942779541 -12.90999984741211,-2.184999942779541 C-12.90999984741211,-4.034999847412109 -11.40999984741211,-5.534999847412109 -9.5600004196167,-5.534999847412109 C-9.5600004196167,-5.534999847412109 13.0600004196167,-5.534999847412109 13.0600004196167,-5.534999847412109 C14.90999984741211,-5.534999847412109 16.40999984741211,-4.034999847412109 16.40999984741211,-2.184999942779541z"></path></g></g></g><g style="display: none;" transform="matrix(3.29599666595459,0,0,3.29599666595459,225.46261596679688,749.0975952148438)" opacity="1"><g opacity="1" transform="matrix(1,0,0,1,17,17)"><path fill="rgb(247,191,8)" fill-opacity="1" d=" M-12,-8 C-12,-10.208999633789062 -10.208999633789062,-12 -8,-12 C-8,-12 8,-12 8,-12 C10.208999633789062,-12 12,-10.208999633789062 12,-8 C12,-8 12,8 12,8 C12,10.208999633789062 10.208999633789062,12 8,12 C8,12 -8,12 -8,12 C-10.208999633789062,12 -12,10.208999633789062 -12,8 C-12,8 -12,-8 -12,-8z"></path></g><g opacity="1" transform="matrix(1,0,0,1,17,17)"><path fill="rgb(255,255,255)" fill-opacity="1" d=" M3.7330000400543213,-2.6670000553131104 C3.880000114440918,-2.6670000553131104 4,-2.546999931335449 4,-2.4000000953674316 C4,-2.4000000953674316 4,2.4000000953674316 4,2.4000000953674316 C4,2.546999931335449 3.880000114440918,2.6670000553131104 3.7330000400543213,2.6670000553131104 C3.7330000400543213,2.6670000553131104 -3.7330000400543213,2.6670000553131104 -3.7330000400543213,2.6670000553131104 C-3.880000114440918,2.6670000553131104 -4,2.546999931335449 -4,2.4000000953674316 C-4,2.4000000953674316 -4,-2.4000000953674316 -4,-2.4000000953674316 C-4,-2.546999931335449 -3.880000114440918,-2.6670000553131104 -3.7330000400543213,-2.6670000553131104 C-3.7330000400543213,-2.6670000553131104 3.7330000400543213,-2.6670000553131104 3.7330000400543213,-2.6670000553131104z M3.9730000495910645,-5.333000183105469 C3.9730000495910645,-5.333000183105469 -3.9730000495910645,-5.333000183105469 -3.9730000495910645,-5.333000183105469 C-4.760000228881836,-5.333000183105469 -5.333000183105469,-4.760000228881836 -5.333000183105469,-3.9730000495910645 C-5.333000183105469,-3.9730000495910645 -5.333000183105469,3.9730000495910645 -5.333000183105469,3.9730000495910645 C-5.333000183105469,4.760000228881836 -4.760000228881836,5.333000183105469 -3.9730000495910645,5.333000183105469 C-3.9730000495910645,5.333000183105469 3.9730000495910645,5.333000183105469 3.9730000495910645,5.333000183105469 C4.760000228881836,5.333000183105469 5.333000183105469,4.760000228881836 5.333000183105469,3.9730000495910645 C5.333000183105469,3.9730000495910645 5.333000183105469,-3.9730000495910645 5.333000183105469,-3.9730000495910645 C5.333000183105469,-4.760000228881836 4.760000228881836,-5.333000183105469 3.9730000495910645,-5.333000183105469z"></path></g></g><g style="display: none;" transform="matrix(3.29599666595459,0,0,3.29599666595459,225.8576202392578,748.519775390625)" opacity="1"><g opacity="1" transform="matrix(1,0,0,1,17,17)"><path fill="rgb(247,191,8)" fill-opacity="1" d=" M-12,-8 C-12,-10.208999633789062 -10.208999633789062,-12 -8,-12 C-8,-12 8,-12 8,-12 C10.208999633789062,-12 12,-10.208999633789062 12,-8 C12,-8 12,8 12,8 C12,10.208999633789062 10.208999633789062,12 8,12 C8,12 -8,12 -8,12 C-10.208999633789062,12 -12,10.208999633789062 -12,8 C-12,8 -12,-8 -12,-8z"></path></g><g opacity="1" transform="matrix(1,0,0,1,17,17)"><path fill="rgb(255,255,255)" fill-opacity="1" d=" M3.7330000400543213,-2.6670000553131104 C3.880000114440918,-2.6670000553131104 4,-2.546999931335449 4,-2.4000000953674316 C4,-2.4000000953674316 4,2.4000000953674316 4,2.4000000953674316 C4,2.546999931335449 3.880000114440918,2.6670000553131104 3.7330000400543213,2.6670000553131104 C3.7330000400543213,2.6670000553131104 -3.7330000400543213,2.6670000553131104 -3.7330000400543213,2.6670000553131104 C-3.880000114440918,2.6670000553131104 -4,2.546999931335449 -4,2.4000000953674316 C-4,2.4000000953674316 -4,-2.4000000953674316 -4,-2.4000000953674316 C-4,-2.546999931335449 -3.880000114440918,-2.6670000553131104 -3.7330000400543213,-2.6670000553131104 C-3.7330000400543213,-2.6670000553131104 3.7330000400543213,-2.6670000553131104 3.7330000400543213,-2.6670000553131104z M3.9730000495910645,-5.333000183105469 C3.9730000495910645,-5.333000183105469 -3.9730000495910645,-5.333000183105469 -3.9730000495910645,-5.333000183105469 C-4.760000228881836,-5.333000183105469 -5.333000183105469,-4.760000228881836 -5.333000183105469,-3.9730000495910645 C-5.333000183105469,-3.9730000495910645 -5.333000183105469,3.9730000495910645 -5.333000183105469,3.9730000495910645 C-5.333000183105469,4.760000228881836 -4.760000228881836,5.333000183105469 -3.9730000495910645,5.333000183105469 C-3.9730000495910645,5.333000183105469 3.9730000495910645,5.333000183105469 3.9730000495910645,5.333000183105469 C4.760000228881836,5.333000183105469 5.333000183105469,4.760000228881836 5.333000183105469,3.9730000495910645 C5.333000183105469,3.9730000495910645 5.333000183105469,-3.9730000495910645 5.333000183105469,-3.9730000495910645 C5.333000183105469,-4.760000228881836 4.760000228881836,-5.333000183105469 3.9730000495910645,-5.333000183105469z"></path></g></g><g style="display: none;" transform="matrix(0.208321675658226,0.15135453641414642,-0.15135453641414642,0.208321675658226,236.87454223632812,859.6316528320312)" opacity="1"><g opacity="1" transform="matrix(1,0,0,1,0,0)"><path fill="rgb(255,255,255)" fill-opacity="1" d=" M0,-140.5 C0,-140.5 -78.125,30.75 -78.125,30.75 C-78.125,30.75 0,-3.5 0,-3.5 C0,-3.5 78,30.75 78,30.75 C78,30.75 0,-140.5 0,-140.5z"></path><path stroke-linecap="round" stroke-linejoin="round" fill-opacity="0" stroke="rgb(224,30,90)" stroke-opacity="1" stroke-width="20" d=" M0,-140.5 C0,-140.5 -78.125,30.75 -78.125,30.75 C-78.125,30.75 0,-3.5 0,-3.5 C0,-3.5 78,30.75 78,30.75 C78,30.75 0,-140.5 0,-140.5z"></path></g></g><g style="display: none;" transform="matrix(0.09453845769166946,0,0,0.09453845769166946,421.0771179199219,1060.5042724609375)" opacity="1"><g opacity="1" transform="matrix(34.28572082519531,0,0,34.28572082519531,0,0)"><path fill="rgb(224,30,90)" fill-opacity="1" d=" M12,-8 C12,-8 12,8 12,8 C12,10.207599639892578 10.207599639892578,12 8,12 C8,12 -8,12 -8,12 C-10.207599639892578,12 -12,10.207599639892578 -12,8 C-12,8 -12,-8 -12,-8 C-12,-10.207599639892578 -10.207599639892578,-12 -8,-12 C-8,-12 8,-12 8,-12 C10.207599639892578,-12 12,-10.207599639892578 12,-8z"></path></g></g><g style="display: none;" transform="matrix(0.09453845769166946,0,0,0.09453845769166946,421.0445861816406,1060.5042724609375)" opacity="1"><g opacity="1" transform="matrix(34.28572082519531,0,0,34.28572082519531,0,0)"><path fill="rgb(255,255,255)" fill-opacity="1" d=" M0.3059999942779541,-3.7920000553131104 C0.3070000112056732,-3.7980000972747803 0.3070000112056732,-3.8010001182556152 0.3070000112056732,-3.8010001182556152 M3.3489999771118164,0.7409999966621399 C3.3489999771118164,0.7409999966621399 3.3510000705718994,0.7409999966621399 3.3510000705718994,0.7409999966621399 M3.318000078201294,2.052000045776367 C3.319999933242798,2.052999973297119 3.322000026702881,2.052999973297119 3.322000026702881,2.052999973297119 M3.3489999771118164,0.7409999966621399 C3.3499999046325684,0.7409999966621399 3.3510000705718994,0.7409999966621399 3.3510000705718994,0.7409999966621399 M-0.19699999690055847,-0.6740000247955322 C-0.02500000037252903,-0.4269999861717224 0.14300000667572021,-0.18700000643730164 0.3140000104904175,0.04500000178813934 C0.34299999475479126,0.08399999886751175 0.3709999918937683,0.12300000339746475 0.4000000059604645,0.16099999845027924 C0.5519999861717224,0.3630000054836273 0.7080000042915344,0.5580000281333923 0.8709999918937683,0.7450000047683716 C0.640999972820282,0.800000011920929 0.41200000047683716,0.8650000095367432 0.18299999833106995,0.9359999895095825 C0.10300000011920929,0.9610000252723694 0.023000000044703484,0.9860000014305115 -0.0560000017285347,1.0119999647140503 C-0.26600000262260437,1.0809999704360962 -0.47600001096725464,1.152999997138977 -0.6840000152587891,1.2239999771118164 C-0.7509999871253967,1.246999979019165 -0.8180000185966492,1.2699999809265137 -0.8849999904632568,1.2929999828338623 C-0.8339999914169312,1.1549999713897705 -0.781000018119812,1.0169999599456787 -0.7289999723434448,0.878000020980835 C-0.675000011920929,0.734000027179718 -0.6200000047683716,0.5889999866485596 -0.5669999718666077,0.4440000057220459 C-0.5239999890327454,0.3269999921321869 -0.48100000619888306,0.20900000631809235 -0.4399999976158142,0.09200000017881393 C-0.3499999940395355,-0.16300000250339508 -0.2680000066757202,-0.4180000126361847 -0.19699999690055847,-0.6740000247955322z M-1.024999976158142,-1.9110000133514404 C-1.0870000123977661,-1.690000057220459 -1.156000018119812,-1.4620000123977661 -1.2300000190734863,-1.2319999933242798 C-1.2569999694824219,-1.1490000486373901 -1.284999966621399,-1.065999984741211 -1.312999963760376,-0.9829999804496765 C-1.36899995803833,-0.8169999718666077 -1.4279999732971191,-0.6499999761581421 -1.4889999628067017,-0.4830000102519989 C-1.4889999628067017,-0.4819999933242798 -1.4900000095367432,-0.47999998927116394 -1.4900000095367432,-0.4790000021457672 C-1.656999945640564,-0.020999999716877937 -1.840999960899353,0.4359999895095825 -2.0320000648498535,0.8690000176429749 C-2.049999952316284,0.9110000133514404 -2.069000005722046,0.9520000219345093 -2.0869998931884766,0.9929999709129333 C-2.180999994277954,1.2029999494552612 -2.2769999504089355,1.406999945640564 -2.372999906539917,1.6019999980926514 C-2.4860000610351562,1.6549999713897705 -2.5959999561309814,1.7070000171661377 -2.7009999752044678,1.7589999437332153 C-2.7869999408721924,1.8020000457763672 -2.86899995803833,1.843999981880188 -2.9489998817443848,1.8869999647140503 C-2.9709999561309814,1.8990000486373901 -2.993000030517578,1.909999966621399 -3.0139999389648438,1.9220000505447388 C-4.184000015258789,2.553999900817871 -4.760000228881836,3.177000045776367 -4.760000228881836,3.8499999046325684 C-4.760000228881836,4.453999996185303 -4.211999893188477,5.099999904632568 -3.509999990463257,5.099999904632568 C-2.73799991607666,5.099999904632568 -2.11299991607666,4.2179999351501465 -1.6269999742507935,3.322999954223633 C-1.6169999837875366,3.305000066757202 -1.6080000400543213,3.2860000133514404 -1.5980000495910645,3.2679998874664307 C-1.562000036239624,3.2009999752044678 -1.5269999504089355,3.134000062942505 -1.4919999837875366,3.066999912261963 C-1.4270000457763672,2.941999912261963 -1.3650000095367432,2.818000078201294 -1.305999994277954,2.697999954223633 C-1.1130000352859497,2.624000072479248 -0.9160000085830688,2.549999952316284 -0.7149999737739563,2.4769999980926514 C-0.6460000276565552,2.4519999027252197 -0.574999988079071,2.427000045776367 -0.5049999952316284,2.4019999504089355 C0.03799999877810478,2.2109999656677246 0.5989999771118164,2.0369999408721924 1.1469999551773071,1.906999945640564 C1.1490000486373901,1.906000018119812 1.152999997138977,1.906000018119812 1.1549999713897705,1.9049999713897705 C1.2999999523162842,1.871000051498413 1.444000005722046,1.8389999866485596 1.5870000123977661,1.812000036239624 C1.7410000562667847,1.9420000314712524 1.8910000324249268,2.056999921798706 2.0369999408721924,2.1549999713897705 C2.049999952316284,2.1640000343322754 2.062999963760376,2.1730000972747803 2.0759999752044678,2.180999994277954 C2.515000104904175,2.4690001010894775 2.921999931335449,2.61299991607666 3.313999891281128,2.61299991607666 C4.198999881744385,2.61299991607666 4.760000228881836,1.9390000104904175 4.760000228881836,1.3489999771118164 C4.760000228881836,0.7450000047683716 4.26800012588501,0.16899999976158142 3.2009999752044678,0.16899999976158142 C3.0239999294281006,0.16899999976158142 2.8510000705718994,0.18700000643730164 2.6679999828338623,0.20999999344348907 C2.6389999389648438,0.21400000154972076 2.6089999675750732,0.21699999272823334 2.5789999961853027,0.22100000083446503 C2.556999921798706,0.2240000069141388 2.5339999198913574,0.22699999809265137 2.510999917984009,0.23000000417232513 C2.378999948501587,0.24799999594688416 2.240999937057495,0.26600000262260437 2.0920000076293945,0.2809999883174896 C1.9950000047683716,0.1770000010728836 1.8969999551773071,0.06499999761581421 1.7990000247955322,-0.050999999046325684 C1.7970000505447388,-0.05299999937415123 1.7949999570846558,-0.0560000017285347 1.7929999828338623,-0.057999998331069946 C1.4609999656677246,-0.453000009059906 1.128999948501587,-0.9100000262260437 0.8330000042915344,-1.3890000581741333 C0.8199999928474426,-1.4110000133514404 0.8069999814033508,-1.4320000410079956 0.7940000295639038,-1.4539999961853027 C0.6769999861717224,-1.6460000276565552 0.5659999847412109,-1.840999960899353 0.46299999952316284,-2.0369999408721924 C0.4909999966621399,-2.1649999618530273 0.515999972820282,-2.2860000133514404 0.5370000004768372,-2.4000000953674316 C0.5600000023841858,-2.5250000953674316 0.5789999961853027,-2.6419999599456787 0.5950000286102295,-2.753000020980835 C0.5989999771118164,-2.7820000648498535 0.6029999852180481,-2.809999942779541 0.6069999933242798,-2.8380000591278076 C0.6470000147819519,-3.1429998874664307 0.6600000262260437,-3.4000000953674316 0.6600000262260437,-3.6389999389648438 C0.6600000262260437,-4.749000072479248 0.22499999403953552,-5.099999904632568 -0.3930000066757202,-5.099999904632568 C-1.1790000200271606,-5.099999904632568 -1.5729999542236328,-4.579999923706055 -1.5729999542236328,-3.7230000495910645 C-1.5729999542236328,-3.390000104904175 -1.4930000305175781,-3.0139999389648438 -1.3350000381469727,-2.5950000286102295 C-1.312999963760376,-2.5360000133514404 -1.2890000343322754,-2.4769999980926514 -1.2640000581741333,-2.4170000553131104 C-1.2419999837875366,-2.365999937057495 -1.2200000286102295,-2.313999891281128 -1.1959999799728394,-2.260999917984009 C-1.1440000534057617,-2.1470000743865967 -1.0870000123977661,-2.0309998989105225 -1.024999976158142,-1.9110000133514404z"></path></g></g><g style="display: none;" transform="matrix(0.09453918784856796,0,0,0.09453918784856796,677.9212036132812,763.18994140625)" opacity="1"><g opacity="1" transform="matrix(34.28572082519531,0,0,34.28572082519531,0,0)"><path fill="rgb(224,30,90)" fill-opacity="1" d=" M12,-8 C12,-8 12,8 12,8 C12,10.207599639892578 10.207599639892578,12 8,12 C8,12 -8,12 -8,12 C-10.207599639892578,12 -12,10.207599639892578 -12,8 C-12,8 -12,-8 -12,-8 C-12,-10.207599639892578 -10.207599639892578,-12 -8,-12 C-8,-12 8,-12 8,-12 C10.207599639892578,-12 12,-10.207599639892578 12,-8z"></path></g></g><g style="display: none;" transform="matrix(0.09453918784856796,0,0,0.09453918784856796,677.8887329101562,763.18994140625)" opacity="1"><g opacity="1" transform="matrix(34.28572082519531,0,0,34.28572082519531,0,0)"><path fill="rgb(255,255,255)" fill-opacity="1" d=" M0.3059999942779541,-3.7920000553131104 C0.3070000112056732,-3.7980000972747803 0.3070000112056732,-3.8010001182556152 0.3070000112056732,-3.8010001182556152 M3.3489999771118164,0.7409999966621399 C3.3489999771118164,0.7409999966621399 3.3510000705718994,0.7409999966621399 3.3510000705718994,0.7409999966621399 M3.318000078201294,2.052000045776367 C3.319999933242798,2.052999973297119 3.322000026702881,2.052999973297119 3.322000026702881,2.052999973297119 M3.3489999771118164,0.7409999966621399 C3.3499999046325684,0.7409999966621399 3.3510000705718994,0.7409999966621399 3.3510000705718994,0.7409999966621399 M-0.19699999690055847,-0.6740000247955322 C-0.02500000037252903,-0.4269999861717224 0.14300000667572021,-0.18700000643730164 0.3140000104904175,0.04500000178813934 C0.34299999475479126,0.08399999886751175 0.3709999918937683,0.12300000339746475 0.4000000059604645,0.16099999845027924 C0.5519999861717224,0.3630000054836273 0.7080000042915344,0.5580000281333923 0.8709999918937683,0.7450000047683716 C0.640999972820282,0.800000011920929 0.41200000047683716,0.8650000095367432 0.18299999833106995,0.9359999895095825 C0.10300000011920929,0.9610000252723694 0.023000000044703484,0.9860000014305115 -0.0560000017285347,1.0119999647140503 C-0.26600000262260437,1.0809999704360962 -0.47600001096725464,1.152999997138977 -0.6840000152587891,1.2239999771118164 C-0.7509999871253967,1.246999979019165 -0.8180000185966492,1.2699999809265137 -0.8849999904632568,1.2929999828338623 C-0.8339999914169312,1.1549999713897705 -0.781000018119812,1.0169999599456787 -0.7289999723434448,0.878000020980835 C-0.675000011920929,0.734000027179718 -0.6200000047683716,0.5889999866485596 -0.5669999718666077,0.4440000057220459 C-0.5239999890327454,0.3269999921321869 -0.48100000619888306,0.20900000631809235 -0.4399999976158142,0.09200000017881393 C-0.3499999940395355,-0.16300000250339508 -0.2680000066757202,-0.4180000126361847 -0.19699999690055847,-0.6740000247955322z M-1.024999976158142,-1.9110000133514404 C-1.0870000123977661,-1.690000057220459 -1.156000018119812,-1.4620000123977661 -1.2300000190734863,-1.2319999933242798 C-1.2569999694824219,-1.1490000486373901 -1.284999966621399,-1.065999984741211 -1.312999963760376,-0.9829999804496765 C-1.36899995803833,-0.8169999718666077 -1.4279999732971191,-0.6499999761581421 -1.4889999628067017,-0.4830000102519989 C-1.4889999628067017,-0.4819999933242798 -1.4900000095367432,-0.47999998927116394 -1.4900000095367432,-0.4790000021457672 C-1.656999945640564,-0.020999999716877937 -1.840999960899353,0.4359999895095825 -2.0320000648498535,0.8690000176429749 C-2.049999952316284,0.9110000133514404 -2.069000005722046,0.9520000219345093 -2.0869998931884766,0.9929999709129333 C-2.180999994277954,1.2029999494552612 -2.2769999504089355,1.406999945640564 -2.372999906539917,1.6019999980926514 C-2.4860000610351562,1.6549999713897705 -2.5959999561309814,1.7070000171661377 -2.7009999752044678,1.7589999437332153 C-2.7869999408721924,1.8020000457763672 -2.86899995803833,1.843999981880188 -2.9489998817443848,1.8869999647140503 C-2.9709999561309814,1.8990000486373901 -2.993000030517578,1.909999966621399 -3.0139999389648438,1.9220000505447388 C-4.184000015258789,2.553999900817871 -4.760000228881836,3.177000045776367 -4.760000228881836,3.8499999046325684 C-4.760000228881836,4.453999996185303 -4.211999893188477,5.099999904632568 -3.509999990463257,5.099999904632568 C-2.73799991607666,5.099999904632568 -2.11299991607666,4.2179999351501465 -1.6269999742507935,3.322999954223633 C-1.6169999837875366,3.305000066757202 -1.6080000400543213,3.2860000133514404 -1.5980000495910645,3.2679998874664307 C-1.562000036239624,3.2009999752044678 -1.5269999504089355,3.134000062942505 -1.4919999837875366,3.066999912261963 C-1.4270000457763672,2.941999912261963 -1.3650000095367432,2.818000078201294 -1.305999994277954,2.697999954223633 C-1.1130000352859497,2.624000072479248 -0.9160000085830688,2.549999952316284 -0.7149999737739563,2.4769999980926514 C-0.6460000276565552,2.4519999027252197 -0.574999988079071,2.427000045776367 -0.5049999952316284,2.4019999504089355 C0.03799999877810478,2.2109999656677246 0.5989999771118164,2.0369999408721924 1.1469999551773071,1.906999945640564 C1.1490000486373901,1.906000018119812 1.152999997138977,1.906000018119812 1.1549999713897705,1.9049999713897705 C1.2999999523162842,1.871000051498413 1.444000005722046,1.8389999866485596 1.5870000123977661,1.812000036239624 C1.7410000562667847,1.9420000314712524 1.8910000324249268,2.056999921798706 2.0369999408721924,2.1549999713897705 C2.049999952316284,2.1640000343322754 2.062999963760376,2.1730000972747803 2.0759999752044678,2.180999994277954 C2.515000104904175,2.4690001010894775 2.921999931335449,2.61299991607666 3.313999891281128,2.61299991607666 C4.198999881744385,2.61299991607666 4.760000228881836,1.9390000104904175 4.760000228881836,1.3489999771118164 C4.760000228881836,0.7450000047683716 4.26800012588501,0.16899999976158142 3.2009999752044678,0.16899999976158142 C3.0239999294281006,0.16899999976158142 2.8510000705718994,0.18700000643730164 2.6679999828338623,0.20999999344348907 C2.6389999389648438,0.21400000154972076 2.6089999675750732,0.21699999272823334 2.5789999961853027,0.22100000083446503 C2.556999921798706,0.2240000069141388 2.5339999198913574,0.22699999809265137 2.510999917984009,0.23000000417232513 C2.378999948501587,0.24799999594688416 2.240999937057495,0.26600000262260437 2.0920000076293945,0.2809999883174896 C1.9950000047683716,0.1770000010728836 1.8969999551773071,0.06499999761581421 1.7990000247955322,-0.050999999046325684 C1.7970000505447388,-0.05299999937415123 1.7949999570846558,-0.0560000017285347 1.7929999828338623,-0.057999998331069946 C1.4609999656677246,-0.453000009059906 1.128999948501587,-0.9100000262260437 0.8330000042915344,-1.3890000581741333 C0.8199999928474426,-1.4110000133514404 0.8069999814033508,-1.4320000410079956 0.7940000295639038,-1.4539999961853027 C0.6769999861717224,-1.6460000276565552 0.5659999847412109,-1.840999960899353 0.46299999952316284,-2.0369999408721924 C0.4909999966621399,-2.1649999618530273 0.515999972820282,-2.2860000133514404 0.5370000004768372,-2.4000000953674316 C0.5600000023841858,-2.5250000953674316 0.5789999961853027,-2.6419999599456787 0.5950000286102295,-2.753000020980835 C0.5989999771118164,-2.7820000648498535 0.6029999852180481,-2.809999942779541 0.6069999933242798,-2.8380000591278076 C0.6470000147819519,-3.1429998874664307 0.6600000262260437,-3.4000000953674316 0.6600000262260437,-3.6389999389648438 C0.6600000262260437,-4.749000072479248 0.22499999403953552,-5.099999904632568 -0.3930000066757202,-5.099999904632568 C-1.1790000200271606,-5.099999904632568 -1.5729999542236328,-4.579999923706055 -1.5729999542236328,-3.7230000495910645 C-1.5729999542236328,-3.390000104904175 -1.4930000305175781,-3.0139999389648438 -1.3350000381469727,-2.5950000286102295 C-1.312999963760376,-2.5360000133514404 -1.2890000343322754,-2.4769999980926514 -1.2640000581741333,-2.4170000553131104 C-1.2419999837875366,-2.365999937057495 -1.2200000286102295,-2.313999891281128 -1.1959999799728394,-2.260999917984009 C-1.1440000534057617,-2.1470000743865967 -1.0870000123977661,-2.0309998989105225 -1.024999976158142,-1.9110000133514404z"></path></g></g><g style="display: none;" transform="matrix(0.2001148909330368,0.16204984486103058,-0.16204984486103058,0.2001148909330368,374.4049072265625,1111.54052734375)" opacity="1"><g opacity="1" transform="matrix(1,0,0,1,0,0)"><path fill="rgb(255,255,255)" fill-opacity="1" d=" M0,-140.5 C0,-140.5 -78.125,30.75 -78.125,30.75 C-78.125,30.75 0,-3.5 0,-3.5 C0,-3.5 78,30.75 78,30.75 C78,30.75 0,-140.5 0,-140.5z"></path><path stroke-linecap="round" stroke-linejoin="round" fill-opacity="0" stroke="rgb(46,182,125)" stroke-opacity="1" stroke-width="20" d=" M0,-140.5 C0,-140.5 -78.125,30.75 -78.125,30.75 C-78.125,30.75 0,-3.5 0,-3.5 C0,-3.5 78,30.75 78,30.75 C78,30.75 0,-140.5 0,-140.5z"></path></g></g><g transform="matrix(1.0299988985061646,0,0,1.0299988985061646,313.64251708984375,478.7467956542969)" opacity="1" style="display: block;"><g opacity="1" transform="matrix(1,0,0,1,0,0)"><path fill="rgb(255,255,255)" fill-opacity="1" d=" M-164.14300537109375,22.715999603271484 C-164.14300537109375,22.715999603271484 -31.85700035095215,23.062000274658203 -31.85700035095215,23.062000274658203"></path><path stroke-linecap="round" stroke-linejoin="miter" fill-opacity="0" stroke-miterlimit="4" stroke="rgb(189,189,189)" stroke-opacity="1" stroke-width="22" d=" M-164.14300537109375,22.715999603271484 C-164.14300537109375,22.715999603271484 -31.85700035095215,23.062000274658203 -31.85700035095215,23.062000274658203"></path></g></g><g transform="matrix(1.0299988985061646,0,0,1.0299988985061646,313.64251708984375,480.2766418457031)" opacity="1" style="display: block;"><g opacity="1" transform="matrix(1,0,0,1,0,0)"><path fill="rgb(255,255,255)" fill-opacity="1" d="M0 0"></path><path stroke-linecap="round" stroke-linejoin="miter" fill-opacity="0" stroke-miterlimit="4" stroke="rgb(226,225,226)" stroke-opacity="1" stroke-width="22" d="M0 0"></path></g></g><g transform="matrix(1.0299988985061646,0,0,1.0299988985061646,313.6422424316406,484.74639892578125)" opacity="1" style="display: block;"><g opacity="1" transform="matrix(1,0,0,1,0,0)"><path fill="rgb(255,255,255)" fill-opacity="1" d="M0 0"></path><path stroke-linecap="round" stroke-linejoin="miter" fill-opacity="0" stroke-miterlimit="4" stroke="rgb(226,225,226)" stroke-opacity="1" stroke-width="22" d="M0 0"></path></g></g><g transform="matrix(1.0299999713897705,0,0,1.0299999713897705,424,544.4860229492188)" opacity="1" style="display: block;"><g opacity="1" transform="matrix(1,0,0,1,0,0)"><path fill="rgb(130,148,53)" fill-opacity="1" d=" M-354.5,-139 C-354.5,-139 354.5,-139 354.5,-139"></path><path stroke-linecap="butt" stroke-linejoin="miter" fill-opacity="0" stroke-miterlimit="4" stroke="rgb(226,225,226)" stroke-opacity="1" stroke-width="2" d=" M-354.5,-139 C-354.5,-139 354.5,-139 354.5,-139"></path></g></g><g transform="matrix(1.0299999713897705,0,0,1.0299999713897705,424,438.28399658203125)" opacity="1" style="display: block;"><g opacity="1" transform="matrix(1,0,0,1,0,0)"><path fill="rgb(255,255,255)" fill-opacity="1" d=" M-304.8659973144531,-87.31700134277344 C-304.8659973144531,-87.31700134277344 -126.61599731445312,-87.5270004272461 -126.61599731445312,-87.5270004272461"></path><path stroke-linecap="round" stroke-linejoin="miter" fill-opacity="0" stroke-miterlimit="4" stroke="rgb(226,225,226)" stroke-opacity="1" stroke-width="33" d=" M-304.8659973144531,-87.31700134277344 C-304.8659973144531,-87.31700134277344 -126.61599731445312,-87.5270004272461 -126.61599731445312,-87.5270004272461"></path></g></g><g style="display: none;"><g><path></path><path stroke-linecap="round" stroke-linejoin="miter" fill-opacity="0" stroke-miterlimit="4"></path></g></g><g style="display: none;"><g><path></path><path stroke-linecap="round" stroke-linejoin="miter" fill-opacity="0" stroke-miterlimit="4"></path></g></g><g style="display: none;"><g><path></path><path stroke-linecap="round" stroke-linejoin="miter" fill-opacity="0" stroke-miterlimit="4"></path></g></g><g style="display: none;"><g><path></path><path stroke-linecap="round" stroke-linejoin="miter" fill-opacity="0" stroke-miterlimit="4"></path></g></g><g style="display: none;"><g><path></path><path stroke-linecap="round" stroke-linejoin="miter" fill-opacity="0" stroke-miterlimit="4"></path></g></g><g style="display: none;"><g><path></path><path stroke-linecap="round" stroke-linejoin="miter" fill-opacity="0" stroke-miterlimit="4"></path></g></g><g style="display: none;"><g><path stroke-linecap="butt" stroke-linejoin="miter" fill-opacity="0" stroke-miterlimit="4"></path></g><g><path stroke-linecap="butt" stroke-linejoin="miter" fill-opacity="0" stroke-miterlimit="4"></path></g><g><path stroke-linecap="butt" stroke-linejoin="miter" fill-opacity="0" stroke-miterlimit="4"></path></g><g><path stroke-linecap="butt" stroke-linejoin="miter" fill-opacity="0" stroke-miterlimit="4"></path></g></g><g style="display: none;" transform="matrix(0.16551780700683594,-0.1972564309835434,0.1972564309835434,0.16551780700683594,895.2482299804688,1185.326904296875)" opacity="1"><g opacity="1" transform="matrix(1,0,0,1,0,0)"><path fill="rgb(255,255,255)" fill-opacity="1" d=" M0,-140.5 C0,-140.5 -78.125,30.75 -78.125,30.75 C-78.125,30.75 0,-3.5 0,-3.5 C0,-3.5 78,30.75 78,30.75 C78,30.75 0,-140.5 0,-140.5z"></path><path stroke-linecap="round" stroke-linejoin="round" fill-opacity="0" stroke="rgb(46,182,125)" stroke-opacity="1" stroke-width="20" d=" M0,-140.5 C0,-140.5 -78.125,30.75 -78.125,30.75 C-78.125,30.75 0,-3.5 0,-3.5 C0,-3.5 78,30.75 78,30.75 C78,30.75 0,-140.5 0,-140.5z"></path></g></g><g style="display: none;" transform="matrix(0.2215125411748886,0.2825466990470886,-0.2825466990470886,0.2215125411748886,71.04209899902344,1285.146728515625)" opacity="1"><g opacity="1" transform="matrix(1,0,0,1,0,0)"><path fill="rgb(255,255,255)" fill-opacity="1" d=" M0,-140.5 C0,-140.5 -78.125,30.75 -78.125,30.75 C-78.125,30.75 0,-3.5 0,-3.5 C0,-3.5 78,30.75 78,30.75 C78,30.75 0,-140.5 0,-140.5z"></path><path stroke-linecap="round" stroke-linejoin="round" fill-opacity="0" stroke="rgb(54,197,240)" stroke-opacity="1" stroke-width="20" d=" M0,-140.5 C0,-140.5 -78.125,30.75 -78.125,30.75 C-78.125,30.75 0,-3.5 0,-3.5 C0,-3.5 78,30.75 78,30.75 C78,30.75 0,-140.5 0,-140.5z"></path></g></g><g transform="matrix(1.0299999713897705,0,0,1.0299999713897705,423.411865234375,227.92169189453125)" opacity="1" style="display: block;"><g opacity="1" transform="matrix(1,0,0,1,0,0)"><path fill="rgb(255,255,255)" fill-opacity="1" d=" M-219.4290008544922,213 C-219.4290008544922,213 -104.28600311279297,213.02200317382812 -104.28600311279297,213.02200317382812"></path><path stroke-linecap="round" stroke-linejoin="miter" fill-opacity="0" stroke-miterlimit="4" stroke="rgb(226,225,226)" stroke-opacity="1" stroke-width="22" d=" M-219.4290008544922,213 C-219.4290008544922,213 -104.28600311279297,213.02200317382812 -104.28600311279297,213.02200317382812"></path></g></g><g transform="matrix(0.29440489411354065,0,0,0.29440489411354065,135.50511169433594,424.4991149902344)" opacity="1" style="display: block;"><g opacity="1" transform="matrix(1,0,0,1,88.71099853515625,75.30000305175781)"><path fill="rgb(23,153,242)" fill-opacity="1" d=" M30.850000381469727,28.600000381469727 C28.75,27.799999237060547 26.450000762939453,27.200000762939453 24.049999237060547,26.700000762939453 C20.450000762939453,25.899999618530273 16.549999237060547,25.399999618530273 12.649999618530273,25.100000381469727 C12.649999618530273,25.100000381469727 12.550000190734863,25.200000762939453 12.550000190734863,25.200000762939453 C12.550000190734863,25.200000762939453 12.550000190734863,24.299999237060547 12.550000190734863,24.299999237060547 C16.549999237060547,23.100000381469727 20.350000381469727,20.899999618530273 23.450000762939453,17.799999237060547 C26.25,15 28.549999237060547,11.399999618530273 30.049999237060547,7 C30.450000762939453,6.900000095367432 30.75,6.599999904632568 31.049999237060547,6.300000190734863 C33.849998474121094,3.5 35.349998474121094,-5.599999904632568 34.45000076293945,-6.900000095367432 C34.849998474121094,-9.399999618530273 36.25,-20.799999237060547 32.45000076293945,-31 C32.349998474121094,-31.200000762939453 32.25,-31.5 32.150001525878906,-31.700000762939453 C31.950000762939453,-32.20000076293945 31.75,-32.599998474121094 31.549999237060547,-33.099998474121094 C31.049999237060547,-34.20000076293945 30.450000762939453,-35.29999923706055 29.850000381469727,-36.400001525878906 C29.75,-36.599998474121094 29.549999237060547,-36.79999923706055 29.450000762939453,-37.099998474121094 C28.850000381469727,-37.900001525878906 28.25,-38.79999923706055 27.649999618530273,-39.5 C27.350000381469727,-39.900001525878906 26.950000762939453,-40.29999923706055 26.649999618530273,-40.70000076293945 C22.15999984741211,-45.38999938964844 15.369999885559082,-48.689998626708984 5.199999809265137,-48.70000076293945 C-4.960000038146973,-48.689998626708984 -9.760000228881836,-45.38999938964844 -14.25,-40.70000076293945 C-14.550000190734863,-40.29999923706055 -14.949999809265137,-39.900001525878906 -15.25,-39.5 C-15.850000381469727,-38.79999923706055 -16.450000762939453,-37.900001525878906 -17.049999237060547,-37.099998474121094 C-17.149999618530273,-36.79999923706055 -17.350000381469727,-36.599998474121094 -17.450000762939453,-36.400001525878906 C-18.049999237060547,-35.29999923706055 -18.649999618530273,-34.20000076293945 -19.149999618530273,-33.099998474121094 C-19.350000381469727,-32.599998474121094 -19.549999237060547,-32.20000076293945 -19.75,-31.700000762939453 C-19.850000381469727,-31.5 -19.950000762939453,-31.200000762939453 -20.049999237060547,-31 C-23.850000381469727,-20.799999237060547 -22.450000762939453,-9.399999618530273 -22.049999237060547,-6.900000095367432 C-22.950000762939453,-5.599999904632568 -21.450000762939453,3.5 -18.649999618530273,6.300000190734863 C-18.350000381469727,6.599999904632568 -18.049999237060547,6.900000095367432 -17.649999618530273,7 C-16.149999618530273,11.399999618530273 -13.850000381469727,15 -11.050000190734863,17.799999237060547 C-7.949999809265137,20.899999618530273 -6.150000095367432,23.100000381469727 -2.1500000953674316,24.299999237060547 C-2.1500000953674316,24.299999237060547 -2.1500000953674316,25.200000762939453 -2.1500000953674316,25.200000762939453 C-10.75,25.889999389648438 -18.860000610351562,27.790000915527344 -25.030000686645508,30.889999389648438 C-27.760000228881836,32.2599983215332 -30.110000610351562,33.86000061035156 -31.950000762939453,35.70000076293945 C-34.650001525878906,38.400001525878906 -36.25,41.599998474121094 -36.25,45.400001525878906 C-36.25,45.400001525878906 -36.25,48.70000076293945 -36.25,48.70000076293945 C-36.25,48.70000076293945 -14.489999771118164,48.70000076293945 -14.489999771118164,48.70000076293945 C-14.489999771118164,48.70000076293945 35.56999969482422,48.70000076293945 35.56999969482422,48.70000076293945 C35.56999969482422,48.70000076293945 35.56999969482422,30.610000610351562 35.56999969482422,30.610000610351562 C34.09000015258789,29.8700008392334 32.5099983215332,29.200000762939453 30.850000381469727,28.600000381469727z"></path></g><g opacity="1" transform="matrix(1,0,0,1,38.96500015258789,75.30000305175781)"><path fill="rgb(26,117,209)" fill-opacity="1" d=" M24.704999923706055,30.889999389648438 C23.084999084472656,30.040000915527344 21.325000762939453,29.270000457763672 19.44499969482422,28.600000381469727 C17.344999313354492,27.799999237060547 15.045000076293945,27.200000762939453 12.645000457763672,26.700000762939453 C9.045000076293945,25.899999618530273 5.144999980926514,25.399999618530273 1.2450000047683716,25.100000381469727 C1.2450000047683716,25.100000381469727 1.1449999809265137,25.200000762939453 1.1449999809265137,25.200000762939453 C1.1449999809265137,25.200000762939453 1.1449999809265137,24.299999237060547 1.1449999809265137,24.299999237060547 C5.144999980926514,23.100000381469727 8.944999694824219,20.899999618530273 12.045000076293945,17.799999237060547 C14.845000267028809,15 17.145000457763672,11.399999618530273 18.645000457763672,7 C19.045000076293945,6.900000095367432 19.344999313354492,6.599999904632568 19.645000457763672,6.300000190734863 C22.44499969482422,3.5 23.94499969482422,-5.599999904632568 23.045000076293945,-6.900000095367432 C23.44499969482422,-9.399999618530273 24.844999313354492,-20.799999237060547 21.045000076293945,-31 C20.94499969482422,-31.200000762939453 20.844999313354492,-31.5 20.7450008392334,-31.700000762939453 C20.545000076293945,-32.20000076293945 20.344999313354492,-32.599998474121094 20.145000457763672,-33.099998474121094 C19.645000457763672,-34.20000076293945 19.045000076293945,-35.29999923706055 18.44499969482422,-36.400001525878906 C18.344999313354492,-36.599998474121094 18.145000457763672,-36.79999923706055 18.045000076293945,-37.099998474121094 C17.44499969482422,-37.900001525878906 16.844999313354492,-38.79999923706055 16.2450008392334,-39.5 C15.944999694824219,-39.900001525878906 15.545000076293945,-40.29999923706055 15.244999885559082,-40.70000076293945 C10.755000114440918,-45.38999938964844 3.9649999141693115,-48.689998626708984 -6.204999923706055,-48.70000076293945 C-16.364999771118164,-48.689998626708984 -21.165000915527344,-45.38999938964844 -25.655000686645508,-40.70000076293945 C-25.954999923706055,-40.29999923706055 -26.354999542236328,-39.900001525878906 -26.655000686645508,-39.5 C-27.2549991607666,-38.79999923706055 -27.854999542236328,-37.900001525878906 -28.454999923706055,-37.099998474121094 C-28.55500030517578,-36.79999923706055 -28.7549991607666,-36.599998474121094 -28.854999542236328,-36.400001525878906 C-29.454999923706055,-35.29999923706055 -30.05500030517578,-34.20000076293945 -30.55500030517578,-33.099998474121094 C-30.7549991607666,-32.599998474121094 -30.954999923706055,-32.20000076293945 -31.155000686645508,-31.700000762939453 C-31.2549991607666,-31.5 -31.354999542236328,-31.200000762939453 -31.454999923706055,-31 C-35.255001068115234,-20.799999237060547 -33.85499954223633,-9.399999618530273 -33.45500183105469,-6.900000095367432 C-34.35499954223633,-5.599999904632568 -32.85499954223633,3.5 -30.05500030517578,6.300000190734863 C-29.7549991607666,6.599999904632568 -29.454999923706055,6.900000095367432 -29.05500030517578,7 C-27.55500030517578,11.399999618530273 -25.2549991607666,15 -22.454999923706055,17.799999237060547 C-19.354999542236328,20.899999618530273 -17.55500030517578,23.100000381469727 -13.555000305175781,24.299999237060547 C-13.555000305175781,24.299999237060547 -13.555000305175781,25.200000762939453 -13.555000305175781,25.200000762939453 C-21.44499969482422,25.84000015258789 -28.934999465942383,27.489999771118164 -34.875,30.149999618530273 C-34.875,30.149999618530273 -34.875,48.70000076293945 -34.875,48.70000076293945 C-34.875,48.70000076293945 13.484999656677246,48.70000076293945 13.484999656677246,48.70000076293945 C13.484999656677246,48.70000076293945 35.244998931884766,48.70000076293945 35.244998931884766,48.70000076293945 C35.244998931884766,48.70000076293945 35.244998931884766,45.400001525878906 35.244998931884766,45.400001525878906 C35.255001068115234,38.95000076293945 31.05500030517578,34.220001220703125 24.704999923706055,30.889999389648438z"></path></g></g></g></svg>