<svg xmlns="http://www.w3.org/2000/svg" width="20" height="20" fill="#000000" viewBox="0 0 20 20"><path d="M13 1.5C13.3576 1.5 13.6654 1.75279 13.7354 2.10352L14.3281 5.07227L14.3311 5.09082C14.674 7.0628 16.3767 8.72377 18.4014 9.26367L18.4434 9.27539C18.7716 9.36298 19 9.66025 19 10C19 10.3397 18.7716 10.637 18.4434 10.7246L18.4014 10.7363C16.3767 11.2762 14.674 12.9372 14.3311 14.9092C14.33 14.9152 14.3293 14.9217 14.3281 14.9277L13.7354 17.8965C13.6654 18.2472 13.3576 18.5 13 18.5C12.6424 18.5 12.3346 18.2472 12.2646 17.8965L11.6719 14.9277C11.6707 14.9217 11.67 14.9152 11.6689 14.9092C11.326 12.9372 9.62327 11.2762 7.59863 10.7363L7.55664 10.7246C7.22839 10.637 7 10.3397 7 10C7 9.66025 7.22839 9.36298 7.55664 9.27539L7.59863 9.26367C9.62327 8.72377 11.326 7.0628 11.6689 5.09082L11.6719 5.07227L12.2646 2.10352L12.3018 1.97656C12.4125 1.69334 12.6871 1.5 13 1.5ZM6.5 13C6.71522 13 6.90655 13.1376 6.97461 13.3418L7.2373 14.1309C7.33688 14.4291 7.57092 14.6631 7.86914 14.7627L8.6582 15.0254C8.86237 15.0934 9 15.2848 9 15.5C9 15.7152 8.86237 15.9066 8.6582 15.9746L7.86914 16.2373C7.57092 16.3369 7.33688 16.5709 7.2373 16.8691L6.97461 17.6582C6.90655 17.8624 6.71522 18 6.5 18C6.28478 18 6.09345 17.8624 6.02539 17.6582L5.7627 16.8691C5.66312 16.5709 5.42908 16.3369 5.13086 16.2373L4.3418 15.9746C4.13763 15.9066 4 15.7152 4 15.5C4 15.2848 4.13763 15.0934 4.3418 15.0254L5.13086 14.7627C5.42908 14.6631 5.66312 14.4291 5.7627 14.1309L6.02539 13.3418C6.09345 13.1376 6.28478 13 6.5 13ZM13 5.97656C12.5034 7.6988 11.2579 9.12471 9.7168 10C11.2576 10.8751 12.5032 12.3006 13 14.0225C13.4967 12.3009 14.7418 10.8752 16.2822 10C14.7415 9.12467 13.4965 7.69853 13 5.97656ZM4 3C4.21522 3 4.40655 3.13763 4.47461 3.3418L4.7373 4.13086C4.83688 4.42908 5.07092 4.66312 5.36914 4.7627L6.1582 5.02539C6.36237 5.09345 6.5 5.28478 6.5 5.5C6.5 5.71522 6.36237 5.90655 6.1582 5.97461L5.36914 6.2373C5.07092 6.33688 4.83688 6.57092 4.7373 6.86914L4.47461 7.6582C4.40655 7.86237 4.21522 8 4 8C3.78478 8 3.59345 7.86237 3.52539 7.6582L3.2627 6.86914C3.16312 6.57092 2.92908 6.33688 2.63086 6.2373L1.8418 5.97461C1.63763 5.90655 1.5 5.71522 1.5 5.5C1.5 5.28478 1.63763 5.09345 1.8418 5.02539L2.63086 4.7627C2.92908 4.66312 3.16312 4.42908 3.2627 4.13086L3.52539 3.3418C3.59345 3.13763 3.78478 3 4 3Z" fill="#000000"></path></svg>