<svg fill="none" height="22" viewBox="0 0 23 22" width="23" xmlns="http://www.w3.org/2000/svg"><path d="m12.4332 22.0009c-5.97347 0-10.78822-4.8716-10.56032-10.7939.20543-5.38275 4.67031-9.77162 10.14632-9.97671 6.0248-.22401 10.9808 4.50877 10.9808 10.38061v10.39z" fill="#1d1c1d"/><path d="m10.5681 20.7782c-5.97348 0-10.788228-4.8716-10.56032984-10.79386.20542884-5.38275 4.67030984-9.771615 10.14632984-9.97670213 6.0248-.22401787 10.9808 4.50876213 10.9808 10.38056213v10.39z" fill="#f2606a"/><path d="m15.7195 12.9771-.9758-1.0444c.2279-3.38235-1.3353-4.69491-1.9805-5.08931.0032-.04732.0161-.09465.0161-.14514 0-1.09485-.902-1.98145-2.0158-1.98145-1.11382 0-2.01578.8866-2.01578 1.98145 0 .05049.00963.09466.01605.14514-.64518.3944-2.21157 1.70696-1.98047 5.08931l-.97579 1.0444c-.45258.4827-.10271 1.2652.56494 1.2652h2.62564c.08024.8961.83776 1.5997 1.76861 1.5997.9309 0 1.6884-.7036 1.7686-1.5997h2.6257c.6612 0 1.0079-.7825.5585-1.2652z" fill="#fff"/></svg>