<svg fill="none" height="22" viewBox="0 0 28 22" width="28" xmlns="http://www.w3.org/2000/svg"><path d="m26.4746 14.7699c-1.023 6.1283-11.4651 5.2766-17.55692 4.1159-6.09181-1.1606-7.35287-5.0334-6.58976-9.60486.76311-4.57149 6.32037-7.33607 12.41218-6.17541 6.0918 1.16066 12.4976 7.09297 11.7345 11.66437z" fill="#1c1b1d"/><path d="m23.8876 11.4724c0 3.9974-5.3468 7.2395-11.9438 7.2395-6.59698 0-11.9438-3.2401-11.9438-7.2395v-4.23217h23.8858v4.23217z" fill="#1264a3"/><path d="m11.9438 14.479c6.5964 0 11.9438-3.2412 11.9438-7.23949 0-3.99827-5.3474-7.23951-11.9438-7.23951-6.59637 0-11.9438 3.24124-11.9438 7.23951 0 3.99829 5.34743 7.23949 11.9438 7.23949z" fill="#fff"/><path d="m11.9439 13.9165c-3.09869 0-6.00593-.726-8.18222-2.0467-2.08239-1.262-3.229453-2.90556-3.229453-4.62935 0-1.72378 1.147063-3.36539 3.229453-4.62937 2.17629-1.31876 5.08353-2.046627 8.18222-2.046627 3.0988 0 6.006.725907 8.1823 2.046627 2.0824 1.26202 3.2295 2.90559 3.2295 4.62937 0 1.72379-1.1471 3.36535-3.2295 4.62935-2.1763 1.3207-5.0835 2.0467-8.1823 2.0467z" fill="#1c1b1d"/><path d="m20.1263 3.73999c-2.1763-1.31877-5.0836-2.04663-8.1823-2.04663-3.09873 0-6.00598.72591-8.18227 2.04663-1.87433 1.13484-2.990097 2.57883-3.194469 4.11087.206213 1.53203 1.321979 2.97604 3.194469 4.11084 2.17629 1.3188 5.08354 2.0467 8.18227 2.0467 3.0987 0 6.006-.726 8.1823-2.0467 1.8743-1.1348 2.9901-2.57881 3.1944-4.11084-.2043-1.53008-1.3201-2.97407-3.1944-4.11087z" fill="#ffa100"/><path d="m4.53465 12.5983.81933-.5048.25961.1585-.81933.5048zm-2.50955-2.66097-.09574-.21718 1.11945-.18588.09574.21914zm7.10148 4.35737.2946-.6907.35535.0587-.29828.6907zm-7.21379-7.64645.0939-.21915 1.12313.18588-.09206.21719zm12.55881 7.70515-.3038-.6907.3535-.0567.3056.6907zm-9.98298-10.5853.25961-.16045.82301.50481-.25961.16044zm13.82738 8.4859.2596-.1605.823.5048-.2596.1605zm-8.95006-9.49161-.30564-.69069.35535-.0587.30564.69069zm11.39146 6.98906.0939-.21914 1.1231.18588-.0939.21914zm-8.6021-1.92923 4.4502-2.35773c.1215-.06457.3038-.0587.4161.00978.0055.00391.0092.00587.0148.00978.1104.08023.0957.19762-.0313.26611l-4.4502 2.35773c.0405.12131-.0166.2524-.1694.34828-.243.15066-.6371.15066-.8819 0-.1786-.10957-.2283-.26806-.1473-.40503l-1.86884-1.35398c-.10863-.08022-.0939-.19762.03314-.2661.12336-.06457.3038-.0587.41427.00978.00552.00392.01105.00783.01657.01174l1.86886 1.35399c.1141-.0137.2283-.00783.335.01565zm1.9536-5.11853.2982-.69069.3535.0587-.2946.69069zm6.7277 4.12848-.0958-.21914 1.1195-.18393.0957.21719zm-2.563-2.71775.8194-.50481.2596.15849-.8194.5048zm1.7142-.89809c-4.4723-2.74319-11.69712-2.745146-16.13992 0-4.442795 2.74318-4.41886 7.19257.0534 9.93577 4.47042 2.7432 11.69712 2.7432 16.13992 0 4.4409-2.7452 4.417-7.19259-.0534-9.93577z" fill="#fff"/><g fill="#1c1b1d"><path d="m19.3526 3.76786-.2614-.15848-.8175.5048.2596.15849z"/><path d="m14.7604 2.07041-.3535-.05674-.2983.68873.3554.0587z"/><path d="m9.41565 2.01367-.35535.05674.30564.69069.35535-.0587z"/><path d="m5.57139 4.11418-.82301-.5048-.25961.15848.82301.50481z"/><path d="m3.12999 6.61361-1.12313-.18588-.0939.21915 1.12313.18392z"/><path d="m3.05049 9.53516-1.12129.18588.09574.21718 1.12129-.18392z"/><path d="m5.61361 12.2503-.25961-.1585-.81933.5048.25961.1604z"/><path d="m9.77665 13.6622-.35535-.0587-.29459.6907.35351.0587z"/><path d="m14.5216 13.6035-.3535.0568.3038.6926.3553-.0587z"/><path d="m19.3988 12.5966-.823-.5048-.2596.1604.823.5048z"/><path d="m21.9745 9.72104-1.1232-.18588-.0939.21718 1.1232.18588z"/><path d="m21.8621 6.42773-1.1213.18393.0958.21914 1.1213-.18588z"/></g><path d="m12.5548 8.10742-.4124.21915c-.0608.03326-.14.04891-.2228.045-.0718-.00391-.1418-.02348-.1933-.05479-.0056-.00391-.0111-.00782-.0166-.01174l-.3517-.25436c-.081.13697-.0313.29545.1473.40502.2449.15066.6389.15066.8819 0 .151-.09587.2081-.22696.1676-.34828zm-.3995-.28566c-.1068-.02348-.2228-.02935-.3333-.01566l.1528.11153z" fill="#000"/><path d="m17.0235 5.47293c-.1123-.06849-.2946-.07435-.4161-.00979l-4.452 2.35774-.1786.09587-.1528-.11153-1.86882-1.35398c-.00553-.00391-.01105-.00783-.01658-.01174-.11231-.06848-.2909-.07435-.41426-.00978-.12705.06652-.14362.18587-.03315.2661l1.86881 1.35398.3517.25436c.0055.00391.011.00783.0165.01174.0516.03131.1216.05087.1934.05479.0828.00391.162-.01174.2228-.04501l.4124-.21914 4.452-2.35773c.127-.06652.1418-.18588.0313-.2661-.0055-.00196-.0111-.00587-.0166-.00978z" fill="#000"/></svg>