<svg fill="none" height="21" viewBox="0 0 28 21" width="28" xmlns="http://www.w3.org/2000/svg"><path d="m24.621 6.75521-10.2554-6.26101c-.8619-.5261207-2.2573-.5261207-3.114 0l-10.19045 6.26101c-.856751.52612-.85333 1.3813.01026 1.90742l10.25539 6.26097c.8636.5262 2.2573.5262 3.1141 0l10.1886-6.26097c.8585-.52612.8551-1.3813-.0085-1.90742z" fill="#fff"/><path d="m13.0098 15.3097c-.6036.0199-1.2193-.1049-1.6827-.3887l-10.25539-6.25921c-.430944-.26397-.648125-.60748-.649835-.95281v4.14752c.00171.3453.218891.6906.649835.9528l10.25539 6.261c.4634.282 1.0791.4086 1.6827.3887z" fill="#007a5a"/><path d="m25.2729 7.70898c.0017.34533-.2121.69065-.6396.95281l-10.1904 6.26101c-.3967.2441-.9097.3743-1.433.3923v4.1439c-.4481.0145-.903-.0506-1.298-.2007.8533.3291 1.9906.2676 2.731-.1862l10.1887-6.261c.4292-.264.6413-.6075.6396-.9528v-4.14932z" fill="#01523d"/><path d="m26.7709 12.1473-1.4998-.9149v.6238c.0017.3453-.212.6906-.6395.9528l-10.1887 6.261c-.7183.4411-1.811.5116-2.6541.2133l.4207.2568c.8636.5261 3.5262.9708 5.7647-.076l8.8069-5.4112c.8568-.5244.8534-1.3777-.0102-1.9056z" fill="#000"/><path d="m16.8732 4.92819c-.2189-.13379-.5438-.20068-.8858-.14463l-9.17289 1.50604c-.67719.1139-.90464.63098-.40529.93653l6.74458 4.11677c.4993.3055 1.3441.1645 1.5271-.2513l2.4283-5.62282c.0924-.20792-.0171-.4068-.236-.54059z" fill="#007a5a"/></svg>