<svg fill="none" height="22" viewBox="0 0 30 22" width="30" xmlns="http://www.w3.org/2000/svg" xmlns:xlink="http://www.w3.org/1999/xlink"><clipPath id="a"><path d="m0 0h30v22h-30z"/></clipPath><g clip-path="url(#a)"><path d="m27.3351 7.43405-12.3765-6.990658c-1.041-.585981-2.7234-.585981-3.7644 0l-12.30286 6.990658c-1.03049.58598-1.01998 1.54205.02103 2.12804l12.37643 6.99061c1.041.586 2.7235.586 3.7645 0l12.3028-6.99061c1.0305-.58599 1.02-1.54206-.021-2.12804z" fill="#fff"/><path d="m.788644 9.56135 12.376456 6.99065c1.041.586 2.7234.586 3.7644 0l12.3029-6.99065c.5152-.29813.7781-.67851.7676-1.06916v3.16631c0 .3804-.2524.7711-.7676 1.0692l-12.3029 6.9907c-1.0304.5859-2.7129.5859-3.7644 0l-12.376456-6.9907c-.525763-.2981-.788644-.6785-.788644-1.0692v-3.16631c0 .39065.262881.77103.788644 1.06916z" fill="#6e456f"/><path d="m14.8687 16.9838c.736.0308 1.4931-.1131 2.0609-.4318l12.3029-6.99065c.5152-.29813.7781-.67851.7676-1.06916v3.16631c0 .3804-.2524.7711-.7676 1.0692l-12.3029 6.9907c-.5678.3186-1.3249.4626-2.0609.4317z" fill="#381038"/><path d="m14.9948 12.0277c.6098 0 1.2092.072 1.7665.1953-.2523-.9972-1.1987-2.0663-2.776-2.95045-2.5342-1.42897-5.88854-1.94299-8.18086-1.36729-.01051.18505.11567.38038.36803.51402l6.83493 3.85512c.6204-.1542 1.2934-.2467 1.9874-.2467z" fill="#4a154b"/><path d="m20.2628 5.71617c-1.4091-.79159-3.754-.75047-5.2366.09252-1.4827.84299-1.5563 2.17944-.1578 2.97103 1.3986.79159 3.7435.75047 5.2366-.10281 1.4932-.84299 1.5563-2.16915.1578-2.96074z" fill="#4a154b"/><g fill="#fff"><path d="m15.0053 18.6685c-1.2618 0-2.4606-.2879-3.3859-.8019-1.0936-.6168-1.7245-1.5421-1.7245-2.5187s.6204-1.8916 1.7035-2.5084c.9253-.5243 2.124-.8122 3.3964-.8122 1.2618 0 2.4711.2879 3.3964.8122 1.0936.6168 1.714 1.5318 1.714 2.5084s-.6204 1.9019-1.7035 2.5084c-.9253.5243-2.1346.8122-3.3964.8122z"/><path d="m9.8949 15.1836v.1542c0-.0514.02102-.1028.02102-.1542z"/><path d="m20.0947 15.2756v-.0822h-.0105c0 .0205.0105.0514.0105.0822z"/></g><path d="m17.8655 13.7242c1.5878.8944 1.5773 2.3542.0105 3.2486-1.5773.8944-4.143.9047-5.7308.0103-1.5983-.9047-1.5878-2.3542-.021-3.2486 1.5772-.9047 4.143-.9047 5.7413-.0103z" fill="#2eb67d"/><path d="m20.0947 18.5966v-3.1767c-.0315.9561-.6414 1.8402-1.6929 2.4365-.9253.5243-2.1346.8121-3.3964.8121v3.3206c1.2723 0 2.4816-.2879 3.3964-.8122 1.02-.5757 1.5983-1.4187 1.6719-2.3336h.021v-.1131c0-.0206.0106-.0514.0106-.072 0-.0102-.0106-.0411-.0106-.0616z" fill="#381038"/><path d="m9.90541 18.5966v-3.1767c.03155.9561.64139 1.8402 1.69299 2.4365.9253.5243 2.1346.8121 3.3964.8121v3.3206c-1.2724 0-2.4816-.2879-3.3964-.8122-1.02-.5757-1.5984-1.4187-1.67196-2.3336h-.02103v-.1131c0-.0206-.01051-.0514-.01051-.072 0-.0102.01051-.0411.01051-.0616z" fill="#6e456f"/></g></svg>