<svg fill="none" height="28" viewBox="0 0 27 28" width="27" xmlns="http://www.w3.org/2000/svg" xmlns:xlink="http://www.w3.org/1999/xlink"><linearGradient id="a"><stop offset="0" stop-color="#ff771a"/><stop offset="1" stop-color="#fcc421"/></linearGradient><linearGradient id="b" gradientUnits="userSpaceOnUse" x1="7.35669" x2="5.48533" xlink:href="#a" y1="9.6182" y2="1.2351"/><linearGradient id="c" gradientUnits="userSpaceOnUse" x1="18.9783" x2="20.8497" xlink:href="#a" y1="9.62016" y2="1.23705"/><path d="m25.7231 20.4301c-.3135 2.3261-4.9639 4.032-10.4496 4.3237-5.1935.2779-9.46617-1.822-9.9336-4.4266-.38144-2.1242 5.6091-3.94 11.0684-4.003 5.4594-.063 9.6283 1.7798 9.3148 4.1059z" fill="#000"/><path d="m13.2831 23.5004c6.1942 0 11.2155-5.0041 11.2155-11.177 0-6.17282-5.0213-11.17692-11.2155-11.17692-6.19413 0-11.21547 5.0041-11.21547 11.17692 0 6.1729 5.02134 11.177 11.21547 11.177z" fill="#f2c744"/><path d="m24.3533 14.1191c-.861 5.3195-5.4891 9.3794-11.0702 9.3794-5.5812 0-10.20729-4.0619-11.07033-9.3794 2.23737 3.7705 6.35626 6.2998 11.07033 6.2998 4.714 0 8.8349-2.5293 11.0702-6.2998z" fill="#e6bd43"/><path d="m17.9071 12.4941c.2352 0 .4172.2691.3968.5789-.0777 1.1841-.3886 2.2786-.8713 3.2059-.6012 1.1536-1.4724 2.0422-2.4909 2.5109-.5195.2385-1.0778.3689-1.6586.3689s-1.1392-.1304-1.6586-.3689c-1.0185-.4687-1.88972-1.3573-2.49099-2.5089-.4847-.9273-.79556-2.0218-.87327-3.2079-.02046-.3098.16156-.5789.39675-.5789z" fill="#000"/><path d="m17.4326 16.2769c-.6013 1.1535-1.4725 2.0421-2.491 2.5109h-3.3172c-1.0185-.4688-1.88971-1.3574-2.49098-2.5089.63604-2.2113 2.25578-3.7848 4.14958-3.7848 1.8979 0 3.5135 1.5714 4.1496 3.7828z" fill="#241f14"/><path d="m16.4551 17.6752c-.8651.9273-1.9695 1.4837-3.172 1.4837-1.2026 0-2.3069-.5544-3.172-1.4837.8058-1.0904 1.9285-1.765 3.172-1.765 1.2434 0 2.3682.6746 3.172 1.765z" fill="#ff771a"/><path d="m17.3324 12.4941v.8846c0 .375-.3047.6766-.679.6766h-6.7387c-.3763 0-.67898-.3037-.67898-.6766v-.8846z" fill="#fff"/><path d="m5.97891 1.16539 1.82016 2.41923c.08181.11006.21474.17324.35177.16713l3.03086-.12229c.3477-.01427.5604.37501.36.65831l-1.74658 2.47222c-.07976.11209-.09817.2568-.05113.3852l1.05321 2.835c.1207.32401-.184.64611-.5153.54421l-2.90003-.89069c-.13089-.04076-.27609-.01426-.38244.07134l-2.38053 1.87505c-.272.214-.67285.0245-.67898-.322l-.04295-3.02456c-.00205-.13656-.07158-.26496-.18611-.34037l-2.52573-1.67532c-.288366-.19158-.231102-.62977.09612-.74187l2.87136-.97829c.13089-.04484.2311-.15082.26791-.2833l.8201-2.91041c.09407-.334247.52969-.415771.73829-.13859z" fill="url(#b)"/><path d="m20.3551 1.16734-1.8202 2.41923c-.0818.11006-.2147.17324-.3518.16713l-3.0308-.12433c-.3477-.01426-.5604.37501-.36.65831l1.7466 2.47222c.0797.1121.0981.2568.0511.3852l-1.0532 2.83501c-.1207.32409.184.64609.5153.54419l2.9-.89067c.1309-.04076.2761-.01427.3825.07133l2.3805 1.87504c.272.214.6728.0245.679-.322l.045-3.02251c.002-.13655.0715-.26495.1861-.34036l2.5257-1.67533c.2884-.19158.2311-.62977-.0961-.74187l-2.8714-.97829c-.1309-.04483-.2311-.15082-.2679-.28329l-.8221-2.91041c-.0921-.334253-.5297-.415778-.7383-.1386z" fill="url(#c)"/></svg>