<svg xmlns="http://www.w3.org/2000/svg" viewBox="0 0 20 20" data-chj="true" data-qa="hourglass" aria-hidden="true" class="" style="--s: 20px; color: white"><path fill="currentColor" fill-rule="evenodd" d="M3.46 5.22A3.473 3.473 0 0 1 6.924 1.5h6.178a3.45 3.45 0 0 1 3.44 3.694 2.55 2.55 0 0 1-.638 1.511l-2.967 3.339a.25.25 0 0 0 .01.342l2.867 2.867c.428.429.688.997.731 1.602a3.403 3.403 0 0 1-3.394 3.645H6.876a3.43 3.43 0 0 1-3.42-3.672 2.54 2.54 0 0 1 .68-1.553l2.712-2.893a.25.25 0 0 0 .01-.331l-2.81-3.372A2.57 2.57 0 0 1 3.46 5.22M6.924 3c-1.145 0-2.05.971-1.968 2.113.016.223.102.435.245.606l2.81 3.372a1.75 1.75 0 0 1-.069 2.317L5.23 14.3c-.162.173-.26.397-.277.634A1.93 1.93 0 0 0 6.876 17h6.275a1.903 1.903 0 0 0 1.898-2.039 1.02 1.02 0 0 0-.296-.647l-2.867-2.867a1.75 1.75 0 0 1-.07-2.4l2.967-3.338c.154-.173.246-.392.262-.622A1.95 1.95 0 0 0 13.102 3zM13.5 15.65c0 .35-.887.35-3.5.35s-3.5 0-3.5-.35c0-.933 2.345-3.15 3.5-3.15 1.19 0 3.5 2.228 3.5 3.15m-1-9.025c0 .45-1.875 2.5-2.5 2.5s-2.5-2.1-2.5-2.5C7.5 6 8.125 6 10 6s2.5 0 2.5.625" clip-rule="evenodd"></path></svg>