<svg xmlns="http://www.w3.org/2000/svg" viewBox="0 0 20 20" data-pef="true" data-qa="add-channel-canvas" aria-hidden="true" class="" style="--s: 20px;"><path fill="#0b4c8c" fill-rule="evenodd" d="M4 1a.75.75 0 0 1 .75.75v1.5h1.5a.75.75 0 0 1 0 1.5h-1.5v1.5a.75.75 0 0 1-1.5 0v-1.5h-1.5a.75.75 0 0 1 0-1.5h1.5v-1.5A.75.75 0 0 1 4 1m5.25.5a.75.75 0 0 0 0 1.5h5.5A2.25 2.25 0 0 1 17 5.25v5.5h-4.75a1.5 1.5 0 0 0-1.5 1.5V17h-5.5A2.25 2.25 0 0 1 3 14.75v-5.5a.75.75 0 0 0-1.5 0v5.5a3.75 3.75 0 0 0 3.75 3.75h5.736c.729 0 1.428-.29 1.944-.805l4.765-4.765a2.75 2.75 0 0 0 .805-1.944V5.25a3.75 3.75 0 0 0-3.75-3.75zm3 14.753 4.003-4.003H12.25z" clip-rule="evenodd"></path></svg>