<svg xmlns="http://www.w3.org/2000/svg" viewBox="0 0 20 20" data-pef="true" data-qa="lists" aria-hidden="true" class="" style="--s: 20px;"><path fill="#8e5b00" fill-rule="evenodd" d="M1.5 5.25A3.75 3.75 0 0 1 5.25 1.5h9.5a3.75 3.75 0 0 1 3.75 3.75v9.5a3.75 3.75 0 0 1-3.75 3.75h-9.5a3.75 3.75 0 0 1-3.75-3.75zM5.25 3A2.25 2.25 0 0 0 3 5.25v9.5A2.25 2.25 0 0 0 5.25 17h9.5A2.25 2.25 0 0 0 17 14.75v-9.5A2.25 2.25 0 0 0 14.75 3zm3.654 9.204a.75.75 0 1 0-1.044-1.078l-1.802 1.745-.654-.634a.75.75 0 1 0-1.044 1.077l1.177 1.14a.75.75 0 0 0 1.043 0zm1.714.782a.75.75 0 0 0 0 1.5h4.5a.75.75 0 0 0 0-1.5zm0-3.687a.75.75 0 0 0 0 1.5h4.5a.75.75 0 0 0 0-1.5zm-.75-2.938a.75.75 0 0 1 .75-.75h4.5a.75.75 0 0 1 0 1.5h-4.5a.75.75 0 0 1-.75-.75m-3.28 2.482c.2 0 .402-.114.737-.343.85-.586 1.513-1.317 1.513-2.082 0-.595-.486-1.075-1.168-1.075-.832 0-1.082.757-1.082.757s-.258-.757-1.082-.757c-.68 0-1.168.48-1.168 1.075 0 .765.66 1.498 1.51 2.078.337.231.54.347.74.347" clip-rule="evenodd"></path></svg>