<svg xmlns="http://www.w3.org/2000/svg" viewBox="0 0 20 20" data-pef="true" data-qa="channel" aria-hidden="true" class="" style="--s: 20px;"><path fill="#333133" fill-rule="evenodd" d="M9.74 3.878a.75.75 0 1 0-1.48-.255L7.68 7H3.75a.75.75 0 0 0 0 1.5h3.67L6.472 14H2.75a.75.75 0 0 0 0 1.5h3.463l-.452 2.623a.75.75 0 0 0 1.478.255l.496-2.878h3.228l-.452 2.623a.75.75 0 0 0 1.478.255l.496-2.878h3.765a.75.75 0 0 0 0-1.5h-3.506l.948-5.5h3.558a.75.75 0 0 0 0-1.5h-3.3l.54-3.122a.75.75 0 0 0-1.48-.255L12.43 7H9.2zM11.221 14l.948-5.5H8.942L7.994 14z" clip-rule="evenodd"></path></svg>