<svg xmlns="http://www.w3.org/2000/svg" viewBox="0 0 20 20" data-pef="true" data-qa="canvas-browser-filled" aria-hidden="true" class="" style="--s: 20px;"><path fill="currentColor" fill-rule="evenodd" d="M3 4.836C3 3.822 3.822 3 4.836 3h7.328c.9 0 1.647.646 1.805 1.5H7.836A3.336 3.336 0 0 0 4.5 7.836v6.133A1.84 1.84 0 0 1 3 12.164zm1.515 10.649A3.337 3.337 0 0 1 1.5 12.164V4.836A3.336 3.336 0 0 1 4.836 1.5h7.328a3.337 3.337 0 0 1 3.32 3.015A3.337 3.337 0 0 1 18.5 7.836v3.968c0 .73-.29 1.43-.805 1.945l-3.946 3.946a2.75 2.75 0 0 1-1.945.805H7.836a3.337 3.337 0 0 1-3.32-3.015M11.5 13a1.5 1.5 0 0 1 1.5-1.5h2.75a.75.75 0 0 1 0 1.5H13v2.75a.75.75 0 0 1-1.5 0z" clip-rule="evenodd"></path></svg>