<svg xmlns="http://www.w3.org/2000/svg" viewBox="0 0 20 20" data-pef="true" data-qa="canvas-browser" aria-hidden="true" class="" style="--s: 20px;"><path fill="currentColor" fill-rule="evenodd" d="M4.836 3A1.836 1.836 0 0 0 3 4.836v7.328c0 .9.646 1.647 1.5 1.805V7.836A3.336 3.336 0 0 1 7.836 4.5h6.133A1.84 1.84 0 0 0 12.164 3zM1.5 12.164a3.337 3.337 0 0 0 3.015 3.32A3.337 3.337 0 0 0 7.836 18.5h3.968c.73 0 1.43-.29 1.945-.805l3.946-3.946a2.75 2.75 0 0 0 .805-1.945V7.836a3.337 3.337 0 0 0-3.015-3.32A3.337 3.337 0 0 0 12.164 1.5H4.836A3.336 3.336 0 0 0 1.5 4.836zM7.836 6A1.836 1.836 0 0 0 6 7.836v7.328C6 16.178 6.822 17 7.836 17H11.5v-4a1.5 1.5 0 0 1 1.5-1.5h4V7.836A1.836 1.836 0 0 0 15.164 6zm8.486 7H13v3.322z" clip-rule="evenodd"></path></svg>